<svg width="204" height="29" viewBox="0 0 204 29" fill="none" xmlns="http://www.w3.org/2000/svg">
<path d="M6.49 1.97C9.61 1.97 12 2.53 13.66 3.65C15.32 4.75 16.15 6.47 16.15 8.81C16.15 10.27 15.81 11.46 15.13 12.38C14.47 13.28 13.51 13.99 12.25 14.51C12.67 15.03 13.11 15.63 13.57 16.31C14.03 16.97 14.48 17.67 14.92 18.41C15.38 19.13 15.82 19.89 16.24 20.69C16.66 21.47 17.05 22.24 17.41 23H12.16C11.78 22.32 11.39 21.63 10.99 20.93C10.61 20.23 10.21 19.55 9.79 18.89C9.39 18.23 8.99 17.61 8.59 17.03C8.19 16.43 7.79 15.89 7.39 15.41H5.08V23H0.4V2.51C1.42 2.31 2.47 2.17 3.55 2.09C4.65 2.01 5.63 1.97 6.49 1.97ZM6.76 5.96C6.42 5.96 6.11 5.97 5.83 5.99C5.57 6.01 5.32 6.03 5.08 6.05V11.69H6.4C8.16 11.69 9.42 11.47 10.18 11.03C10.94 10.59 11.32 9.84 11.32 8.78C11.32 7.76 10.93 7.04 10.15 6.62C9.39 6.18 8.26 5.96 6.76 5.96ZM18.598 15.23C18.598 13.83 18.808 12.61 19.228 11.57C19.668 10.51 20.238 9.63 20.938 8.93C21.638 8.23 22.438 7.7 23.338 7.34C24.258 6.98 25.198 6.8 26.158 6.8C28.398 6.8 30.168 7.49 31.468 8.87C32.768 10.23 33.418 12.24 33.418 14.9C33.418 15.16 33.408 15.45 33.388 15.77C33.368 16.07 33.348 16.34 33.328 16.58H23.188C23.288 17.5 23.718 18.23 24.478 18.77C25.238 19.31 26.258 19.58 27.538 19.58C28.358 19.58 29.158 19.51 29.938 19.37C30.738 19.21 31.388 19.02 31.888 18.8L32.488 22.43C32.248 22.55 31.928 22.67 31.528 22.79C31.128 22.91 30.678 23.01 30.178 23.09C29.698 23.19 29.178 23.27 28.618 23.33C28.058 23.39 27.498 23.42 26.938 23.42C25.518 23.42 24.278 23.21 23.218 22.79C22.178 22.37 21.308 21.8 20.608 21.08C19.928 20.34 19.418 19.47 19.078 18.47C18.758 17.47 18.598 16.39 18.598 15.23ZM29.098 13.52C29.078 13.14 29.008 12.77 28.888 12.41C28.788 12.05 28.618 11.73 28.378 11.45C28.158 11.17 27.868 10.94 27.508 10.76C27.168 10.58 26.738 10.49 26.218 10.49C25.718 10.49 25.288 10.58 24.928 10.76C24.568 10.92 24.268 11.14 24.028 11.42C23.788 11.7 23.598 12.03 23.458 12.41C23.338 12.77 23.248 13.14 23.188 13.52H29.098ZM41.1576 23C40.1376 21 39.0976 18.66 38.0376 15.98C36.9976 13.3 36.0076 10.38 35.0676 7.22H39.8076C40.0076 8 40.2376 8.85 40.4976 9.77C40.7776 10.67 41.0576 11.59 41.3376 12.53C41.6376 13.45 41.9276 14.35 42.2076 15.23C42.5076 16.11 42.7976 16.91 43.0776 17.63C43.3376 16.91 43.6176 16.11 43.9176 15.23C44.2176 14.35 44.5076 13.45 44.7876 12.53C45.0876 11.59 45.3676 10.67 45.6276 9.77C45.9076 8.85 46.1476 8 46.3476 7.22H50.9676C50.0276 10.38 49.0276 13.3 47.9676 15.98C46.9276 18.66 45.8976 21 44.8776 23H41.1576ZM57.8317 23H53.3617V7.22H57.8317V23ZM58.2517 2.66C58.2517 3.48 57.9817 4.13 57.4417 4.61C56.9217 5.07 56.3017 5.3 55.5817 5.3C54.8617 5.3 54.2317 5.07 53.6917 4.61C53.1717 4.13 52.9117 3.48 52.9117 2.66C52.9117 1.84 53.1717 1.2 53.6917 0.739999C54.2317 0.259999 54.8617 0.019999 55.5817 0.019999C56.3017 0.019999 56.9217 0.259999 57.4417 0.739999C57.9817 1.2 58.2517 1.84 58.2517 2.66ZM61.2836 15.23C61.2836 13.83 61.4936 12.61 61.9136 11.57C62.3536 10.51 62.9236 9.63 63.6236 8.93C64.3236 8.23 65.1236 7.7 66.0236 7.34C66.9436 6.98 67.8836 6.8 68.8436 6.8C71.0836 6.8 72.8536 7.49 74.1536 8.87C75.4536 10.23 76.1036 12.24 76.1036 14.9C76.1036 15.16 76.0936 15.45 76.0736 15.77C76.0536 16.07 76.0336 16.34 76.0136 16.58H65.8736C65.9736 17.5 66.4036 18.23 67.1636 18.77C67.9236 19.31 68.9436 19.58 70.2236 19.58C71.0436 19.58 71.8436 19.51 72.6236 19.37C73.4236 19.21 74.0736 19.02 74.5736 18.8L75.1736 22.43C74.9336 22.55 74.6136 22.67 74.2136 22.79C73.8136 22.91 73.3636 23.01 72.8636 23.09C72.3836 23.19 71.8636 23.27 71.3036 23.33C70.7436 23.39 70.1836 23.42 69.6236 23.42C68.2036 23.42 66.9636 23.21 65.9036 22.79C64.8636 22.37 63.9936 21.8 63.2936 21.08C62.6136 20.34 62.1036 19.47 61.7636 18.47C61.4436 17.47 61.2836 16.39 61.2836 15.23ZM71.7836 13.52C71.7636 13.14 71.6936 12.77 71.5736 12.41C71.4736 12.05 71.3036 11.73 71.0636 11.45C70.8436 11.17 70.5536 10.94 70.1936 10.76C69.8536 10.58 69.4236 10.49 68.9036 10.49C68.4036 10.49 67.9736 10.58 67.6136 10.76C67.2536 10.92 66.9536 11.14 66.7136 11.42C66.4736 11.7 66.2836 12.03 66.1436 12.41C66.0236 12.77 65.9336 13.14 65.8736 13.52H71.7836ZM89.1531 13.94C88.7531 15.46 88.3231 16.97 87.8631 18.47C87.4231 19.97 86.9531 21.48 86.4531 23H82.9731C82.6131 22.16 82.2231 21.16 81.8031 20C81.3831 18.84 80.9431 17.58 80.4831 16.22C80.0431 14.84 79.5831 13.39 79.1031 11.87C78.6431 10.33 78.1931 8.78 77.7531 7.22H82.4631C82.6231 7.94 82.7931 8.73 82.9731 9.59C83.1731 10.43 83.3731 11.3 83.5731 12.2C83.7931 13.1 84.0131 14.01 84.2331 14.93C84.4731 15.83 84.7131 16.7 84.9531 17.54C85.2131 16.66 85.4631 15.76 85.7031 14.84C85.9631 13.92 86.2031 13.02 86.4231 12.14C86.6631 11.24 86.8831 10.38 87.0831 9.56C87.3031 8.72 87.4931 7.94 87.6531 7.22H90.8931C91.0531 7.94 91.2331 8.72 91.4331 9.56C91.6331 10.38 91.8431 11.24 92.0631 12.14C92.2831 13.02 92.5131 13.92 92.7531 14.84C92.9931 15.76 93.2431 16.66 93.5031 17.54C93.7431 16.7 93.9831 15.83 94.2231 14.93C94.4631 14.01 94.6831 13.1 94.8831 12.2C95.1031 11.3 95.3031 10.43 95.4831 9.59C95.6831 8.73 95.8631 7.94 96.0231 7.22H100.673C100.233 8.78 99.7731 10.33 99.2931 11.87C98.8331 13.39 98.3731 14.84 97.9131 16.22C97.4731 17.58 97.0331 18.84 96.5931 20C96.1731 21.16 95.7831 22.16 95.4231 23H91.9431C91.4431 21.48 90.9531 19.97 90.4731 18.47C89.9931 16.97 89.5531 15.46 89.1531 13.94ZM109.049 19.43C109.709 19.43 110.249 19.38 110.669 19.28C111.109 19.16 111.459 19.01 111.719 18.83C111.979 18.63 112.159 18.4 112.259 18.14C112.359 17.88 112.409 17.59 112.409 17.27C112.409 16.59 112.089 16.03 111.449 15.59C110.809 15.13 109.709 14.64 108.149 14.12C107.469 13.88 106.789 13.61 106.109 13.31C105.429 12.99 104.819 12.6 104.279 12.14C103.739 11.66 103.299 11.09 102.959 10.43C102.619 9.75 102.449 8.93 102.449 7.97C102.449 7.01 102.629 6.15 102.989 5.39C103.349 4.61 103.859 3.95 104.519 3.41C105.179 2.87 105.979 2.46 106.919 2.18C107.859 1.88 108.919 1.73 110.099 1.73C111.499 1.73 112.709 1.88 113.729 2.18C114.749 2.48 115.589 2.81 116.249 3.17L114.899 6.86C114.319 6.56 113.669 6.3 112.949 6.08C112.249 5.84 111.399 5.72 110.399 5.72C109.279 5.72 108.469 5.88 107.969 6.2C107.489 6.5 107.249 6.97 107.249 7.61C107.249 7.99 107.339 8.31 107.519 8.57C107.699 8.83 107.949 9.07 108.269 9.29C108.609 9.49 108.989 9.68 109.409 9.86C109.849 10.02 110.329 10.19 110.849 10.37C111.929 10.77 112.869 11.17 113.669 11.57C114.469 11.95 115.129 12.4 115.649 12.92C116.189 13.44 116.589 14.05 116.849 14.75C117.109 15.45 117.239 16.3 117.239 17.3C117.239 19.24 116.559 20.75 115.199 21.83C113.839 22.89 111.789 23.42 109.049 23.42C108.129 23.42 107.299 23.36 106.559 23.24C105.819 23.14 105.159 23.01 104.579 22.85C104.019 22.69 103.529 22.52 103.109 22.34C102.709 22.16 102.369 21.99 102.089 21.83L103.409 18.11C104.029 18.45 104.789 18.76 105.689 19.04C106.609 19.3 107.729 19.43 109.049 19.43ZM134.081 7.22C133.181 10.26 132.241 13.11 131.261 15.77C130.281 18.43 129.211 21.01 128.051 23.51C127.631 24.41 127.211 25.17 126.791 25.79C126.371 26.43 125.911 26.95 125.411 27.35C124.911 27.77 124.341 28.07 123.701 28.25C123.081 28.45 122.351 28.55 121.511 28.55C120.811 28.55 120.161 28.48 119.561 28.34C118.981 28.22 118.501 28.08 118.121 27.92L118.901 24.35C119.361 24.51 119.771 24.62 120.131 24.68C120.491 24.74 120.871 24.77 121.271 24.77C122.071 24.77 122.681 24.55 123.101 24.11C123.541 23.69 123.911 23.1 124.211 22.34C123.191 20.34 122.171 18.1 121.151 15.62C120.131 13.12 119.171 10.32 118.271 7.22H123.011C123.211 8 123.441 8.85 123.701 9.77C123.981 10.67 124.271 11.59 124.571 12.53C124.871 13.45 125.171 14.35 125.471 15.23C125.791 16.11 126.091 16.91 126.371 17.63C126.631 16.91 126.901 16.11 127.181 15.23C127.461 14.35 127.731 13.45 127.991 12.53C128.271 11.59 128.531 10.67 128.771 9.77C129.031 8.85 129.261 8 129.461 7.22H134.081ZM141.007 19.79C141.827 19.79 142.407 19.71 142.747 19.55C143.087 19.39 143.257 19.08 143.257 18.62C143.257 18.26 143.037 17.95 142.597 17.69C142.157 17.41 141.487 17.1 140.587 16.76C139.887 16.5 139.247 16.23 138.667 15.95C138.107 15.67 137.627 15.34 137.227 14.96C136.827 14.56 136.517 14.09 136.297 13.55C136.077 13.01 135.967 12.36 135.967 11.6C135.967 10.12 136.517 8.95 137.617 8.09C138.717 7.23 140.227 6.8 142.147 6.8C143.107 6.8 144.027 6.89 144.907 7.07C145.787 7.23 146.487 7.41 147.007 7.61L146.227 11.09C145.707 10.91 145.137 10.75 144.517 10.61C143.917 10.47 143.237 10.4 142.477 10.4C141.077 10.4 140.377 10.79 140.377 11.57C140.377 11.75 140.407 11.91 140.467 12.05C140.527 12.19 140.647 12.33 140.827 12.47C141.007 12.59 141.247 12.73 141.547 12.89C141.867 13.03 142.267 13.19 142.747 13.37C143.727 13.73 144.537 14.09 145.177 14.45C145.817 14.79 146.317 15.17 146.677 15.59C147.057 15.99 147.317 16.44 147.457 16.94C147.617 17.44 147.697 18.02 147.697 18.68C147.697 20.24 147.107 21.42 145.927 22.22C144.767 23.02 143.117 23.42 140.977 23.42C139.577 23.42 138.407 23.3 137.467 23.06C136.547 22.82 135.907 22.62 135.547 22.46L136.297 18.83C137.057 19.13 137.837 19.37 138.637 19.55C139.437 19.71 140.227 19.79 141.007 19.79ZM150.888 3.29L155.358 2.57V7.22H160.728V10.94H155.358V16.49C155.358 17.43 155.518 18.18 155.838 18.74C156.178 19.3 156.848 19.58 157.848 19.58C158.328 19.58 158.818 19.54 159.318 19.46C159.838 19.36 160.308 19.23 160.728 19.07L161.358 22.55C160.818 22.77 160.218 22.96 159.558 23.12C158.898 23.28 158.088 23.36 157.128 23.36C155.908 23.36 154.898 23.2 154.098 22.88C153.298 22.54 152.658 22.08 152.178 21.5C151.698 20.9 151.358 20.18 151.158 19.34C150.978 18.5 150.888 17.57 150.888 16.55V3.29ZM163.032 15.23C163.032 13.83 163.242 12.61 163.662 11.57C164.102 10.51 164.672 9.63 165.372 8.93C166.072 8.23 166.872 7.7 167.772 7.34C168.692 6.98 169.632 6.8 170.592 6.8C172.832 6.8 174.602 7.49 175.902 8.87C177.202 10.23 177.852 12.24 177.852 14.9C177.852 15.16 177.842 15.45 177.822 15.77C177.802 16.07 177.782 16.34 177.762 16.58H167.622C167.722 17.5 168.152 18.23 168.912 18.77C169.672 19.31 170.692 19.58 171.972 19.58C172.792 19.58 173.592 19.51 174.372 19.37C175.172 19.21 175.822 19.02 176.322 18.8L176.922 22.43C176.682 22.55 176.362 22.67 175.962 22.79C175.562 22.91 175.112 23.01 174.612 23.09C174.132 23.19 173.612 23.27 173.052 23.33C172.492 23.39 171.932 23.42 171.372 23.42C169.952 23.42 168.712 23.21 167.652 22.79C166.612 22.37 165.742 21.8 165.042 21.08C164.362 20.34 163.852 19.47 163.512 18.47C163.192 17.47 163.032 16.39 163.032 15.23ZM173.532 13.52C173.512 13.14 173.442 12.77 173.322 12.41C173.222 12.05 173.052 11.73 172.812 11.45C172.592 11.17 172.302 10.94 171.942 10.76C171.602 10.58 171.172 10.49 170.652 10.49C170.152 10.49 169.722 10.58 169.362 10.76C169.002 10.92 168.702 11.14 168.462 11.42C168.222 11.7 168.032 12.03 167.892 12.41C167.772 12.77 167.682 13.14 167.622 13.52H173.532ZM189.971 14.63C189.971 13.19 189.781 12.17 189.401 11.57C189.041 10.97 188.411 10.67 187.511 10.67C187.231 10.67 186.941 10.69 186.641 10.73C186.341 10.75 186.051 10.78 185.771 10.82V23H181.301V7.76C181.681 7.66 182.121 7.56 182.621 7.46C183.141 7.34 183.681 7.24 184.241 7.16C184.821 7.06 185.411 6.99 186.011 6.95C186.611 6.89 187.201 6.86 187.781 6.86C188.921 6.86 189.841 7.01 190.541 7.31C191.261 7.59 191.851 7.93 192.311 8.33C192.951 7.87 193.681 7.51 194.501 7.25C195.341 6.99 196.111 6.86 196.811 6.86C198.071 6.86 199.101 7.04 199.901 7.4C200.721 7.74 201.371 8.23 201.851 8.87C202.331 9.51 202.661 10.27 202.841 11.15C203.021 12.03 203.111 13.01 203.111 14.09V23H198.641V14.63C198.641 13.19 198.451 12.17 198.071 11.57C197.711 10.97 197.081 10.67 196.181 10.67C195.941 10.67 195.601 10.73 195.161 10.85C194.741 10.97 194.391 11.12 194.111 11.3C194.251 11.76 194.341 12.25 194.381 12.77C194.421 13.27 194.441 13.81 194.441 14.39V23H189.971V14.63Z" fill="#1CF9FD"/>
</svg>
