<svg width="1440" height="1024" viewBox="0 0 1440 1024" fill="none" xmlns="http://www.w3.org/2000/svg">
<rect width="1440" height="1024" fill="#F4F4F4"/>
<rect width="1440" height="74" fill="#003E8A"/>
<rect y="950" width="1440" height="74" fill="#003E8A"/>
<path d="M636.72 31.14H638.66V45H636.72V31.14ZM641.971 34.9C642.398 34.7933 642.964 34.68 643.671 34.56C644.378 34.44 645.191 34.38 646.111 34.38C646.938 34.38 647.624 34.5 648.171 34.74C648.718 34.9667 649.151 35.2933 649.471 35.72C649.804 36.1333 650.038 36.6333 650.171 37.22C650.304 37.8067 650.371 38.4533 650.371 39.16V45H648.511V39.56C648.511 38.92 648.464 38.3733 648.371 37.92C648.291 37.4667 648.151 37.1 647.951 36.82C647.751 36.54 647.484 36.34 647.151 36.22C646.818 36.0867 646.404 36.02 645.911 36.02C645.711 36.02 645.504 36.0267 645.291 36.04C645.078 36.0533 644.871 36.0733 644.671 36.1C644.484 36.1133 644.311 36.1333 644.151 36.16C644.004 36.1867 643.898 36.2067 643.831 36.22V45H641.971V34.9ZM655.315 45H653.455V34.6H655.315V45ZM656.815 30.66L653.995 33.4L653.055 32.56L655.615 29.48L656.815 30.66ZM663.034 45.24C662.194 45.24 661.454 45.1067 660.814 44.84C660.187 44.5733 659.654 44.2 659.214 43.72C658.787 43.24 658.467 42.6733 658.254 42.02C658.041 41.3533 657.934 40.62 657.934 39.82C657.934 39.02 658.047 38.2867 658.274 37.62C658.514 36.9533 658.847 36.38 659.274 35.9C659.701 35.4067 660.221 35.0267 660.834 34.76C661.461 34.48 662.154 34.34 662.914 34.34C663.381 34.34 663.847 34.38 664.314 34.46C664.781 34.54 665.227 34.6667 665.654 34.84L665.234 36.42C664.954 36.2867 664.627 36.18 664.254 36.1C663.894 36.02 663.507 35.98 663.094 35.98C662.054 35.98 661.254 36.3067 660.694 36.96C660.147 37.6133 659.874 38.5667 659.874 39.82C659.874 40.38 659.934 40.8933 660.054 41.36C660.187 41.8267 660.387 42.2267 660.654 42.56C660.934 42.8933 661.287 43.1533 661.714 43.34C662.141 43.5133 662.661 43.6 663.274 43.6C663.767 43.6 664.214 43.5533 664.614 43.46C665.014 43.3667 665.327 43.2667 665.554 43.16L665.814 44.72C665.707 44.7867 665.554 44.8533 665.354 44.92C665.154 44.9733 664.927 45.02 664.674 45.06C664.421 45.1133 664.147 45.1533 663.854 45.18C663.574 45.22 663.301 45.24 663.034 45.24ZM669.671 45H667.811V34.6H669.671V45ZM668.731 32.72C668.398 32.72 668.111 32.6133 667.871 32.4C667.644 32.1733 667.531 31.8733 667.531 31.5C667.531 31.1267 667.644 30.8333 667.871 30.62C668.111 30.3933 668.398 30.28 668.731 30.28C669.064 30.28 669.344 30.3933 669.571 30.62C669.811 30.8333 669.931 31.1267 669.931 31.5C669.931 31.8733 669.811 32.1733 669.571 32.4C669.344 32.6133 669.064 32.72 668.731 32.72ZM682.05 39.8C682.05 40.6267 681.93 41.3733 681.69 42.04C681.45 42.7067 681.11 43.28 680.67 43.76C680.243 44.24 679.73 44.6133 679.13 44.88C678.53 45.1333 677.876 45.26 677.17 45.26C676.463 45.26 675.81 45.1333 675.21 44.88C674.61 44.6133 674.09 44.24 673.65 43.76C673.223 43.28 672.89 42.7067 672.65 42.04C672.41 41.3733 672.29 40.6267 672.29 39.8C672.29 38.9867 672.41 38.2467 672.65 37.58C672.89 36.9 673.223 36.32 673.65 35.84C674.09 35.36 674.61 34.9933 675.21 34.74C675.81 34.4733 676.463 34.34 677.17 34.34C677.876 34.34 678.53 34.4733 679.13 34.74C679.73 34.9933 680.243 35.36 680.67 35.84C681.11 36.32 681.45 36.9 681.69 37.58C681.93 38.2467 682.05 38.9867 682.05 39.8ZM680.11 39.8C680.11 38.6267 679.843 37.7 679.31 37.02C678.79 36.3267 678.076 35.98 677.17 35.98C676.263 35.98 675.543 36.3267 675.01 37.02C674.49 37.7 674.23 38.6267 674.23 39.8C674.23 40.9733 674.49 41.9067 675.01 42.6C675.543 43.28 676.263 43.62 677.17 43.62C678.076 43.62 678.79 43.28 679.31 42.6C679.843 41.9067 680.11 40.9733 680.11 39.8ZM693.855 37.94C693.855 38.2867 693.795 38.6133 693.675 38.92C693.555 39.2267 693.382 39.4933 693.155 39.72C692.942 39.9467 692.675 40.1333 692.355 40.28C692.049 40.4133 691.695 40.48 691.295 40.48C690.895 40.48 690.535 40.4133 690.215 40.28C689.909 40.1333 689.642 39.9467 689.415 39.72C689.202 39.4933 689.035 39.2267 688.915 38.92C688.795 38.6133 688.735 38.2867 688.735 37.94C688.735 37.6067 688.795 37.2867 688.915 36.98C689.035 36.66 689.202 36.3867 689.415 36.16C689.642 35.9333 689.909 35.7533 690.215 35.62C690.535 35.4733 690.895 35.4 691.295 35.4C691.695 35.4 692.049 35.4733 692.355 35.62C692.675 35.7533 692.942 35.9333 693.155 36.16C693.382 36.3867 693.555 36.66 693.675 36.98C693.795 37.2867 693.855 37.6067 693.855 37.94ZM709.591 43.32V45H701.251V31.14H703.191V43.32H709.591ZM720.448 39.8C720.448 40.6267 720.328 41.3733 720.088 42.04C719.848 42.7067 719.508 43.28 719.068 43.76C718.641 44.24 718.128 44.6133 717.528 44.88C716.928 45.1333 716.275 45.26 715.568 45.26C714.861 45.26 714.208 45.1333 713.608 44.88C713.008 44.6133 712.488 44.24 712.048 43.76C711.621 43.28 711.288 42.7067 711.048 42.04C710.808 41.3733 710.688 40.6267 710.688 39.8C710.688 38.9867 710.808 38.2467 711.048 37.58C711.288 36.9 711.621 36.32 712.048 35.84C712.488 35.36 713.008 34.9933 713.608 34.74C714.208 34.4733 714.861 34.34 715.568 34.34C716.275 34.34 716.928 34.4733 717.528 34.74C718.128 34.9933 718.641 35.36 719.068 35.84C719.508 36.32 719.848 36.9 720.088 37.58C720.328 38.2467 720.448 38.9867 720.448 39.8ZM718.508 39.8C718.508 38.6267 718.241 37.7 717.708 37.02C717.188 36.3267 716.475 35.98 715.568 35.98C714.661 35.98 713.941 36.3267 713.408 37.02C712.888 37.7 712.628 38.6267 712.628 39.8C712.628 40.9733 712.888 41.9067 713.408 42.6C713.941 43.28 714.661 43.62 715.568 43.62C716.475 43.62 717.188 43.28 717.708 42.6C718.241 41.9067 718.508 40.9733 718.508 39.8ZM729.585 43.96C729.425 44.0667 729.112 44.2067 728.645 44.38C728.192 44.54 727.658 44.62 727.045 44.62C726.418 44.62 725.825 44.52 725.265 44.32C724.718 44.12 724.238 43.8133 723.825 43.4C723.412 42.9733 723.085 42.4467 722.845 41.82C722.605 41.1933 722.485 40.4467 722.485 39.58C722.485 38.82 722.598 38.1267 722.825 37.5C723.052 36.86 723.378 36.3133 723.805 35.86C724.245 35.3933 724.778 35.0333 725.405 34.78C726.032 34.5133 726.738 34.38 727.525 34.38C728.392 34.38 729.145 34.4467 729.785 34.58C730.438 34.7 730.985 34.8133 731.425 34.92V44.2C731.425 45.8 731.012 46.96 730.185 47.68C729.358 48.4 728.105 48.76 726.425 48.76C725.772 48.76 725.152 48.7067 724.565 48.6C723.992 48.4933 723.492 48.3667 723.065 48.22L723.405 46.6C723.778 46.7467 724.232 46.8733 724.765 46.98C725.312 47.1 725.878 47.16 726.465 47.16C727.572 47.16 728.365 46.94 728.845 46.5C729.338 46.06 729.585 45.36 729.585 44.4V43.96ZM729.565 36.24C729.378 36.1867 729.125 36.14 728.805 36.1C728.498 36.0467 728.078 36.02 727.545 36.02C726.545 36.02 725.772 36.3467 725.225 37C724.692 37.6533 724.425 38.52 724.425 39.6C724.425 40.2 724.498 40.7133 724.645 41.14C724.805 41.5667 725.012 41.92 725.265 42.2C725.532 42.48 725.832 42.6867 726.165 42.82C726.512 42.9533 726.865 43.02 727.225 43.02C727.718 43.02 728.172 42.9533 728.585 42.82C728.998 42.6733 729.325 42.5067 729.565 42.32V36.24ZM736.487 45H734.627V34.6H736.487V45ZM735.547 32.72C735.214 32.72 734.927 32.6133 734.687 32.4C734.461 32.1733 734.347 31.8733 734.347 31.5C734.347 31.1267 734.461 30.8333 734.687 30.62C734.927 30.3933 735.214 30.28 735.547 30.28C735.881 30.28 736.161 30.3933 736.387 30.62C736.627 30.8333 736.747 31.1267 736.747 31.5C736.747 31.8733 736.627 32.1733 736.387 32.4C736.161 32.6133 735.881 32.72 735.547 32.72ZM739.686 34.9C740.113 34.7933 740.679 34.68 741.386 34.56C742.093 34.44 742.906 34.38 743.826 34.38C744.653 34.38 745.339 34.5 745.886 34.74C746.433 34.9667 746.866 35.2933 747.186 35.72C747.519 36.1333 747.753 36.6333 747.886 37.22C748.019 37.8067 748.086 38.4533 748.086 39.16V45H746.226V39.56C746.226 38.92 746.179 38.3733 746.086 37.92C746.006 37.4667 745.866 37.1 745.666 36.82C745.466 36.54 745.199 36.34 744.866 36.22C744.533 36.0867 744.119 36.02 743.626 36.02C743.426 36.02 743.219 36.0267 743.006 36.04C742.793 36.0533 742.586 36.0733 742.386 36.1C742.199 36.1133 742.026 36.1333 741.866 36.16C741.719 36.1867 741.613 36.2067 741.546 36.22V45H739.686V34.9Z" fill="white"/>
<rect x="1210" y="19" width="150" height="37" rx="5" fill="#2E6CBA"/>
<path d="M88.49 26.97C91.61 26.97 94 27.53 95.66 28.65C97.32 29.75 98.15 31.47 98.15 33.81C98.15 35.27 97.81 36.46 97.13 37.38C96.47 38.28 95.51 38.99 94.25 39.51C94.67 40.03 95.11 40.63 95.57 41.31C96.03 41.97 96.48 42.67 96.92 43.41C97.38 44.13 97.82 44.89 98.24 45.69C98.66 46.47 99.05 47.24 99.41 48H94.16C93.78 47.32 93.39 46.63 92.99 45.93C92.61 45.23 92.21 44.55 91.79 43.89C91.39 43.23 90.99 42.61 90.59 42.03C90.19 41.43 89.79 40.89 89.39 40.41H87.08V48H82.4V27.51C83.42 27.31 84.47 27.17 85.55 27.09C86.65 27.01 87.63 26.97 88.49 26.97ZM88.76 30.96C88.42 30.96 88.11 30.97 87.83 30.99C87.57 31.01 87.32 31.03 87.08 31.05V36.69H88.4C90.16 36.69 91.42 36.47 92.18 36.03C92.94 35.59 93.32 34.84 93.32 33.78C93.32 32.76 92.93 32.04 92.15 31.62C91.39 31.18 90.26 30.96 88.76 30.96ZM100.598 40.23C100.598 38.83 100.808 37.61 101.228 36.57C101.668 35.51 102.238 34.63 102.938 33.93C103.638 33.23 104.438 32.7 105.338 32.34C106.258 31.98 107.198 31.8 108.158 31.8C110.398 31.8 112.168 32.49 113.468 33.87C114.768 35.23 115.418 37.24 115.418 39.9C115.418 40.16 115.408 40.45 115.388 40.77C115.368 41.07 115.348 41.34 115.328 41.58H105.188C105.288 42.5 105.718 43.23 106.478 43.77C107.238 44.31 108.258 44.58 109.538 44.58C110.358 44.58 111.158 44.51 111.938 44.37C112.738 44.21 113.388 44.02 113.888 43.8L114.488 47.43C114.248 47.55 113.928 47.67 113.528 47.79C113.128 47.91 112.678 48.01 112.178 48.09C111.698 48.19 111.178 48.27 110.618 48.33C110.058 48.39 109.498 48.42 108.938 48.42C107.518 48.42 106.278 48.21 105.218 47.79C104.178 47.37 103.308 46.8 102.608 46.08C101.928 45.34 101.418 44.47 101.078 43.47C100.758 42.47 100.598 41.39 100.598 40.23ZM111.098 38.52C111.078 38.14 111.008 37.77 110.888 37.41C110.788 37.05 110.618 36.73 110.378 36.45C110.158 36.17 109.868 35.94 109.508 35.76C109.168 35.58 108.738 35.49 108.218 35.49C107.718 35.49 107.288 35.58 106.928 35.76C106.568 35.92 106.268 36.14 106.028 36.42C105.788 36.7 105.598 37.03 105.458 37.41C105.338 37.77 105.248 38.14 105.188 38.52H111.098ZM123.158 48C122.138 46 121.098 43.66 120.038 40.98C118.998 38.3 118.008 35.38 117.068 32.22H121.808C122.008 33 122.238 33.85 122.498 34.77C122.778 35.67 123.058 36.59 123.338 37.53C123.638 38.45 123.928 39.35 124.208 40.23C124.508 41.11 124.798 41.91 125.078 42.63C125.338 41.91 125.618 41.11 125.918 40.23C126.218 39.35 126.508 38.45 126.788 37.53C127.088 36.59 127.368 35.67 127.628 34.77C127.908 33.85 128.148 33 128.348 32.22H132.968C132.028 35.38 131.028 38.3 129.968 40.98C128.928 43.66 127.898 46 126.878 48H123.158ZM139.832 48H135.362V32.22H139.832V48ZM140.252 27.66C140.252 28.48 139.982 29.13 139.442 29.61C138.922 30.07 138.302 30.3 137.582 30.3C136.862 30.3 136.232 30.07 135.692 29.61C135.172 29.13 134.912 28.48 134.912 27.66C134.912 26.84 135.172 26.2 135.692 25.74C136.232 25.26 136.862 25.02 137.582 25.02C138.302 25.02 138.922 25.26 139.442 25.74C139.982 26.2 140.252 26.84 140.252 27.66ZM143.284 40.23C143.284 38.83 143.494 37.61 143.914 36.57C144.354 35.51 144.924 34.63 145.624 33.93C146.324 33.23 147.124 32.7 148.024 32.34C148.944 31.98 149.884 31.8 150.844 31.8C153.084 31.8 154.854 32.49 156.154 33.87C157.454 35.23 158.104 37.24 158.104 39.9C158.104 40.16 158.094 40.45 158.074 40.77C158.054 41.07 158.034 41.34 158.014 41.58H147.874C147.974 42.5 148.404 43.23 149.164 43.77C149.924 44.31 150.944 44.58 152.224 44.58C153.044 44.58 153.844 44.51 154.624 44.37C155.424 44.21 156.074 44.02 156.574 43.8L157.174 47.43C156.934 47.55 156.614 47.67 156.214 47.79C155.814 47.91 155.364 48.01 154.864 48.09C154.384 48.19 153.864 48.27 153.304 48.33C152.744 48.39 152.184 48.42 151.624 48.42C150.204 48.42 148.964 48.21 147.904 47.79C146.864 47.37 145.994 46.8 145.294 46.08C144.614 45.34 144.104 44.47 143.764 43.47C143.444 42.47 143.284 41.39 143.284 40.23ZM153.784 38.52C153.764 38.14 153.694 37.77 153.574 37.41C153.474 37.05 153.304 36.73 153.064 36.45C152.844 36.17 152.554 35.94 152.194 35.76C151.854 35.58 151.424 35.49 150.904 35.49C150.404 35.49 149.974 35.58 149.614 35.76C149.254 35.92 148.954 36.14 148.714 36.42C148.474 36.7 148.284 37.03 148.144 37.41C148.024 37.77 147.934 38.14 147.874 38.52H153.784ZM171.153 38.94C170.753 40.46 170.323 41.97 169.863 43.47C169.423 44.97 168.953 46.48 168.453 48H164.973C164.613 47.16 164.223 46.16 163.803 45C163.383 43.84 162.943 42.58 162.483 41.22C162.043 39.84 161.583 38.39 161.103 36.87C160.643 35.33 160.193 33.78 159.753 32.22H164.463C164.623 32.94 164.793 33.73 164.973 34.59C165.173 35.43 165.373 36.3 165.573 37.2C165.793 38.1 166.013 39.01 166.233 39.93C166.473 40.83 166.713 41.7 166.953 42.54C167.213 41.66 167.463 40.76 167.703 39.84C167.963 38.92 168.203 38.02 168.423 37.14C168.663 36.24 168.883 35.38 169.083 34.56C169.303 33.72 169.493 32.94 169.653 32.22H172.893C173.053 32.94 173.233 33.72 173.433 34.56C173.633 35.38 173.843 36.24 174.063 37.14C174.283 38.02 174.513 38.92 174.753 39.84C174.993 40.76 175.243 41.66 175.503 42.54C175.743 41.7 175.983 40.83 176.223 39.93C176.463 39.01 176.683 38.1 176.883 37.2C177.103 36.3 177.303 35.43 177.483 34.59C177.683 33.73 177.863 32.94 178.023 32.22H182.673C182.233 33.78 181.773 35.33 181.293 36.87C180.833 38.39 180.373 39.84 179.913 41.22C179.473 42.58 179.033 43.84 178.593 45C178.173 46.16 177.783 47.16 177.423 48H173.943C173.443 46.48 172.953 44.97 172.473 43.47C171.993 41.97 171.553 40.46 171.153 38.94ZM191.049 44.43C191.709 44.43 192.249 44.38 192.669 44.28C193.109 44.16 193.459 44.01 193.719 43.83C193.979 43.63 194.159 43.4 194.259 43.14C194.359 42.88 194.409 42.59 194.409 42.27C194.409 41.59 194.089 41.03 193.449 40.59C192.809 40.13 191.709 39.64 190.149 39.12C189.469 38.88 188.789 38.61 188.109 38.31C187.429 37.99 186.819 37.6 186.279 37.14C185.739 36.66 185.299 36.09 184.959 35.43C184.619 34.75 184.449 33.93 184.449 32.97C184.449 32.01 184.629 31.15 184.989 30.39C185.349 29.61 185.859 28.95 186.519 28.41C187.179 27.87 187.979 27.46 188.919 27.18C189.859 26.88 190.919 26.73 192.099 26.73C193.499 26.73 194.709 26.88 195.729 27.18C196.749 27.48 197.589 27.81 198.249 28.17L196.899 31.86C196.319 31.56 195.669 31.3 194.949 31.08C194.249 30.84 193.399 30.72 192.399 30.72C191.279 30.72 190.469 30.88 189.969 31.2C189.489 31.5 189.249 31.97 189.249 32.61C189.249 32.99 189.339 33.31 189.519 33.57C189.699 33.83 189.949 34.07 190.269 34.29C190.609 34.49 190.989 34.68 191.409 34.86C191.849 35.02 192.329 35.19 192.849 35.37C193.929 35.77 194.869 36.17 195.669 36.57C196.469 36.95 197.129 37.4 197.649 37.92C198.189 38.44 198.589 39.05 198.849 39.75C199.109 40.45 199.239 41.3 199.239 42.3C199.239 44.24 198.559 45.75 197.199 46.83C195.839 47.89 193.789 48.42 191.049 48.42C190.129 48.42 189.299 48.36 188.559 48.24C187.819 48.14 187.159 48.01 186.579 47.85C186.019 47.69 185.529 47.52 185.109 47.34C184.709 47.16 184.369 46.99 184.089 46.83L185.409 43.11C186.029 43.45 186.789 43.76 187.689 44.04C188.609 44.3 189.729 44.43 191.049 44.43ZM216.081 32.22C215.181 35.26 214.241 38.11 213.261 40.77C212.281 43.43 211.211 46.01 210.051 48.51C209.631 49.41 209.211 50.17 208.791 50.79C208.371 51.43 207.911 51.95 207.411 52.35C206.911 52.77 206.341 53.07 205.701 53.25C205.081 53.45 204.351 53.55 203.511 53.55C202.811 53.55 202.161 53.48 201.561 53.34C200.981 53.22 200.501 53.08 200.121 52.92L200.901 49.35C201.361 49.51 201.771 49.62 202.131 49.68C202.491 49.74 202.871 49.77 203.271 49.77C204.071 49.77 204.681 49.55 205.101 49.11C205.541 48.69 205.911 48.1 206.211 47.34C205.191 45.34 204.171 43.1 203.151 40.62C202.131 38.12 201.171 35.32 200.271 32.22H205.011C205.211 33 205.441 33.85 205.701 34.77C205.981 35.67 206.271 36.59 206.571 37.53C206.871 38.45 207.171 39.35 207.471 40.23C207.791 41.11 208.091 41.91 208.371 42.63C208.631 41.91 208.901 41.11 209.181 40.23C209.461 39.35 209.731 38.45 209.991 37.53C210.271 36.59 210.531 35.67 210.771 34.77C211.031 33.85 211.261 33 211.461 32.22H216.081ZM223.007 44.79C223.827 44.79 224.407 44.71 224.747 44.55C225.087 44.39 225.257 44.08 225.257 43.62C225.257 43.26 225.037 42.95 224.597 42.69C224.157 42.41 223.487 42.1 222.587 41.76C221.887 41.5 221.247 41.23 220.667 40.95C220.107 40.67 219.627 40.34 219.227 39.96C218.827 39.56 218.517 39.09 218.297 38.55C218.077 38.01 217.967 37.36 217.967 36.6C217.967 35.12 218.517 33.95 219.617 33.09C220.717 32.23 222.227 31.8 224.147 31.8C225.107 31.8 226.027 31.89 226.907 32.07C227.787 32.23 228.487 32.41 229.007 32.61L228.227 36.09C227.707 35.91 227.137 35.75 226.517 35.61C225.917 35.47 225.237 35.4 224.477 35.4C223.077 35.4 222.377 35.79 222.377 36.57C222.377 36.75 222.407 36.91 222.467 37.05C222.527 37.19 222.647 37.33 222.827 37.47C223.007 37.59 223.247 37.73 223.547 37.89C223.867 38.03 224.267 38.19 224.747 38.37C225.727 38.73 226.537 39.09 227.177 39.45C227.817 39.79 228.317 40.17 228.677 40.59C229.057 40.99 229.317 41.44 229.457 41.94C229.617 42.44 229.697 43.02 229.697 43.68C229.697 45.24 229.107 46.42 227.927 47.22C226.767 48.02 225.117 48.42 222.977 48.42C221.577 48.42 220.407 48.3 219.467 48.06C218.547 47.82 217.907 47.62 217.547 47.46L218.297 43.83C219.057 44.13 219.837 44.37 220.637 44.55C221.437 44.71 222.227 44.79 223.007 44.79ZM232.888 28.29L237.358 27.57V32.22H242.728V35.94H237.358V41.49C237.358 42.43 237.518 43.18 237.838 43.74C238.178 44.3 238.848 44.58 239.848 44.58C240.328 44.58 240.818 44.54 241.318 44.46C241.838 44.36 242.308 44.23 242.728 44.07L243.358 47.55C242.818 47.77 242.218 47.96 241.558 48.12C240.898 48.28 240.088 48.36 239.128 48.36C237.908 48.36 236.898 48.2 236.098 47.88C235.298 47.54 234.658 47.08 234.178 46.5C233.698 45.9 233.358 45.18 233.158 44.34C232.978 43.5 232.888 42.57 232.888 41.55V28.29ZM245.032 40.23C245.032 38.83 245.242 37.61 245.662 36.57C246.102 35.51 246.672 34.63 247.372 33.93C248.072 33.23 248.872 32.7 249.772 32.34C250.692 31.98 251.632 31.8 252.592 31.8C254.832 31.8 256.602 32.49 257.902 33.87C259.202 35.23 259.852 37.24 259.852 39.9C259.852 40.16 259.842 40.45 259.822 40.77C259.802 41.07 259.782 41.34 259.762 41.58H249.622C249.722 42.5 250.152 43.23 250.912 43.77C251.672 44.31 252.692 44.58 253.972 44.58C254.792 44.58 255.592 44.51 256.372 44.37C257.172 44.21 257.822 44.02 258.322 43.8L258.922 47.43C258.682 47.55 258.362 47.67 257.962 47.79C257.562 47.91 257.112 48.01 256.612 48.09C256.132 48.19 255.612 48.27 255.052 48.33C254.492 48.39 253.932 48.42 253.372 48.42C251.952 48.42 250.712 48.21 249.652 47.79C248.612 47.37 247.742 46.8 247.042 46.08C246.362 45.34 245.852 44.47 245.512 43.47C245.192 42.47 245.032 41.39 245.032 40.23ZM255.532 38.52C255.512 38.14 255.442 37.77 255.322 37.41C255.222 37.05 255.052 36.73 254.812 36.45C254.592 36.17 254.302 35.94 253.942 35.76C253.602 35.58 253.172 35.49 252.652 35.49C252.152 35.49 251.722 35.58 251.362 35.76C251.002 35.92 250.702 36.14 250.462 36.42C250.222 36.7 250.032 37.03 249.892 37.41C249.772 37.77 249.682 38.14 249.622 38.52H255.532ZM271.971 39.63C271.971 38.19 271.781 37.17 271.401 36.57C271.041 35.97 270.411 35.67 269.511 35.67C269.231 35.67 268.941 35.69 268.641 35.73C268.341 35.75 268.051 35.78 267.771 35.82V48H263.301V32.76C263.681 32.66 264.121 32.56 264.621 32.46C265.141 32.34 265.681 32.24 266.241 32.16C266.821 32.06 267.411 31.99 268.011 31.95C268.611 31.89 269.201 31.86 269.781 31.86C270.921 31.86 271.841 32.01 272.541 32.31C273.261 32.59 273.851 32.93 274.311 33.33C274.951 32.87 275.681 32.51 276.501 32.25C277.341 31.99 278.111 31.86 278.811 31.86C280.071 31.86 281.101 32.04 281.901 32.4C282.721 32.74 283.371 33.23 283.851 33.87C284.331 34.51 284.661 35.27 284.841 36.15C285.021 37.03 285.111 38.01 285.111 39.09V48H280.641V39.63C280.641 38.19 280.451 37.17 280.071 36.57C279.711 35.97 279.081 35.67 278.181 35.67C277.941 35.67 277.601 35.73 277.161 35.85C276.741 35.97 276.391 36.12 276.111 36.3C276.251 36.76 276.341 37.25 276.381 37.77C276.421 38.27 276.441 38.81 276.441 39.39V48H271.971V39.63Z" fill="#1CF9FD"/>
<path d="M1234.38 31.912H1235.93V43H1234.38V31.912ZM1238.58 34.92C1238.92 34.8347 1239.37 34.744 1239.94 34.648C1240.5 34.552 1241.15 34.504 1241.89 34.504C1242.55 34.504 1243.1 34.6 1243.54 34.792C1243.97 34.9733 1244.32 35.2347 1244.58 35.576C1244.84 35.9067 1245.03 36.3067 1245.14 36.776C1245.24 37.2453 1245.3 37.7627 1245.3 38.328V43H1243.81V38.648C1243.81 38.136 1243.77 37.6987 1243.7 37.336C1243.63 36.9733 1243.52 36.68 1243.36 36.456C1243.2 36.232 1242.99 36.072 1242.72 35.976C1242.45 35.8693 1242.12 35.816 1241.73 35.816C1241.57 35.816 1241.4 35.8213 1241.23 35.832C1241.06 35.8427 1240.9 35.8587 1240.74 35.88C1240.59 35.8907 1240.45 35.9067 1240.32 35.928C1240.2 35.9493 1240.12 35.9653 1240.06 35.976V43H1238.58V34.92ZM1249.7 41.928C1250.31 41.928 1250.76 41.848 1251.04 41.688C1251.34 41.528 1251.49 41.272 1251.49 40.92C1251.49 40.5573 1251.35 40.2693 1251.06 40.056C1250.77 39.8427 1250.3 39.6027 1249.64 39.336C1249.32 39.208 1249.01 39.08 1248.71 38.952C1248.42 38.8133 1248.17 38.6533 1247.96 38.472C1247.74 38.2907 1247.57 38.072 1247.44 37.816C1247.32 37.56 1247.25 37.2453 1247.25 36.872C1247.25 36.136 1247.52 35.5547 1248.07 35.128C1248.61 34.6907 1249.35 34.472 1250.29 34.472C1250.53 34.472 1250.76 34.488 1251 34.52C1251.23 34.5413 1251.45 34.5733 1251.65 34.616C1251.86 34.648 1252.03 34.6853 1252.18 34.728C1252.34 34.7707 1252.46 34.808 1252.55 34.84L1252.28 36.12C1252.12 36.0347 1251.87 35.9493 1251.52 35.864C1251.18 35.768 1250.77 35.72 1250.29 35.72C1249.88 35.72 1249.51 35.8053 1249.2 35.976C1248.9 36.136 1248.74 36.392 1248.74 36.744C1248.74 36.9253 1248.77 37.0853 1248.84 37.224C1248.91 37.3627 1249.02 37.4907 1249.16 37.608C1249.31 37.7147 1249.49 37.816 1249.7 37.912C1249.91 38.008 1250.17 38.1093 1250.47 38.216C1250.86 38.3653 1251.22 38.5147 1251.52 38.664C1251.83 38.8027 1252.1 38.968 1252.31 39.16C1252.53 39.352 1252.7 39.5867 1252.82 39.864C1252.94 40.1307 1253 40.4613 1253 40.856C1253 41.624 1252.71 42.2053 1252.13 42.6C1251.57 42.9947 1250.76 43.192 1249.7 43.192C1248.96 43.192 1248.39 43.128 1247.97 43C1247.56 42.8827 1247.27 42.792 1247.12 42.728L1247.4 41.448C1247.57 41.512 1247.84 41.608 1248.21 41.736C1248.59 41.864 1249.08 41.928 1249.7 41.928ZM1254.44 38.856C1254.44 38.12 1254.55 37.48 1254.76 36.936C1254.97 36.3813 1255.26 35.9227 1255.61 35.56C1255.96 35.1973 1256.37 34.9253 1256.83 34.744C1257.28 34.5627 1257.75 34.472 1258.23 34.472C1259.35 34.472 1260.21 34.824 1260.81 35.528C1261.41 36.2213 1261.7 37.2827 1261.7 38.712C1261.7 38.776 1261.7 38.8613 1261.7 38.968C1261.7 39.064 1261.7 39.1547 1261.69 39.24H1255.99C1256.06 40.104 1256.31 40.76 1256.75 41.208C1257.18 41.656 1257.87 41.88 1258.79 41.88C1259.32 41.88 1259.75 41.8373 1260.11 41.752C1260.47 41.656 1260.74 41.5653 1260.92 41.48L1261.13 42.728C1260.95 42.824 1260.63 42.9253 1260.17 43.032C1259.72 43.1387 1259.21 43.192 1258.63 43.192C1257.91 43.192 1257.28 43.0853 1256.75 42.872C1256.22 42.648 1255.79 42.344 1255.45 41.96C1255.11 41.576 1254.85 41.1227 1254.68 40.6C1254.52 40.0667 1254.44 39.4853 1254.44 38.856ZM1260.15 38.04C1260.16 37.368 1259.99 36.8187 1259.64 36.392C1259.3 35.9547 1258.83 35.736 1258.22 35.736C1257.88 35.736 1257.57 35.8053 1257.31 35.944C1257.05 36.072 1256.83 36.2427 1256.65 36.456C1256.47 36.6693 1256.32 36.9147 1256.22 37.192C1256.12 37.4693 1256.06 37.752 1256.03 38.04H1260.15ZM1266.91 34.504C1267.04 34.504 1267.19 34.5147 1267.35 34.536C1267.52 34.5467 1267.68 34.568 1267.84 34.6C1268 34.6213 1268.15 34.648 1268.27 34.68C1268.41 34.7013 1268.51 34.7227 1268.58 34.744L1268.32 36.04C1268.21 35.9973 1268.01 35.9493 1267.73 35.896C1267.46 35.832 1267.12 35.8 1266.69 35.8C1266.41 35.8 1266.14 35.832 1265.86 35.896C1265.59 35.9493 1265.42 35.9867 1265.33 36.008V43H1263.84V35.032C1264.19 34.904 1264.63 34.7867 1265.15 34.68C1265.68 34.5627 1266.26 34.504 1266.91 34.504ZM1271.5 43H1270.01V34.68H1271.5V43ZM1270.75 33.176C1270.48 33.176 1270.25 33.0907 1270.06 32.92C1269.88 32.7387 1269.79 32.4987 1269.79 32.2C1269.79 31.9013 1269.88 31.6667 1270.06 31.496C1270.25 31.3147 1270.48 31.224 1270.75 31.224C1271.02 31.224 1271.24 31.3147 1271.42 31.496C1271.61 31.6667 1271.71 31.9013 1271.71 32.2C1271.71 32.4987 1271.61 32.7387 1271.42 32.92C1271.24 33.0907 1271.02 33.176 1270.75 33.176ZM1277.13 34.504C1277.26 34.504 1277.41 34.5147 1277.57 34.536C1277.74 34.5467 1277.9 34.568 1278.06 34.6C1278.22 34.6213 1278.37 34.648 1278.49 34.68C1278.63 34.7013 1278.73 34.7227 1278.8 34.744L1278.54 36.04C1278.42 35.9973 1278.23 35.9493 1277.95 35.896C1277.68 35.832 1277.34 35.8 1276.91 35.8C1276.63 35.8 1276.35 35.832 1276.08 35.896C1275.81 35.9493 1275.63 35.9867 1275.55 36.008V43H1274.06V35.032C1274.41 34.904 1274.85 34.7867 1275.37 34.68C1275.9 34.5627 1276.48 34.504 1277.13 34.504ZM1289.46 38.36C1289.63 38.5733 1289.84 38.856 1290.1 39.208C1290.36 39.5493 1290.63 39.9333 1290.91 40.36C1291.19 40.776 1291.46 41.2133 1291.73 41.672C1292.01 42.1307 1292.24 42.5733 1292.43 43H1290.74C1290.52 42.5947 1290.29 42.184 1290.03 41.768C1289.79 41.352 1289.54 40.9573 1289.28 40.584C1289.02 40.2 1288.77 39.8427 1288.51 39.512C1288.27 39.1813 1288.04 38.8933 1287.84 38.648C1287.7 38.6587 1287.56 38.664 1287.41 38.664C1287.27 38.664 1287.13 38.664 1286.98 38.664H1285.58V43H1284.03V32.072C1284.47 31.9653 1284.95 31.896 1285.49 31.864C1286.03 31.8213 1286.53 31.8 1286.98 31.8C1288.53 31.8 1289.72 32.0933 1290.53 32.68C1291.35 33.2667 1291.76 34.1413 1291.76 35.304C1291.76 36.04 1291.56 36.6693 1291.17 37.192C1290.78 37.7147 1290.21 38.104 1289.46 38.36ZM1287.1 33.16C1286.44 33.16 1285.94 33.176 1285.58 33.208V37.384H1286.69C1287.22 37.384 1287.7 37.3573 1288.13 37.304C1288.55 37.2507 1288.91 37.1493 1289.2 37C1289.5 36.8507 1289.73 36.6427 1289.89 36.376C1290.05 36.0987 1290.13 35.736 1290.13 35.288C1290.13 34.872 1290.05 34.5253 1289.89 34.248C1289.73 33.9707 1289.51 33.752 1289.23 33.592C1288.97 33.432 1288.65 33.32 1288.27 33.256C1287.91 33.192 1287.52 33.16 1287.1 33.16ZM1293.53 38.856C1293.53 38.12 1293.64 37.48 1293.85 36.936C1294.07 36.3813 1294.35 35.9227 1294.7 35.56C1295.05 35.1973 1295.46 34.9253 1295.92 34.744C1296.38 34.5627 1296.85 34.472 1297.33 34.472C1298.45 34.472 1299.31 34.824 1299.9 35.528C1300.5 36.2213 1300.8 37.2827 1300.8 38.712C1300.8 38.776 1300.8 38.8613 1300.8 38.968C1300.8 39.064 1300.79 39.1547 1300.78 39.24H1295.09C1295.15 40.104 1295.4 40.76 1295.84 41.208C1296.28 41.656 1296.96 41.88 1297.89 41.88C1298.41 41.88 1298.85 41.8373 1299.2 41.752C1299.56 41.656 1299.83 41.5653 1300.01 41.48L1300.22 42.728C1300.04 42.824 1299.72 42.9253 1299.26 43.032C1298.81 43.1387 1298.3 43.192 1297.73 43.192C1297 43.192 1296.37 43.0853 1295.84 42.872C1295.32 42.648 1294.88 42.344 1294.54 41.96C1294.2 41.576 1293.95 41.1227 1293.77 40.6C1293.61 40.0667 1293.53 39.4853 1293.53 38.856ZM1299.25 38.04C1299.26 37.368 1299.09 36.8187 1298.73 36.392C1298.39 35.9547 1297.92 35.736 1297.31 35.736C1296.97 35.736 1296.67 35.8053 1296.4 35.944C1296.14 36.072 1295.92 36.2427 1295.74 36.456C1295.56 36.6693 1295.42 36.9147 1295.31 37.192C1295.21 37.4693 1295.15 37.752 1295.12 38.04H1299.25ZM1309.43 34.68C1309.02 36.2373 1308.53 37.7307 1307.96 39.16C1307.41 40.5893 1306.87 41.8693 1306.34 43H1305C1304.48 41.8693 1303.93 40.5893 1303.37 39.16C1302.81 37.7307 1302.33 36.2373 1301.91 34.68H1303.51C1303.64 35.2027 1303.79 35.7627 1303.96 36.36C1304.14 36.9467 1304.33 37.5333 1304.52 38.12C1304.72 38.696 1304.93 39.256 1305.13 39.8C1305.33 40.344 1305.52 40.8293 1305.7 41.256C1305.89 40.8293 1306.08 40.344 1306.28 39.8C1306.48 39.256 1306.68 38.696 1306.87 38.12C1307.07 37.5333 1307.26 36.9467 1307.43 36.36C1307.61 35.7627 1307.77 35.2027 1307.9 34.68H1309.43ZM1312.46 43H1310.97V34.68H1312.46V43ZM1311.7 33.176C1311.44 33.176 1311.21 33.0907 1311.02 32.92C1310.83 32.7387 1310.74 32.4987 1310.74 32.2C1310.74 31.9013 1310.83 31.6667 1311.02 31.496C1311.21 31.3147 1311.44 31.224 1311.7 31.224C1311.97 31.224 1312.19 31.3147 1312.38 31.496C1312.57 31.6667 1312.66 31.9013 1312.66 32.2C1312.66 32.4987 1312.57 32.7387 1312.38 32.92C1312.19 33.0907 1311.97 33.176 1311.7 33.176ZM1314.55 38.856C1314.55 38.12 1314.66 37.48 1314.87 36.936C1315.08 36.3813 1315.37 35.9227 1315.72 35.56C1316.07 35.1973 1316.48 34.9253 1316.93 34.744C1317.39 34.5627 1317.86 34.472 1318.34 34.472C1319.46 34.472 1320.32 34.824 1320.92 35.528C1321.52 36.2213 1321.81 37.2827 1321.81 38.712C1321.81 38.776 1321.81 38.8613 1321.81 38.968C1321.81 39.064 1321.81 39.1547 1321.8 39.24H1316.1C1316.17 40.104 1316.42 40.76 1316.85 41.208C1317.29 41.656 1317.97 41.88 1318.9 41.88C1319.43 41.88 1319.86 41.8373 1320.21 41.752C1320.58 41.656 1320.85 41.5653 1321.03 41.48L1321.24 42.728C1321.06 42.824 1320.74 42.9253 1320.28 43.032C1319.83 43.1387 1319.32 43.192 1318.74 43.192C1318.02 43.192 1317.39 43.0853 1316.85 42.872C1316.33 42.648 1315.9 42.344 1315.56 41.96C1315.22 41.576 1314.96 41.1227 1314.79 40.6C1314.63 40.0667 1314.55 39.4853 1314.55 38.856ZM1320.26 38.04C1320.27 37.368 1320.1 36.8187 1319.75 36.392C1319.41 35.9547 1318.93 35.736 1318.33 35.736C1317.99 35.736 1317.68 35.8053 1317.41 35.944C1317.16 36.072 1316.94 36.2427 1316.76 36.456C1316.58 36.6693 1316.43 36.9147 1316.33 37.192C1316.23 37.4693 1316.17 37.752 1316.13 38.04H1320.26ZM1330.75 43C1330.45 42.232 1330.13 41.3573 1329.79 40.376C1329.46 39.384 1329.16 38.3547 1328.88 37.288C1328.6 38.3547 1328.3 39.384 1327.97 40.376C1327.64 41.3573 1327.32 42.232 1327.02 43H1325.73C1325.24 41.9013 1324.76 40.648 1324.29 39.24C1323.82 37.832 1323.38 36.312 1322.96 34.68H1324.56C1324.67 35.1813 1324.79 35.7253 1324.94 36.312C1325.09 36.8987 1325.25 37.4853 1325.41 38.072C1325.58 38.6587 1325.75 39.224 1325.94 39.768C1326.12 40.312 1326.29 40.7867 1326.45 41.192C1326.63 40.6907 1326.81 40.1627 1326.98 39.608C1327.16 39.0427 1327.33 38.4773 1327.49 37.912C1327.65 37.336 1327.8 36.776 1327.94 36.232C1328.09 35.6773 1328.21 35.16 1328.32 34.68H1329.55C1329.65 35.16 1329.77 35.6773 1329.9 36.232C1330.04 36.776 1330.19 37.336 1330.35 37.912C1330.51 38.4773 1330.68 39.0427 1330.85 39.608C1331.03 40.1627 1331.21 40.6907 1331.39 41.192C1331.55 40.7867 1331.72 40.312 1331.89 39.768C1332.07 39.224 1332.25 38.6587 1332.42 38.072C1332.59 37.4853 1332.75 36.8987 1332.9 36.312C1333.05 35.7253 1333.17 35.1813 1333.28 34.68H1334.82C1334.4 36.312 1333.96 37.832 1333.49 39.24C1333.02 40.648 1332.54 41.9013 1332.05 43H1330.75Z" fill="white"/>
<rect y="1014" width="1440" height="10" fill="#E84691"/>
<rect x="571" y="561" width="298" height="46" rx="5" fill="#2E6CBA"/>
<path d="M644.88 328.42C641.5 328.42 638.92 327.48 637.14 325.6C635.38 323.72 634.5 321.05 634.5 317.59C634.5 315.87 634.77 314.34 635.31 313C635.85 311.64 636.59 310.5 637.53 309.58C638.47 308.64 639.59 307.93 640.89 307.45C642.19 306.97 643.6 306.73 645.12 306.73C646 306.73 646.8 306.8 647.52 306.94C648.24 307.06 648.87 307.21 649.41 307.39C649.95 307.55 650.4 307.72 650.76 307.9C651.12 308.08 651.38 308.22 651.54 308.32L650.19 312.1C649.55 311.76 648.8 311.47 647.94 311.23C647.1 310.99 646.14 310.87 645.06 310.87C644.34 310.87 643.63 310.99 642.93 311.23C642.25 311.47 641.64 311.86 641.1 312.4C640.58 312.92 640.16 313.6 639.84 314.44C639.52 315.28 639.36 316.3 639.36 317.5C639.36 318.46 639.46 319.36 639.66 320.2C639.88 321.02 640.22 321.73 640.68 322.33C641.16 322.93 641.78 323.41 642.54 323.77C643.3 324.11 644.22 324.28 645.3 324.28C645.98 324.28 646.59 324.24 647.13 324.16C647.67 324.08 648.15 323.99 648.57 323.89C648.99 323.77 649.36 323.64 649.68 323.5C650 323.36 650.29 323.23 650.55 323.11L651.84 326.86C651.18 327.26 650.25 327.62 649.05 327.94C647.85 328.26 646.46 328.42 644.88 328.42ZM660.876 324.88C661.316 324.88 661.736 324.87 662.136 324.85C662.536 324.83 662.856 324.8 663.096 324.76V321.37C662.916 321.33 662.646 321.29 662.286 321.25C661.926 321.21 661.596 321.19 661.296 321.19C660.876 321.19 660.476 321.22 660.096 321.28C659.736 321.32 659.416 321.41 659.136 321.55C658.856 321.69 658.636 321.88 658.476 322.12C658.316 322.36 658.236 322.66 658.236 323.02C658.236 323.72 658.466 324.21 658.926 324.49C659.406 324.75 660.056 324.88 660.876 324.88ZM660.516 311.8C661.836 311.8 662.936 311.95 663.816 312.25C664.696 312.55 665.396 312.98 665.916 313.54C666.456 314.1 666.836 314.78 667.056 315.58C667.276 316.38 667.386 317.27 667.386 318.25V327.55C666.746 327.69 665.856 327.85 664.716 328.03C663.576 328.23 662.196 328.33 660.576 328.33C659.556 328.33 658.626 328.24 657.786 328.06C656.966 327.88 656.256 327.59 655.656 327.19C655.056 326.77 654.596 326.23 654.276 325.57C653.956 324.91 653.796 324.1 653.796 323.14C653.796 322.22 653.976 321.44 654.336 320.8C654.716 320.16 655.216 319.65 655.836 319.27C656.456 318.89 657.166 318.62 657.966 318.46C658.766 318.28 659.596 318.19 660.456 318.19C661.036 318.19 661.546 318.22 661.986 318.28C662.446 318.32 662.816 318.38 663.096 318.46V318.04C663.096 317.28 662.866 316.67 662.406 316.21C661.946 315.75 661.146 315.52 660.006 315.52C659.246 315.52 658.496 315.58 657.756 315.7C657.016 315.8 656.376 315.95 655.836 316.15L655.266 312.55C655.526 312.47 655.846 312.39 656.226 312.31C656.626 312.21 657.056 312.13 657.516 312.07C657.976 311.99 658.456 311.93 658.956 311.89C659.476 311.83 659.996 311.8 660.516 311.8ZM675.238 319.99C675.238 321.37 675.548 322.48 676.168 323.32C676.788 324.16 677.708 324.58 678.928 324.58C679.328 324.58 679.698 324.57 680.038 324.55C680.378 324.51 680.658 324.47 680.878 324.43V316.3C680.598 316.12 680.228 315.97 679.768 315.85C679.328 315.73 678.878 315.67 678.418 315.67C676.298 315.67 675.238 317.11 675.238 319.99ZM685.348 327.49C684.948 327.61 684.488 327.73 683.968 327.85C683.448 327.95 682.898 328.04 682.318 328.12C681.758 328.2 681.178 328.26 680.578 328.3C679.998 328.36 679.438 328.39 678.898 328.39C677.598 328.39 676.438 328.2 675.418 327.82C674.398 327.44 673.538 326.9 672.838 326.2C672.138 325.48 671.598 324.62 671.218 323.62C670.858 322.6 670.678 321.46 670.678 320.2C670.678 318.92 670.838 317.77 671.158 316.75C671.478 315.71 671.938 314.83 672.538 314.11C673.138 313.39 673.868 312.84 674.728 312.46C675.608 312.08 676.608 311.89 677.728 311.89C678.348 311.89 678.898 311.95 679.378 312.07C679.878 312.19 680.378 312.36 680.878 312.58V305.44L685.348 304.72V327.49ZM695.564 324.88C696.004 324.88 696.424 324.87 696.824 324.85C697.224 324.83 697.544 324.8 697.784 324.76V321.37C697.604 321.33 697.334 321.29 696.974 321.25C696.614 321.21 696.284 321.19 695.984 321.19C695.564 321.19 695.164 321.22 694.784 321.28C694.424 321.32 694.104 321.41 693.824 321.55C693.544 321.69 693.324 321.88 693.164 322.12C693.004 322.36 692.924 322.66 692.924 323.02C692.924 323.72 693.154 324.21 693.614 324.49C694.094 324.75 694.744 324.88 695.564 324.88ZM695.204 311.8C696.524 311.8 697.624 311.95 698.504 312.25C699.384 312.55 700.084 312.98 700.604 313.54C701.144 314.1 701.524 314.78 701.744 315.58C701.964 316.38 702.074 317.27 702.074 318.25V327.55C701.434 327.69 700.544 327.85 699.404 328.03C698.264 328.23 696.884 328.33 695.264 328.33C694.244 328.33 693.314 328.24 692.474 328.06C691.654 327.88 690.944 327.59 690.344 327.19C689.744 326.77 689.284 326.23 688.964 325.57C688.644 324.91 688.484 324.1 688.484 323.14C688.484 322.22 688.664 321.44 689.024 320.8C689.404 320.16 689.904 319.65 690.524 319.27C691.144 318.89 691.854 318.62 692.654 318.46C693.454 318.28 694.284 318.19 695.144 318.19C695.724 318.19 696.234 318.22 696.674 318.28C697.134 318.32 697.504 318.38 697.784 318.46V318.04C697.784 317.28 697.554 316.67 697.094 316.21C696.634 315.75 695.834 315.52 694.694 315.52C693.934 315.52 693.184 315.58 692.444 315.7C691.704 315.8 691.064 315.95 690.524 316.15L689.954 312.55C690.214 312.47 690.534 312.39 690.914 312.31C691.314 312.21 691.744 312.13 692.204 312.07C692.664 311.99 693.144 311.93 693.644 311.89C694.164 311.83 694.684 311.8 695.204 311.8ZM710.646 324.79C711.466 324.79 712.046 324.71 712.386 324.55C712.726 324.39 712.896 324.08 712.896 323.62C712.896 323.26 712.676 322.95 712.236 322.69C711.796 322.41 711.126 322.1 710.226 321.76C709.526 321.5 708.886 321.23 708.306 320.95C707.746 320.67 707.266 320.34 706.866 319.96C706.466 319.56 706.156 319.09 705.936 318.55C705.716 318.01 705.606 317.36 705.606 316.6C705.606 315.12 706.156 313.95 707.256 313.09C708.356 312.23 709.866 311.8 711.786 311.8C712.746 311.8 713.666 311.89 714.546 312.07C715.426 312.23 716.126 312.41 716.646 312.61L715.866 316.09C715.346 315.91 714.776 315.75 714.156 315.61C713.556 315.47 712.876 315.4 712.116 315.4C710.716 315.4 710.016 315.79 710.016 316.57C710.016 316.75 710.046 316.91 710.106 317.05C710.166 317.19 710.286 317.33 710.466 317.47C710.646 317.59 710.886 317.73 711.186 317.89C711.506 318.03 711.906 318.19 712.386 318.37C713.366 318.73 714.176 319.09 714.816 319.45C715.456 319.79 715.956 320.17 716.316 320.59C716.696 320.99 716.956 321.44 717.096 321.94C717.256 322.44 717.336 323.02 717.336 323.68C717.336 325.24 716.746 326.42 715.566 327.22C714.406 328.02 712.756 328.42 710.616 328.42C709.216 328.42 708.046 328.3 707.106 328.06C706.186 327.82 705.546 327.62 705.186 327.46L705.936 323.83C706.696 324.13 707.476 324.37 708.276 324.55C709.076 324.71 709.866 324.79 710.646 324.79ZM720.526 308.29L724.996 307.57V312.22H730.366V315.94H724.996V321.49C724.996 322.43 725.156 323.18 725.476 323.74C725.816 324.3 726.486 324.58 727.486 324.58C727.966 324.58 728.456 324.54 728.956 324.46C729.476 324.36 729.946 324.23 730.366 324.07L730.996 327.55C730.456 327.77 729.856 327.96 729.196 328.12C728.536 328.28 727.726 328.36 726.766 328.36C725.546 328.36 724.536 328.2 723.736 327.88C722.936 327.54 722.296 327.08 721.816 326.5C721.336 325.9 720.996 325.18 720.796 324.34C720.616 323.5 720.526 322.57 720.526 321.55V308.29ZM743.516 316.18C743.116 316.08 742.646 315.98 742.106 315.88C741.566 315.76 740.986 315.7 740.366 315.7C740.086 315.7 739.746 315.73 739.346 315.79C738.966 315.83 738.676 315.88 738.476 315.94V328H734.006V313.06C734.806 312.78 735.746 312.52 736.826 312.28C737.926 312.02 739.146 311.89 740.486 311.89C740.726 311.89 741.016 311.91 741.356 311.95C741.696 311.97 742.036 312.01 742.376 312.07C742.716 312.11 743.056 312.17 743.396 312.25C743.736 312.31 744.026 312.39 744.266 312.49L743.516 316.18ZM745.62 320.23C745.62 318.83 745.83 317.61 746.25 316.57C746.69 315.51 747.26 314.63 747.96 313.93C748.66 313.23 749.46 312.7 750.36 312.34C751.28 311.98 752.22 311.8 753.18 311.8C755.42 311.8 757.19 312.49 758.49 313.87C759.79 315.23 760.44 317.24 760.44 319.9C760.44 320.16 760.43 320.45 760.41 320.77C760.39 321.07 760.37 321.34 760.35 321.58H750.21C750.31 322.5 750.74 323.23 751.5 323.77C752.26 324.31 753.28 324.58 754.56 324.58C755.38 324.58 756.18 324.51 756.96 324.37C757.76 324.21 758.41 324.02 758.91 323.8L759.51 327.43C759.27 327.55 758.95 327.67 758.55 327.79C758.15 327.91 757.7 328.01 757.2 328.09C756.72 328.19 756.2 328.27 755.64 328.33C755.08 328.39 754.52 328.42 753.96 328.42C752.54 328.42 751.3 328.21 750.24 327.79C749.2 327.37 748.33 326.8 747.63 326.08C746.95 325.34 746.44 324.47 746.1 323.47C745.78 322.47 745.62 321.39 745.62 320.23ZM756.12 318.52C756.1 318.14 756.03 317.77 755.91 317.41C755.81 317.05 755.64 316.73 755.4 316.45C755.18 316.17 754.89 315.94 754.53 315.76C754.19 315.58 753.76 315.49 753.24 315.49C752.74 315.49 752.31 315.58 751.95 315.76C751.59 315.92 751.29 316.14 751.05 316.42C750.81 316.7 750.62 317.03 750.48 317.41C750.36 317.77 750.27 318.14 750.21 318.52H756.12ZM762.539 317.02H771.239V321.07H762.539V317.02ZM778.614 324.79C779.434 324.79 780.014 324.71 780.354 324.55C780.694 324.39 780.864 324.08 780.864 323.62C780.864 323.26 780.644 322.95 780.204 322.69C779.764 322.41 779.094 322.1 778.194 321.76C777.494 321.5 776.854 321.23 776.274 320.95C775.714 320.67 775.234 320.34 774.834 319.96C774.434 319.56 774.124 319.09 773.904 318.55C773.684 318.01 773.574 317.36 773.574 316.6C773.574 315.12 774.124 313.95 775.224 313.09C776.324 312.23 777.834 311.8 779.754 311.8C780.714 311.8 781.634 311.89 782.514 312.07C783.394 312.23 784.094 312.41 784.614 312.61L783.834 316.09C783.314 315.91 782.744 315.75 782.124 315.61C781.524 315.47 780.844 315.4 780.084 315.4C778.684 315.4 777.984 315.79 777.984 316.57C777.984 316.75 778.014 316.91 778.074 317.05C778.134 317.19 778.254 317.33 778.434 317.47C778.614 317.59 778.854 317.73 779.154 317.89C779.474 318.03 779.874 318.19 780.354 318.37C781.334 318.73 782.144 319.09 782.784 319.45C783.424 319.79 783.924 320.17 784.284 320.59C784.664 320.99 784.924 321.44 785.064 321.94C785.224 322.44 785.304 323.02 785.304 323.68C785.304 325.24 784.714 326.42 783.534 327.22C782.374 328.02 780.724 328.42 778.584 328.42C777.184 328.42 776.014 328.3 775.074 328.06C774.154 327.82 773.514 327.62 773.154 327.46L773.904 323.83C774.664 324.13 775.444 324.37 776.244 324.55C777.044 324.71 777.834 324.79 778.614 324.79ZM787.895 320.23C787.895 318.83 788.105 317.61 788.525 316.57C788.965 315.51 789.535 314.63 790.235 313.93C790.935 313.23 791.735 312.7 792.635 312.34C793.555 311.98 794.495 311.8 795.455 311.8C797.695 311.8 799.465 312.49 800.765 313.87C802.065 315.23 802.715 317.24 802.715 319.9C802.715 320.16 802.705 320.45 802.685 320.77C802.665 321.07 802.645 321.34 802.625 321.58H792.485C792.585 322.5 793.015 323.23 793.775 323.77C794.535 324.31 795.555 324.58 796.835 324.58C797.655 324.58 798.455 324.51 799.235 324.37C800.035 324.21 800.685 324.02 801.185 323.8L801.785 327.43C801.545 327.55 801.225 327.67 800.825 327.79C800.425 327.91 799.975 328.01 799.475 328.09C798.995 328.19 798.475 328.27 797.915 328.33C797.355 328.39 796.795 328.42 796.235 328.42C794.815 328.42 793.575 328.21 792.515 327.79C791.475 327.37 790.605 326.8 789.905 326.08C789.225 325.34 788.715 324.47 788.375 323.47C788.055 322.47 787.895 321.39 787.895 320.23ZM798.395 318.52C798.375 318.14 798.305 317.77 798.185 317.41C798.085 317.05 797.915 316.73 797.675 316.45C797.455 316.17 797.165 315.94 796.805 315.76C796.465 315.58 796.035 315.49 795.515 315.49C795.015 315.49 794.585 315.58 794.225 315.76C793.865 315.92 793.565 316.14 793.325 316.42C793.085 316.7 792.895 317.03 792.755 317.41C792.635 317.77 792.545 318.14 792.485 318.52H798.395Z" fill="#3E3E3E"/>
<rect x="571" y="460" width="298" height="36" rx="5" fill="white"/>
<rect x="571.5" y="460.5" width="297" height="35" rx="4.5" stroke="#666666" stroke-opacity="0.15"/>
<rect x="571" y="506" width="298" height="36" rx="5" fill="white"/>
<rect x="571.5" y="506.5" width="297" height="35" rx="4.5" stroke="#666666" stroke-opacity="0.15"/>
<path d="M581.824 483.296C582.688 483.296 583.36 483.141 583.84 482.832C584.32 482.512 584.56 482 584.56 481.296C584.56 480.891 584.48 480.555 584.32 480.288C584.171 480.011 583.968 479.781 583.712 479.6C583.456 479.408 583.163 479.248 582.832 479.12C582.501 478.981 582.155 478.837 581.792 478.688C581.333 478.507 580.923 478.32 580.56 478.128C580.197 477.936 579.888 477.723 579.632 477.488C579.376 477.243 579.179 476.965 579.04 476.656C578.912 476.347 578.848 475.984 578.848 475.568C578.848 474.619 579.163 473.899 579.792 473.408C580.421 472.917 581.296 472.672 582.416 472.672C582.715 472.672 583.008 472.693 583.296 472.736C583.584 472.779 583.851 472.837 584.096 472.912C584.352 472.976 584.581 473.051 584.784 473.136C584.997 473.221 585.173 473.312 585.312 473.408L584.928 474.32C584.619 474.107 584.24 473.936 583.792 473.808C583.355 473.68 582.88 473.616 582.368 473.616C582.016 473.616 581.691 473.653 581.392 473.728C581.104 473.792 580.853 473.904 580.64 474.064C580.427 474.213 580.256 474.405 580.128 474.64C580.011 474.875 579.952 475.157 579.952 475.488C579.952 475.829 580.016 476.117 580.144 476.352C580.272 476.587 580.448 476.789 580.672 476.96C580.907 477.131 581.179 477.285 581.488 477.424C581.797 477.563 582.133 477.707 582.496 477.856C582.933 478.037 583.344 478.219 583.728 478.4C584.123 478.581 584.464 478.795 584.752 479.04C585.04 479.285 585.269 479.584 585.44 479.936C585.611 480.288 585.696 480.72 585.696 481.232C585.696 482.235 585.344 482.987 584.64 483.488C583.947 483.989 583.003 484.24 581.808 484.24C581.381 484.24 580.992 484.213 580.64 484.16C580.288 484.107 579.973 484.043 579.696 483.968C579.419 483.883 579.184 483.797 578.992 483.712C578.8 483.627 578.651 483.552 578.544 483.488L578.896 482.544C579.003 482.608 579.147 482.683 579.328 482.768C579.509 482.853 579.723 482.939 579.968 483.024C580.213 483.099 580.491 483.163 580.8 483.216C581.109 483.269 581.451 483.296 581.824 483.296ZM587.146 479.856C587.146 479.131 587.247 478.501 587.45 477.968C587.663 477.424 587.935 476.971 588.266 476.608C588.607 476.245 588.991 475.979 589.418 475.808C589.855 475.627 590.303 475.536 590.762 475.536C591.775 475.536 592.58 475.867 593.178 476.528C593.786 477.189 594.09 478.208 594.09 479.584C594.09 479.669 594.084 479.755 594.074 479.84C594.074 479.925 594.068 480.005 594.058 480.08H588.25C588.282 481.093 588.532 481.872 589.002 482.416C589.471 482.96 590.218 483.232 591.242 483.232C591.807 483.232 592.255 483.179 592.586 483.072C592.916 482.965 593.156 482.875 593.306 482.8L593.498 483.696C593.348 483.781 593.066 483.883 592.65 484C592.244 484.117 591.764 484.176 591.21 484.176C590.484 484.176 589.866 484.069 589.354 483.856C588.842 483.643 588.42 483.344 588.09 482.96C587.759 482.576 587.519 482.123 587.37 481.6C587.22 481.067 587.146 480.485 587.146 479.856ZM593.018 479.2C592.996 478.336 592.794 477.664 592.41 477.184C592.026 476.704 591.482 476.464 590.778 476.464C590.404 476.464 590.068 476.539 589.77 476.688C589.482 476.837 589.226 477.04 589.002 477.296C588.788 477.541 588.618 477.829 588.49 478.16C588.372 478.491 588.303 478.837 588.282 479.2H593.018ZM596.407 476.016C596.717 475.931 597.133 475.835 597.655 475.728C598.178 475.621 598.818 475.568 599.575 475.568C600.205 475.568 600.727 475.659 601.143 475.84C601.57 476.021 601.906 476.283 602.151 476.624C602.407 476.955 602.589 477.355 602.695 477.824C602.802 478.293 602.855 478.811 602.855 479.376V484H601.815V479.712C601.815 479.125 601.773 478.629 601.687 478.224C601.613 477.819 601.479 477.488 601.287 477.232C601.106 476.976 600.861 476.795 600.551 476.688C600.253 476.571 599.874 476.512 599.415 476.512C598.925 476.512 598.498 476.539 598.135 476.592C597.783 476.645 597.554 476.693 597.447 476.736V484H596.407V476.016ZM605.517 484V471.776L606.557 471.584V475.968C606.898 475.84 607.245 475.744 607.597 475.68C607.949 475.605 608.301 475.568 608.653 475.568C609.293 475.568 609.826 475.659 610.253 475.84C610.679 476.021 611.021 476.283 611.277 476.624C611.533 476.955 611.709 477.355 611.805 477.824C611.911 478.293 611.965 478.811 611.965 479.376V484H610.925V479.712C610.925 479.125 610.882 478.629 610.797 478.224C610.722 477.819 610.589 477.488 610.397 477.232C610.215 476.976 609.97 476.795 609.661 476.688C609.351 476.571 608.962 476.512 608.493 476.512C608.311 476.512 608.114 476.528 607.901 476.56C607.698 476.592 607.506 476.629 607.325 476.672C607.143 476.704 606.978 476.741 606.829 476.784C606.69 476.827 606.599 476.859 606.557 476.88V484H605.517ZM617.234 483.248C617.639 483.248 617.991 483.237 618.29 483.216C618.599 483.184 618.861 483.147 619.074 483.104V480.192C618.957 480.139 618.77 480.085 618.514 480.032C618.258 479.968 617.906 479.936 617.458 479.936C617.202 479.936 616.935 479.957 616.658 480C616.381 480.032 616.125 480.112 615.89 480.24C615.655 480.357 615.463 480.523 615.314 480.736C615.165 480.949 615.09 481.232 615.09 481.584C615.09 481.893 615.138 482.155 615.234 482.368C615.341 482.581 615.485 482.752 615.666 482.88C615.858 483.008 616.082 483.104 616.338 483.168C616.605 483.221 616.903 483.248 617.234 483.248ZM617.138 475.536C617.682 475.536 618.141 475.616 618.514 475.776C618.898 475.925 619.207 476.139 619.442 476.416C619.677 476.683 619.847 477.003 619.954 477.376C620.061 477.749 620.114 478.155 620.114 478.592V483.808C620.007 483.84 619.853 483.877 619.65 483.92C619.447 483.952 619.213 483.989 618.946 484.032C618.679 484.075 618.381 484.107 618.05 484.128C617.73 484.16 617.399 484.176 617.058 484.176C616.621 484.176 616.215 484.128 615.842 484.032C615.479 483.936 615.159 483.787 614.882 483.584C614.615 483.371 614.402 483.104 614.242 482.784C614.093 482.453 614.018 482.053 614.018 481.584C614.018 481.136 614.103 480.752 614.274 480.432C614.445 480.112 614.685 479.851 614.994 479.648C615.303 479.435 615.671 479.28 616.098 479.184C616.525 479.088 616.989 479.04 617.49 479.04C617.639 479.04 617.794 479.051 617.954 479.072C618.125 479.083 618.285 479.104 618.434 479.136C618.594 479.157 618.727 479.184 618.834 479.216C618.951 479.237 619.031 479.259 619.074 479.28V478.768C619.074 478.48 619.053 478.203 619.01 477.936C618.967 477.659 618.871 477.413 618.722 477.2C618.583 476.976 618.381 476.8 618.114 476.672C617.858 476.533 617.517 476.464 617.09 476.464C616.482 476.464 616.029 476.507 615.73 476.592C615.431 476.677 615.213 476.747 615.074 476.8L614.93 475.888C615.111 475.803 615.389 475.723 615.762 475.648C616.146 475.573 616.605 475.536 617.138 475.536Z" fill="black" fill-opacity="0.2"/>
<path d="M584.048 530.24C583.333 530.24 582.667 530.112 582.048 529.856C581.44 529.6 580.907 529.227 580.448 528.736C580 528.245 579.643 527.643 579.376 526.928C579.12 526.203 578.992 525.376 578.992 524.448C578.992 523.52 579.131 522.699 579.408 521.984C579.696 521.259 580.075 520.651 580.544 520.16C581.013 519.669 581.557 519.301 582.176 519.056C582.795 518.8 583.44 518.672 584.112 518.672C584.528 518.672 584.907 518.699 585.248 518.752C585.589 518.805 585.888 518.875 586.144 518.96C586.4 519.035 586.619 519.115 586.8 519.2C586.981 519.275 587.12 519.344 587.216 519.408L586.864 520.352C586.597 520.192 586.256 520.037 585.84 519.888C585.435 519.728 584.928 519.648 584.32 519.648C583.627 519.648 583.019 519.765 582.496 520C581.984 520.235 581.552 520.565 581.2 520.992C580.848 521.419 580.581 521.925 580.4 522.512C580.229 523.099 580.144 523.749 580.144 524.464C580.144 525.2 580.229 525.867 580.4 526.464C580.581 527.051 580.843 527.552 581.184 527.968C581.525 528.384 581.941 528.704 582.432 528.928C582.933 529.152 583.504 529.264 584.144 529.264C584.848 529.264 585.435 529.2 585.904 529.072C586.384 528.933 586.747 528.795 586.992 528.656L587.296 529.584C587.221 529.637 587.093 529.701 586.912 529.776C586.731 529.84 586.501 529.909 586.224 529.984C585.947 530.059 585.627 530.117 585.264 530.16C584.901 530.213 584.496 530.24 584.048 530.24ZM596.182 525.872C596.182 526.523 596.086 527.115 595.894 527.648C595.713 528.181 595.451 528.635 595.11 529.008C594.779 529.381 594.385 529.675 593.926 529.888C593.467 530.091 592.961 530.192 592.406 530.192C591.851 530.192 591.345 530.091 590.886 529.888C590.427 529.675 590.027 529.381 589.686 529.008C589.355 528.635 589.094 528.181 588.902 527.648C588.721 527.115 588.63 526.523 588.63 525.872C588.63 525.221 588.721 524.629 588.902 524.096C589.094 523.563 589.355 523.109 589.686 522.736C590.027 522.352 590.427 522.059 590.886 521.856C591.345 521.643 591.851 521.536 592.406 521.536C592.961 521.536 593.467 521.643 593.926 521.856C594.385 522.059 594.779 522.352 595.11 522.736C595.451 523.109 595.713 523.563 595.894 524.096C596.086 524.629 596.182 525.221 596.182 525.872ZM595.078 525.872C595.078 524.837 594.838 524.016 594.358 523.408C593.878 522.789 593.227 522.48 592.406 522.48C591.585 522.48 590.934 522.789 590.454 523.408C589.974 524.016 589.734 524.837 589.734 525.872C589.734 526.907 589.974 527.728 590.454 528.336C590.934 528.944 591.585 529.248 592.406 529.248C593.227 529.248 593.878 528.944 594.358 528.336C594.838 527.728 595.078 526.907 595.078 525.872ZM598.439 522.016C598.748 521.931 599.164 521.835 599.687 521.728C600.209 521.621 600.849 521.568 601.607 521.568C602.236 521.568 602.759 521.659 603.175 521.84C603.601 522.021 603.937 522.283 604.183 522.624C604.439 522.955 604.62 523.355 604.727 523.824C604.833 524.293 604.887 524.811 604.887 525.376V530H603.847V525.712C603.847 525.125 603.804 524.629 603.719 524.224C603.644 523.819 603.511 523.488 603.319 523.232C603.137 522.976 602.892 522.795 602.583 522.688C602.284 522.571 601.905 522.512 601.447 522.512C600.956 522.512 600.529 522.539 600.167 522.592C599.815 522.645 599.585 522.693 599.479 522.736V530H598.439V522.016ZM610.588 517.584C611.036 517.584 611.399 517.621 611.676 517.696C611.964 517.76 612.151 517.819 612.236 517.872L612.028 518.768C611.911 518.715 611.735 518.661 611.5 518.608C611.276 518.544 610.988 518.512 610.636 518.512C609.9 518.512 609.372 518.699 609.052 519.072C608.743 519.445 608.588 520.043 608.588 520.864V521.728H611.916V522.608H608.588V530H607.548V520.832C607.548 519.755 607.793 518.944 608.284 518.4C608.785 517.856 609.553 517.584 610.588 517.584ZM614.604 530H613.564V521.728H614.604V530ZM614.844 519.232C614.844 519.477 614.769 519.675 614.62 519.824C614.471 519.963 614.289 520.032 614.076 520.032C613.863 520.032 613.681 519.963 613.532 519.824C613.383 519.675 613.308 519.477 613.308 519.232C613.308 518.987 613.383 518.795 613.532 518.656C613.681 518.507 613.863 518.432 614.076 518.432C614.289 518.432 614.471 518.507 614.62 518.656C614.769 518.795 614.844 518.987 614.844 519.232ZM620.176 521.568C620.518 521.568 620.838 521.595 621.136 521.648C621.446 521.701 621.659 521.755 621.776 521.808L621.568 522.704C621.483 522.661 621.307 522.619 621.04 522.576C620.784 522.523 620.443 522.496 620.016 522.496C619.568 522.496 619.206 522.528 618.928 522.592C618.662 522.656 618.486 522.709 618.4 522.752V530H617.36V522.112C617.627 521.995 617.995 521.877 618.464 521.76C618.934 521.632 619.504 521.568 620.176 521.568ZM623.345 522.016C623.654 521.931 624.054 521.835 624.545 521.728C625.046 521.621 625.691 521.568 626.481 521.568C627.526 521.568 628.283 521.872 628.753 522.48C628.806 522.437 628.907 522.368 629.057 522.272C629.217 522.165 629.414 522.059 629.649 521.952C629.883 521.845 630.155 521.755 630.465 521.68C630.785 521.605 631.137 521.568 631.521 521.568C632.15 521.568 632.657 521.664 633.041 521.856C633.435 522.037 633.739 522.299 633.953 522.64C634.166 522.971 634.31 523.371 634.385 523.84C634.459 524.309 634.497 524.821 634.497 525.376V530H633.457V525.712C633.457 525.168 633.43 524.699 633.377 524.304C633.334 523.899 633.238 523.568 633.089 523.312C632.95 523.045 632.747 522.848 632.481 522.72C632.214 522.581 631.867 522.512 631.441 522.512C631.121 522.512 630.827 522.544 630.561 522.608C630.305 522.661 630.081 522.731 629.889 522.816C629.697 522.901 629.537 522.987 629.409 523.072C629.291 523.157 629.206 523.221 629.153 523.264C629.249 523.541 629.318 523.856 629.361 524.208C629.414 524.549 629.441 524.912 629.441 525.296V530H628.401V525.712C628.401 525.168 628.374 524.699 628.321 524.304C628.278 523.899 628.182 523.568 628.033 523.312C627.883 523.045 627.67 522.848 627.393 522.72C627.126 522.581 626.769 522.512 626.321 522.512C625.819 522.512 625.393 522.539 625.041 522.592C624.699 522.645 624.481 522.693 624.385 522.736V530H623.345V522.016ZM639.765 529.248C640.171 529.248 640.523 529.237 640.821 529.216C641.131 529.184 641.392 529.147 641.605 529.104V526.192C641.488 526.139 641.301 526.085 641.045 526.032C640.789 525.968 640.437 525.936 639.989 525.936C639.733 525.936 639.467 525.957 639.189 526C638.912 526.032 638.656 526.112 638.421 526.24C638.187 526.357 637.995 526.523 637.845 526.736C637.696 526.949 637.621 527.232 637.621 527.584C637.621 527.893 637.669 528.155 637.765 528.368C637.872 528.581 638.016 528.752 638.197 528.88C638.389 529.008 638.613 529.104 638.869 529.168C639.136 529.221 639.435 529.248 639.765 529.248ZM639.669 521.536C640.213 521.536 640.672 521.616 641.045 521.776C641.429 521.925 641.739 522.139 641.973 522.416C642.208 522.683 642.379 523.003 642.485 523.376C642.592 523.749 642.645 524.155 642.645 524.592V529.808C642.539 529.84 642.384 529.877 642.181 529.92C641.979 529.952 641.744 529.989 641.477 530.032C641.211 530.075 640.912 530.107 640.581 530.128C640.261 530.16 639.931 530.176 639.589 530.176C639.152 530.176 638.747 530.128 638.373 530.032C638.011 529.936 637.691 529.787 637.413 529.584C637.147 529.371 636.933 529.104 636.773 528.784C636.624 528.453 636.549 528.053 636.549 527.584C636.549 527.136 636.635 526.752 636.805 526.432C636.976 526.112 637.216 525.851 637.525 525.648C637.835 525.435 638.203 525.28 638.629 525.184C639.056 525.088 639.52 525.04 640.021 525.04C640.171 525.04 640.325 525.051 640.485 525.072C640.656 525.083 640.816 525.104 640.965 525.136C641.125 525.157 641.259 525.184 641.365 525.216C641.483 525.237 641.563 525.259 641.605 525.28V524.768C641.605 524.48 641.584 524.203 641.541 523.936C641.499 523.659 641.403 523.413 641.253 523.2C641.115 522.976 640.912 522.8 640.645 522.672C640.389 522.533 640.048 522.464 639.621 522.464C639.013 522.464 638.56 522.507 638.261 522.592C637.963 522.677 637.744 522.747 637.605 522.8L637.461 521.888C637.643 521.803 637.92 521.723 638.293 521.648C638.677 521.573 639.136 521.536 639.669 521.536ZM648.114 521.568C648.455 521.568 648.775 521.595 649.074 521.648C649.383 521.701 649.597 521.755 649.714 521.808L649.506 522.704C649.421 522.661 649.245 522.619 648.978 522.576C648.722 522.523 648.381 522.496 647.954 522.496C647.506 522.496 647.143 522.528 646.866 522.592C646.599 522.656 646.423 522.709 646.338 522.752V530H645.298V522.112C645.565 521.995 645.933 521.877 646.402 521.76C646.871 521.632 647.442 521.568 648.114 521.568ZM656.619 529.264C657.216 529.264 657.707 529.168 658.091 528.976C658.486 528.773 658.683 528.437 658.683 527.968C658.683 527.744 658.646 527.552 658.571 527.392C658.507 527.232 658.395 527.088 658.235 526.96C658.075 526.832 657.862 526.709 657.595 526.592C657.339 526.475 657.019 526.336 656.635 526.176C656.326 526.048 656.032 525.92 655.755 525.792C655.478 525.653 655.232 525.499 655.019 525.328C654.806 525.147 654.635 524.933 654.507 524.688C654.379 524.443 654.315 524.144 654.315 523.792C654.315 523.12 654.566 522.576 655.067 522.16C655.579 521.744 656.278 521.536 657.163 521.536C657.728 521.536 658.192 521.584 658.555 521.68C658.928 521.776 659.19 521.861 659.339 521.936L659.099 522.864C658.971 522.8 658.752 522.715 658.443 522.608C658.144 522.501 657.702 522.448 657.115 522.448C656.88 522.448 656.656 522.475 656.443 522.528C656.24 522.571 656.059 522.645 655.899 522.752C655.739 522.848 655.611 522.976 655.515 523.136C655.419 523.285 655.371 523.472 655.371 523.696C655.371 523.92 655.414 524.112 655.499 524.272C655.584 524.432 655.707 524.576 655.867 524.704C656.038 524.821 656.24 524.933 656.475 525.04C656.72 525.147 656.998 525.264 657.307 525.392C657.627 525.52 657.931 525.653 658.219 525.792C658.518 525.92 658.779 526.08 659.003 526.272C659.227 526.453 659.408 526.677 659.547 526.944C659.686 527.2 659.755 527.525 659.755 527.92C659.755 528.667 659.472 529.232 658.907 529.616C658.352 530 657.59 530.192 656.619 530.192C655.894 530.192 655.339 530.128 654.955 530C654.571 529.883 654.315 529.792 654.187 529.728L654.459 528.784C654.491 528.805 654.56 528.843 654.667 528.896C654.774 528.939 654.918 528.992 655.099 529.056C655.28 529.109 655.494 529.157 655.739 529.2C655.995 529.243 656.288 529.264 656.619 529.264ZM661.271 525.856C661.271 525.131 661.372 524.501 661.575 523.968C661.788 523.424 662.06 522.971 662.391 522.608C662.732 522.245 663.116 521.979 663.543 521.808C663.98 521.627 664.428 521.536 664.887 521.536C665.9 521.536 666.705 521.867 667.303 522.528C667.911 523.189 668.215 524.208 668.215 525.584C668.215 525.669 668.209 525.755 668.199 525.84C668.199 525.925 668.193 526.005 668.183 526.08H662.375C662.407 527.093 662.657 527.872 663.127 528.416C663.596 528.96 664.343 529.232 665.367 529.232C665.932 529.232 666.38 529.179 666.711 529.072C667.041 528.965 667.281 528.875 667.431 528.8L667.623 529.696C667.473 529.781 667.191 529.883 666.775 530C666.369 530.117 665.889 530.176 665.335 530.176C664.609 530.176 663.991 530.069 663.479 529.856C662.967 529.643 662.545 529.344 662.215 528.96C661.884 528.576 661.644 528.123 661.495 527.6C661.345 527.067 661.271 526.485 661.271 525.856ZM667.143 525.2C667.121 524.336 666.919 523.664 666.535 523.184C666.151 522.704 665.607 522.464 664.903 522.464C664.529 522.464 664.193 522.539 663.895 522.688C663.607 522.837 663.351 523.04 663.127 523.296C662.913 523.541 662.743 523.829 662.615 524.16C662.497 524.491 662.428 524.837 662.407 525.2H667.143ZM670.532 522.016C670.842 521.931 671.258 521.835 671.78 521.728C672.303 521.621 672.943 521.568 673.7 521.568C674.33 521.568 674.852 521.659 675.268 521.84C675.695 522.021 676.031 522.283 676.276 522.624C676.532 522.955 676.714 523.355 676.82 523.824C676.927 524.293 676.98 524.811 676.98 525.376V530H675.94V525.712C675.94 525.125 675.898 524.629 675.812 524.224C675.738 523.819 675.604 523.488 675.412 523.232C675.231 522.976 674.986 522.795 674.676 522.688C674.378 522.571 673.999 522.512 673.54 522.512C673.05 522.512 672.623 522.539 672.26 522.592C671.908 522.645 671.679 522.693 671.572 522.736V530H670.532V522.016ZM679.642 530V517.776L680.682 517.584V521.968C681.023 521.84 681.37 521.744 681.722 521.68C682.074 521.605 682.426 521.568 682.778 521.568C683.418 521.568 683.951 521.659 684.378 521.84C684.804 522.021 685.146 522.283 685.402 522.624C685.658 522.955 685.834 523.355 685.93 523.824C686.036 524.293 686.09 524.811 686.09 525.376V530H685.05V525.712C685.05 525.125 685.007 524.629 684.922 524.224C684.847 523.819 684.714 523.488 684.522 523.232C684.34 522.976 684.095 522.795 683.786 522.688C683.476 522.571 683.087 522.512 682.618 522.512C682.436 522.512 682.239 522.528 682.026 522.56C681.823 522.592 681.631 522.629 681.45 522.672C681.268 522.704 681.103 522.741 680.954 522.784C680.815 522.827 680.724 522.859 680.682 522.88V530H679.642ZM691.359 529.248C691.764 529.248 692.116 529.237 692.415 529.216C692.724 529.184 692.986 529.147 693.199 529.104V526.192C693.082 526.139 692.895 526.085 692.639 526.032C692.383 525.968 692.031 525.936 691.583 525.936C691.327 525.936 691.06 525.957 690.783 526C690.506 526.032 690.25 526.112 690.015 526.24C689.78 526.357 689.588 526.523 689.439 526.736C689.29 526.949 689.215 527.232 689.215 527.584C689.215 527.893 689.263 528.155 689.359 528.368C689.466 528.581 689.61 528.752 689.791 528.88C689.983 529.008 690.207 529.104 690.463 529.168C690.73 529.221 691.028 529.248 691.359 529.248ZM691.263 521.536C691.807 521.536 692.266 521.616 692.639 521.776C693.023 521.925 693.332 522.139 693.567 522.416C693.802 522.683 693.972 523.003 694.079 523.376C694.186 523.749 694.239 524.155 694.239 524.592V529.808C694.132 529.84 693.978 529.877 693.775 529.92C693.572 529.952 693.338 529.989 693.071 530.032C692.804 530.075 692.506 530.107 692.175 530.128C691.855 530.16 691.524 530.176 691.183 530.176C690.746 530.176 690.34 530.128 689.967 530.032C689.604 529.936 689.284 529.787 689.007 529.584C688.74 529.371 688.527 529.104 688.367 528.784C688.218 528.453 688.143 528.053 688.143 527.584C688.143 527.136 688.228 526.752 688.399 526.432C688.57 526.112 688.81 525.851 689.119 525.648C689.428 525.435 689.796 525.28 690.223 525.184C690.65 525.088 691.114 525.04 691.615 525.04C691.764 525.04 691.919 525.051 692.079 525.072C692.25 525.083 692.41 525.104 692.559 525.136C692.719 525.157 692.852 525.184 692.959 525.216C693.076 525.237 693.156 525.259 693.199 525.28V524.768C693.199 524.48 693.178 524.203 693.135 523.936C693.092 523.659 692.996 523.413 692.847 523.2C692.708 522.976 692.506 522.8 692.239 522.672C691.983 522.533 691.642 522.464 691.215 522.464C690.607 522.464 690.154 522.507 689.855 522.592C689.556 522.677 689.338 522.747 689.199 522.8L689.055 521.888C689.236 521.803 689.514 521.723 689.887 521.648C690.271 521.573 690.73 521.536 691.263 521.536Z" fill="black" fill-opacity="0.2"/>
<path d="M683.256 590.24C682.424 590.24 681.677 590.112 681.016 589.856C680.355 589.6 679.795 589.227 679.336 588.736C678.877 588.235 678.525 587.627 678.28 586.912C678.035 586.197 677.912 585.376 677.912 584.448C677.912 583.52 678.051 582.699 678.328 581.984C678.616 581.269 679.005 580.667 679.496 580.176C679.987 579.675 680.563 579.296 681.224 579.04C681.885 578.784 682.595 578.656 683.352 578.656C683.811 578.656 684.227 578.693 684.6 578.768C684.973 578.832 685.299 578.907 685.576 578.992C685.853 579.077 686.083 579.168 686.264 579.264C686.445 579.36 686.573 579.429 686.648 579.472L686.056 581.12C685.8 580.96 685.432 580.811 684.952 580.672C684.483 580.523 683.971 580.448 683.416 580.448C682.936 580.448 682.488 580.533 682.072 580.704C681.656 580.864 681.293 581.109 680.984 581.44C680.685 581.771 680.451 582.187 680.28 582.688C680.109 583.189 680.024 583.771 680.024 584.432C680.024 585.019 680.088 585.557 680.216 586.048C680.355 586.539 680.563 586.965 680.84 587.328C681.117 587.68 681.469 587.957 681.896 588.16C682.323 588.352 682.835 588.448 683.432 588.448C684.147 588.448 684.728 588.379 685.176 588.24C685.624 588.091 685.971 587.952 686.216 587.824L686.76 589.472C686.632 589.557 686.456 589.643 686.232 589.728C686.019 589.813 685.763 589.899 685.464 589.984C685.165 590.059 684.829 590.117 684.456 590.16C684.083 590.213 683.683 590.24 683.256 590.24ZM691.379 588.64C691.976 588.64 692.43 588.608 692.739 588.544V586.4C692.632 586.368 692.478 586.336 692.275 586.304C692.072 586.272 691.848 586.256 691.603 586.256C691.39 586.256 691.171 586.272 690.947 586.304C690.734 586.336 690.536 586.395 690.355 586.48C690.184 586.565 690.046 586.688 689.939 586.848C689.832 586.997 689.779 587.189 689.779 587.424C689.779 587.883 689.923 588.203 690.211 588.384C690.499 588.555 690.888 588.64 691.379 588.64ZM691.219 581.424C691.859 581.424 692.398 581.504 692.835 581.664C693.272 581.824 693.619 582.048 693.875 582.336C694.142 582.624 694.328 582.976 694.435 583.392C694.552 583.797 694.611 584.245 694.611 584.736V589.808C694.312 589.872 693.859 589.947 693.251 590.032C692.654 590.128 691.976 590.176 691.219 590.176C690.718 590.176 690.259 590.128 689.843 590.032C689.427 589.936 689.07 589.781 688.771 589.568C688.483 589.355 688.254 589.077 688.083 588.736C687.923 588.395 687.843 587.973 687.843 587.472C687.843 586.992 687.934 586.587 688.115 586.256C688.307 585.925 688.563 585.659 688.883 585.456C689.203 585.243 689.571 585.093 689.987 585.008C690.414 584.912 690.856 584.864 691.315 584.864C691.528 584.864 691.752 584.88 691.987 584.912C692.222 584.933 692.472 584.976 692.739 585.04V584.72C692.739 584.496 692.712 584.283 692.659 584.08C692.606 583.877 692.51 583.701 692.371 583.552C692.243 583.392 692.067 583.269 691.843 583.184C691.63 583.099 691.358 583.056 691.027 583.056C690.579 583.056 690.168 583.088 689.795 583.152C689.422 583.216 689.118 583.291 688.883 583.376L688.643 581.808C688.888 581.723 689.246 581.637 689.715 581.552C690.184 581.467 690.686 581.424 691.219 581.424ZM698.502 585.792C698.502 586.645 698.705 587.317 699.11 587.808C699.515 588.288 700.075 588.528 700.79 588.528C701.099 588.528 701.361 588.517 701.574 588.496C701.798 588.464 701.979 588.432 702.118 588.4V583.6C701.947 583.483 701.718 583.376 701.43 583.28C701.153 583.173 700.854 583.12 700.534 583.12C699.83 583.12 699.313 583.36 698.982 583.84C698.662 584.32 698.502 584.971 698.502 585.792ZM704.054 589.744C703.67 589.861 703.185 589.968 702.598 590.064C702.022 590.16 701.414 590.208 700.774 590.208C700.113 590.208 699.521 590.107 698.998 589.904C698.475 589.701 698.027 589.413 697.654 589.04C697.291 588.656 697.009 588.197 696.806 587.664C696.614 587.12 696.518 586.512 696.518 585.84C696.518 585.179 696.598 584.581 696.758 584.048C696.929 583.504 697.174 583.04 697.494 582.656C697.814 582.272 698.203 581.979 698.662 581.776C699.121 581.563 699.649 581.456 700.246 581.456C700.651 581.456 701.009 581.504 701.318 581.6C701.627 581.696 701.894 581.803 702.118 581.92V577.904L704.054 577.584V589.744ZM709.457 588.64C710.055 588.64 710.508 588.608 710.817 588.544V586.4C710.711 586.368 710.556 586.336 710.353 586.304C710.151 586.272 709.927 586.256 709.681 586.256C709.468 586.256 709.249 586.272 709.025 586.304C708.812 586.336 708.615 586.395 708.433 586.48C708.263 586.565 708.124 586.688 708.017 586.848C707.911 586.997 707.857 587.189 707.857 587.424C707.857 587.883 708.001 588.203 708.289 588.384C708.577 588.555 708.967 588.64 709.457 588.64ZM709.297 581.424C709.937 581.424 710.476 581.504 710.913 581.664C711.351 581.824 711.697 582.048 711.953 582.336C712.22 582.624 712.407 582.976 712.513 583.392C712.631 583.797 712.689 584.245 712.689 584.736V589.808C712.391 589.872 711.937 589.947 711.329 590.032C710.732 590.128 710.055 590.176 709.297 590.176C708.796 590.176 708.337 590.128 707.921 590.032C707.505 589.936 707.148 589.781 706.849 589.568C706.561 589.355 706.332 589.077 706.161 588.736C706.001 588.395 705.921 587.973 705.921 587.472C705.921 586.992 706.012 586.587 706.193 586.256C706.385 585.925 706.641 585.659 706.961 585.456C707.281 585.243 707.649 585.093 708.065 585.008C708.492 584.912 708.935 584.864 709.393 584.864C709.607 584.864 709.831 584.88 710.065 584.912C710.3 584.933 710.551 584.976 710.817 585.04V584.72C710.817 584.496 710.791 584.283 710.737 584.08C710.684 583.877 710.588 583.701 710.449 583.552C710.321 583.392 710.145 583.269 709.921 583.184C709.708 583.099 709.436 583.056 709.105 583.056C708.657 583.056 708.247 583.088 707.873 583.152C707.5 583.216 707.196 583.291 706.961 583.376L706.721 581.808C706.967 581.723 707.324 581.637 707.793 581.552C708.263 581.467 708.764 581.424 709.297 581.424ZM717.156 588.608C717.668 588.608 718.041 588.549 718.276 588.432C718.511 588.304 718.628 588.091 718.628 587.792C718.628 587.515 718.5 587.285 718.244 587.104C717.999 586.923 717.588 586.725 717.012 586.512C716.66 586.384 716.335 586.251 716.036 586.112C715.748 585.963 715.497 585.792 715.284 585.6C715.071 585.408 714.9 585.179 714.772 584.912C714.655 584.635 714.596 584.299 714.596 583.904C714.596 583.136 714.879 582.533 715.444 582.096C716.009 581.648 716.777 581.424 717.748 581.424C718.239 581.424 718.708 581.472 719.156 581.568C719.604 581.653 719.94 581.739 720.164 581.824L719.812 583.392C719.599 583.296 719.327 583.211 718.996 583.136C718.665 583.051 718.281 583.008 717.844 583.008C717.449 583.008 717.129 583.077 716.884 583.216C716.639 583.344 716.516 583.547 716.516 583.824C716.516 583.963 716.537 584.085 716.58 584.192C716.633 584.299 716.719 584.4 716.836 584.496C716.953 584.581 717.108 584.672 717.3 584.768C717.492 584.853 717.727 584.944 718.004 585.04C718.463 585.211 718.852 585.381 719.172 585.552C719.492 585.712 719.753 585.899 719.956 586.112C720.169 586.315 720.324 586.549 720.42 586.816C720.516 587.083 720.564 587.403 720.564 587.776C720.564 588.576 720.265 589.184 719.668 589.6C719.081 590.005 718.239 590.208 717.14 590.208C716.404 590.208 715.812 590.144 715.364 590.016C714.916 589.899 714.601 589.803 714.42 589.728L714.756 588.112C715.044 588.229 715.385 588.341 715.78 588.448C716.185 588.555 716.644 588.608 717.156 588.608ZM722.277 579.424L724.213 579.104V581.632H727.189V583.248H724.213V586.656C724.213 587.328 724.319 587.808 724.533 588.096C724.746 588.384 725.109 588.528 725.621 588.528C725.973 588.528 726.282 588.491 726.549 588.416C726.826 588.341 727.045 588.272 727.205 588.208L727.525 589.744C727.301 589.84 727.007 589.936 726.645 590.032C726.282 590.139 725.855 590.192 725.365 590.192C724.767 590.192 724.266 590.112 723.861 589.952C723.466 589.792 723.151 589.563 722.917 589.264C722.682 588.955 722.517 588.587 722.421 588.16C722.325 587.723 722.277 587.227 722.277 586.672V579.424ZM733.828 583.376C733.668 583.323 733.444 583.269 733.156 583.216C732.879 583.152 732.553 583.12 732.18 583.12C731.967 583.12 731.737 583.141 731.492 583.184C731.257 583.227 731.092 583.264 730.996 583.296V590H729.06V582.032C729.433 581.893 729.897 581.765 730.452 581.648C731.017 581.52 731.641 581.456 732.324 581.456C732.452 581.456 732.601 581.467 732.772 581.488C732.943 581.499 733.113 581.52 733.284 581.552C733.455 581.573 733.62 581.605 733.78 581.648C733.94 581.68 734.068 581.712 734.164 581.744L733.828 583.376ZM735.049 585.856C735.049 585.12 735.156 584.475 735.369 583.92C735.593 583.365 735.887 582.907 736.249 582.544C736.612 582.171 737.028 581.893 737.497 581.712C737.967 581.52 738.447 581.424 738.937 581.424C740.089 581.424 740.985 581.781 741.625 582.496C742.276 583.211 742.601 584.277 742.601 585.696C742.601 585.803 742.596 585.925 742.585 586.064C742.585 586.192 742.58 586.309 742.569 586.416H737.049C737.103 587.088 737.337 587.611 737.753 587.984C738.18 588.347 738.793 588.528 739.593 588.528C740.063 588.528 740.489 588.485 740.873 588.4C741.268 588.315 741.577 588.224 741.801 588.128L742.057 589.712C741.951 589.765 741.801 589.824 741.609 589.888C741.428 589.941 741.215 589.989 740.969 590.032C740.735 590.085 740.479 590.128 740.201 590.16C739.924 590.192 739.641 590.208 739.353 590.208C738.617 590.208 737.977 590.101 737.433 589.888C736.889 589.664 736.441 589.36 736.089 588.976C735.737 588.581 735.476 588.123 735.305 587.6C735.135 587.067 735.049 586.485 735.049 585.856ZM740.665 584.992C740.665 584.725 740.628 584.475 740.553 584.24C740.479 583.995 740.367 583.787 740.217 583.616C740.079 583.435 739.903 583.296 739.689 583.2C739.487 583.093 739.241 583.04 738.953 583.04C738.655 583.04 738.393 583.099 738.169 583.216C737.945 583.323 737.753 583.467 737.593 583.648C737.444 583.829 737.327 584.037 737.241 584.272C737.156 584.507 737.097 584.747 737.065 584.992H740.665ZM743.79 584.544H748.094V586.32H743.79V584.544ZM751.797 588.608C752.309 588.608 752.682 588.549 752.917 588.432C753.151 588.304 753.269 588.091 753.269 587.792C753.269 587.515 753.141 587.285 752.885 587.104C752.639 586.923 752.229 586.725 751.653 586.512C751.301 586.384 750.975 586.251 750.677 586.112C750.389 585.963 750.138 585.792 749.925 585.6C749.711 585.408 749.541 585.179 749.413 584.912C749.295 584.635 749.237 584.299 749.237 583.904C749.237 583.136 749.519 582.533 750.085 582.096C750.65 581.648 751.418 581.424 752.389 581.424C752.879 581.424 753.349 581.472 753.797 581.568C754.245 581.653 754.581 581.739 754.805 581.824L754.453 583.392C754.239 583.296 753.967 583.211 753.637 583.136C753.306 583.051 752.922 583.008 752.485 583.008C752.09 583.008 751.77 583.077 751.525 583.216C751.279 583.344 751.157 583.547 751.157 583.824C751.157 583.963 751.178 584.085 751.221 584.192C751.274 584.299 751.359 584.4 751.477 584.496C751.594 584.581 751.749 584.672 751.941 584.768C752.133 584.853 752.367 584.944 752.645 585.04C753.103 585.211 753.493 585.381 753.813 585.552C754.133 585.712 754.394 585.899 754.597 586.112C754.81 586.315 754.965 586.549 755.061 586.816C755.157 587.083 755.205 587.403 755.205 587.776C755.205 588.576 754.906 589.184 754.309 589.6C753.722 590.005 752.879 590.208 751.781 590.208C751.045 590.208 750.453 590.144 750.005 590.016C749.557 589.899 749.242 589.803 749.061 589.728L749.397 588.112C749.685 588.229 750.026 588.341 750.421 588.448C750.826 588.555 751.285 588.608 751.797 588.608ZM756.549 585.856C756.549 585.12 756.656 584.475 756.869 583.92C757.093 583.365 757.387 582.907 757.749 582.544C758.112 582.171 758.528 581.893 758.997 581.712C759.467 581.52 759.947 581.424 760.437 581.424C761.589 581.424 762.485 581.781 763.125 582.496C763.776 583.211 764.101 584.277 764.101 585.696C764.101 585.803 764.096 585.925 764.085 586.064C764.085 586.192 764.08 586.309 764.069 586.416H758.549C758.603 587.088 758.837 587.611 759.253 587.984C759.68 588.347 760.293 588.528 761.093 588.528C761.563 588.528 761.989 588.485 762.373 588.4C762.768 588.315 763.077 588.224 763.301 588.128L763.557 589.712C763.451 589.765 763.301 589.824 763.109 589.888C762.928 589.941 762.715 589.989 762.469 590.032C762.235 590.085 761.979 590.128 761.701 590.16C761.424 590.192 761.141 590.208 760.853 590.208C760.117 590.208 759.477 590.101 758.933 589.888C758.389 589.664 757.941 589.36 757.589 588.976C757.237 588.581 756.976 588.123 756.805 587.6C756.635 587.067 756.549 586.485 756.549 585.856ZM762.165 584.992C762.165 584.725 762.128 584.475 762.053 584.24C761.979 583.995 761.867 583.787 761.717 583.616C761.579 583.435 761.403 583.296 761.189 583.2C760.987 583.093 760.741 583.04 760.453 583.04C760.155 583.04 759.893 583.099 759.669 583.216C759.445 583.323 759.253 583.467 759.093 583.648C758.944 583.829 758.827 584.037 758.741 584.272C758.656 584.507 758.597 584.747 758.565 584.992H762.165Z" fill="white"/>
<rect x="570" y="415" width="298" height="36" rx="5" fill="white"/>
<rect x="570.5" y="415.5" width="297" height="35" rx="4.5" stroke="#666666" stroke-opacity="0.15"/>
<rect x="570" y="369" width="298" height="36" rx="5" fill="white"/>
<rect x="570.5" y="369.5" width="297" height="35" rx="4.5" stroke="#666666" stroke-opacity="0.15"/>
<path d="M584.44 439.24C583.704 439.24 583.075 439.128 582.552 438.904C582.04 438.68 581.624 438.371 581.304 437.976C580.984 437.581 580.749 437.123 580.6 436.6C580.461 436.067 580.392 435.496 580.392 434.888V427.912H581.48V434.744C581.48 435.352 581.549 435.88 581.688 436.328C581.837 436.765 582.04 437.128 582.296 437.416C582.552 437.704 582.861 437.917 583.224 438.056C583.587 438.195 583.992 438.264 584.44 438.264C584.888 438.264 585.293 438.195 585.656 438.056C586.019 437.917 586.328 437.704 586.584 437.416C586.84 437.128 587.037 436.765 587.176 436.328C587.325 435.88 587.4 435.352 587.4 434.744V427.912H588.488V434.888C588.488 435.496 588.413 436.067 588.264 436.6C588.125 437.123 587.896 437.581 587.576 437.976C587.256 438.371 586.835 438.68 586.312 438.904C585.8 439.128 585.176 439.24 584.44 439.24ZM592.947 438.264C593.544 438.264 594.035 438.168 594.419 437.976C594.814 437.773 595.011 437.437 595.011 436.968C595.011 436.744 594.974 436.552 594.899 436.392C594.835 436.232 594.723 436.088 594.563 435.96C594.403 435.832 594.19 435.709 593.923 435.592C593.667 435.475 593.347 435.336 592.963 435.176C592.654 435.048 592.36 434.92 592.083 434.792C591.806 434.653 591.56 434.499 591.347 434.328C591.134 434.147 590.963 433.933 590.835 433.688C590.707 433.443 590.643 433.144 590.643 432.792C590.643 432.12 590.894 431.576 591.395 431.16C591.907 430.744 592.606 430.536 593.491 430.536C594.056 430.536 594.52 430.584 594.883 430.68C595.256 430.776 595.518 430.861 595.667 430.936L595.427 431.864C595.299 431.8 595.08 431.715 594.771 431.608C594.472 431.501 594.03 431.448 593.443 431.448C593.208 431.448 592.984 431.475 592.771 431.528C592.568 431.571 592.387 431.645 592.227 431.752C592.067 431.848 591.939 431.976 591.843 432.136C591.747 432.285 591.699 432.472 591.699 432.696C591.699 432.92 591.742 433.112 591.827 433.272C591.912 433.432 592.035 433.576 592.195 433.704C592.366 433.821 592.568 433.933 592.803 434.04C593.048 434.147 593.326 434.264 593.635 434.392C593.955 434.52 594.259 434.653 594.547 434.792C594.846 434.92 595.107 435.08 595.331 435.272C595.555 435.453 595.736 435.677 595.875 435.944C596.014 436.2 596.083 436.525 596.083 436.92C596.083 437.667 595.8 438.232 595.235 438.616C594.68 439 593.918 439.192 592.947 439.192C592.222 439.192 591.667 439.128 591.283 439C590.899 438.883 590.643 438.792 590.515 438.728L590.787 437.784C590.819 437.805 590.888 437.843 590.995 437.896C591.102 437.939 591.246 437.992 591.427 438.056C591.608 438.109 591.822 438.157 592.067 438.2C592.323 438.243 592.616 438.264 592.947 438.264ZM604.447 438.712C604.137 438.797 603.721 438.893 603.199 439C602.676 439.107 602.036 439.16 601.279 439.16C600.66 439.16 600.143 439.069 599.727 438.888C599.311 438.707 598.975 438.451 598.719 438.12C598.463 437.789 598.276 437.389 598.159 436.92C598.052 436.451 597.999 435.933 597.999 435.368V430.728H599.039V435.032C599.039 435.619 599.081 436.115 599.167 436.52C599.252 436.925 599.391 437.256 599.583 437.512C599.775 437.757 600.02 437.939 600.319 438.056C600.628 438.163 601.001 438.216 601.439 438.216C601.929 438.216 602.356 438.189 602.719 438.136C603.081 438.083 603.311 438.035 603.407 437.992V430.728H604.447V438.712ZM609.812 438.248C610.217 438.248 610.569 438.237 610.868 438.216C611.177 438.184 611.439 438.147 611.652 438.104V435.192C611.535 435.139 611.348 435.085 611.092 435.032C610.836 434.968 610.484 434.936 610.036 434.936C609.78 434.936 609.513 434.957 609.236 435C608.959 435.032 608.703 435.112 608.468 435.24C608.233 435.357 608.041 435.523 607.892 435.736C607.743 435.949 607.668 436.232 607.668 436.584C607.668 436.893 607.716 437.155 607.812 437.368C607.919 437.581 608.063 437.752 608.244 437.88C608.436 438.008 608.66 438.104 608.916 438.168C609.183 438.221 609.481 438.248 609.812 438.248ZM609.716 430.536C610.26 430.536 610.719 430.616 611.092 430.776C611.476 430.925 611.785 431.139 612.02 431.416C612.255 431.683 612.425 432.003 612.532 432.376C612.639 432.749 612.692 433.155 612.692 433.592V438.808C612.585 438.84 612.431 438.877 612.228 438.92C612.025 438.952 611.791 438.989 611.524 439.032C611.257 439.075 610.959 439.107 610.628 439.128C610.308 439.16 609.977 439.176 609.636 439.176C609.199 439.176 608.793 439.128 608.42 439.032C608.057 438.936 607.737 438.787 607.46 438.584C607.193 438.371 606.98 438.104 606.82 437.784C606.671 437.453 606.596 437.053 606.596 436.584C606.596 436.136 606.681 435.752 606.852 435.432C607.023 435.112 607.263 434.851 607.572 434.648C607.881 434.435 608.249 434.28 608.676 434.184C609.103 434.088 609.567 434.04 610.068 434.04C610.217 434.04 610.372 434.051 610.532 434.072C610.703 434.083 610.863 434.104 611.012 434.136C611.172 434.157 611.305 434.184 611.412 434.216C611.529 434.237 611.609 434.259 611.652 434.28V433.768C611.652 433.48 611.631 433.203 611.588 432.936C611.545 432.659 611.449 432.413 611.3 432.2C611.161 431.976 610.959 431.8 610.692 431.672C610.436 431.533 610.095 431.464 609.668 431.464C609.06 431.464 608.607 431.507 608.308 431.592C608.009 431.677 607.791 431.747 607.652 431.8L607.508 430.888C607.689 430.803 607.967 430.723 608.34 430.648C608.724 430.573 609.183 430.536 609.716 430.536ZM612.196 427.448L609.46 429.672L608.932 429.064L611.46 426.632L612.196 427.448ZM618.161 430.568C618.502 430.568 618.822 430.595 619.121 430.648C619.43 430.701 619.643 430.755 619.761 430.808L619.553 431.704C619.467 431.661 619.291 431.619 619.025 431.576C618.769 431.523 618.427 431.496 618.001 431.496C617.553 431.496 617.19 431.528 616.913 431.592C616.646 431.656 616.47 431.709 616.385 431.752V439H615.345V431.112C615.611 430.995 615.979 430.877 616.449 430.76C616.918 430.632 617.489 430.568 618.161 430.568ZM622.369 439H621.329V430.728H622.369V439ZM622.609 428.232C622.609 428.477 622.534 428.675 622.385 428.824C622.236 428.963 622.054 429.032 621.841 429.032C621.628 429.032 621.446 428.963 621.297 428.824C621.148 428.675 621.073 428.477 621.073 428.232C621.073 427.987 621.148 427.795 621.297 427.656C621.446 427.507 621.628 427.432 621.841 427.432C622.054 427.432 622.236 427.507 622.385 427.656C622.534 427.795 622.609 427.987 622.609 428.232ZM632.182 434.872C632.182 435.523 632.086 436.115 631.894 436.648C631.713 437.181 631.451 437.635 631.11 438.008C630.779 438.381 630.385 438.675 629.926 438.888C629.467 439.091 628.961 439.192 628.406 439.192C627.851 439.192 627.345 439.091 626.886 438.888C626.427 438.675 626.027 438.381 625.686 438.008C625.355 437.635 625.094 437.181 624.902 436.648C624.721 436.115 624.63 435.523 624.63 434.872C624.63 434.221 624.721 433.629 624.902 433.096C625.094 432.563 625.355 432.109 625.686 431.736C626.027 431.352 626.427 431.059 626.886 430.856C627.345 430.643 627.851 430.536 628.406 430.536C628.961 430.536 629.467 430.643 629.926 430.856C630.385 431.059 630.779 431.352 631.11 431.736C631.451 432.109 631.713 432.563 631.894 433.096C632.086 433.629 632.182 434.221 632.182 434.872ZM631.078 434.872C631.078 433.837 630.838 433.016 630.358 432.408C629.878 431.789 629.227 431.48 628.406 431.48C627.585 431.48 626.934 431.789 626.454 432.408C625.974 433.016 625.734 433.837 625.734 434.872C625.734 435.907 625.974 436.728 626.454 437.336C626.934 437.944 627.585 438.248 628.406 438.248C629.227 438.248 629.878 437.944 630.358 437.336C630.838 436.728 631.078 435.907 631.078 434.872Z" fill="black" fill-opacity="0.2"/>
<path d="M587.992 393C587.789 392.627 587.528 392.189 587.208 391.688C586.899 391.187 586.557 390.653 586.184 390.088C585.811 389.512 585.416 388.925 585 388.328C584.584 387.72 584.168 387.133 583.752 386.568C583.347 385.992 582.947 385.453 582.552 384.952C582.168 384.451 581.821 384.019 581.512 383.656V393H580.44V381.912H581.304C581.848 382.52 582.429 383.224 583.048 384.024C583.677 384.813 584.291 385.624 584.888 386.456C585.485 387.277 586.04 388.083 586.552 388.872C587.075 389.661 587.501 390.349 587.832 390.936V381.912H588.904V393H587.992ZM598.776 388.872C598.776 389.523 598.68 390.115 598.488 390.648C598.306 391.181 598.045 391.635 597.704 392.008C597.373 392.381 596.978 392.675 596.52 392.888C596.061 393.091 595.554 393.192 595 393.192C594.445 393.192 593.938 393.091 593.48 392.888C593.021 392.675 592.621 392.381 592.28 392.008C591.949 391.635 591.688 391.181 591.496 390.648C591.314 390.115 591.224 389.523 591.224 388.872C591.224 388.221 591.314 387.629 591.496 387.096C591.688 386.563 591.949 386.109 592.28 385.736C592.621 385.352 593.021 385.059 593.48 384.856C593.938 384.643 594.445 384.536 595 384.536C595.554 384.536 596.061 384.643 596.52 384.856C596.978 385.059 597.373 385.352 597.704 385.736C598.045 386.109 598.306 386.563 598.488 387.096C598.68 387.629 598.776 388.221 598.776 388.872ZM597.672 388.872C597.672 387.837 597.432 387.016 596.952 386.408C596.472 385.789 595.821 385.48 595 385.48C594.178 385.48 593.528 385.789 593.048 386.408C592.568 387.016 592.328 387.837 592.328 388.872C592.328 389.907 592.568 390.728 593.048 391.336C593.528 391.944 594.178 392.248 595 392.248C595.821 392.248 596.472 391.944 596.952 391.336C597.432 390.728 597.672 389.907 597.672 388.872ZM601.032 385.016C601.342 384.931 601.742 384.835 602.232 384.728C602.734 384.621 603.379 384.568 604.168 384.568C605.214 384.568 605.971 384.872 606.44 385.48C606.494 385.437 606.595 385.368 606.744 385.272C606.904 385.165 607.102 385.059 607.336 384.952C607.571 384.845 607.843 384.755 608.152 384.68C608.472 384.605 608.824 384.568 609.208 384.568C609.838 384.568 610.344 384.664 610.728 384.856C611.123 385.037 611.427 385.299 611.64 385.64C611.854 385.971 611.998 386.371 612.072 386.84C612.147 387.309 612.184 387.821 612.184 388.376V393H611.144V388.712C611.144 388.168 611.118 387.699 611.064 387.304C611.022 386.899 610.926 386.568 610.776 386.312C610.638 386.045 610.435 385.848 610.168 385.72C609.902 385.581 609.555 385.512 609.128 385.512C608.808 385.512 608.515 385.544 608.248 385.608C607.992 385.661 607.768 385.731 607.576 385.816C607.384 385.901 607.224 385.987 607.096 386.072C606.979 386.157 606.894 386.221 606.84 386.264C606.936 386.541 607.006 386.856 607.048 387.208C607.102 387.549 607.128 387.912 607.128 388.296V393H606.088V388.712C606.088 388.168 606.062 387.699 606.008 387.304C605.966 386.899 605.87 386.568 605.72 386.312C605.571 386.045 605.358 385.848 605.08 385.72C604.814 385.581 604.456 385.512 604.008 385.512C603.507 385.512 603.08 385.539 602.728 385.592C602.387 385.645 602.168 385.693 602.072 385.736V393H601.032V385.016ZM614.349 388.856C614.349 388.131 614.45 387.501 614.653 386.968C614.866 386.424 615.138 385.971 615.469 385.608C615.81 385.245 616.194 384.979 616.621 384.808C617.058 384.627 617.506 384.536 617.965 384.536C618.978 384.536 619.783 384.867 620.381 385.528C620.989 386.189 621.293 387.208 621.293 388.584C621.293 388.669 621.287 388.755 621.277 388.84C621.277 388.925 621.271 389.005 621.261 389.08H615.453C615.485 390.093 615.735 390.872 616.205 391.416C616.674 391.96 617.421 392.232 618.445 392.232C619.01 392.232 619.458 392.179 619.789 392.072C620.119 391.965 620.359 391.875 620.509 391.8L620.701 392.696C620.551 392.781 620.269 392.883 619.853 393C619.447 393.117 618.967 393.176 618.413 393.176C617.687 393.176 617.069 393.069 616.557 392.856C616.045 392.643 615.623 392.344 615.293 391.96C614.962 391.576 614.722 391.123 614.573 390.6C614.423 390.067 614.349 389.485 614.349 388.856ZM620.221 388.2C620.199 387.336 619.997 386.664 619.613 386.184C619.229 385.704 618.685 385.464 617.981 385.464C617.607 385.464 617.271 385.539 616.973 385.688C616.685 385.837 616.429 386.04 616.205 386.296C615.991 386.541 615.821 386.829 615.693 387.16C615.575 387.491 615.506 387.837 615.485 388.2H620.221Z" fill="black" fill-opacity="0.2"/>
</svg>
