<svg width="1440" height="1024" viewBox="0 0 1440 1024" fill="none" xmlns="http://www.w3.org/2000/svg">
<rect width="1440" height="1024" fill="#F4F4F4"/>
<rect width="1440" height="74" fill="#003E8A"/>
<rect y="950" width="1440" height="74" fill="#003E8A"/>
<path d="M636.72 31.14H638.66V45H636.72V31.14ZM641.971 34.9C642.398 34.7933 642.964 34.68 643.671 34.56C644.378 34.44 645.191 34.38 646.111 34.38C646.938 34.38 647.624 34.5 648.171 34.74C648.718 34.9667 649.151 35.2933 649.471 35.72C649.804 36.1333 650.038 36.6333 650.171 37.22C650.304 37.8067 650.371 38.4533 650.371 39.16V45H648.511V39.56C648.511 38.92 648.464 38.3733 648.371 37.92C648.291 37.4667 648.151 37.1 647.951 36.82C647.751 36.54 647.484 36.34 647.151 36.22C646.818 36.0867 646.404 36.02 645.911 36.02C645.711 36.02 645.504 36.0267 645.291 36.04C645.078 36.0533 644.871 36.0733 644.671 36.1C644.484 36.1133 644.311 36.1333 644.151 36.16C644.004 36.1867 643.898 36.2067 643.831 36.22V45H641.971V34.9ZM655.315 45H653.455V34.6H655.315V45ZM656.815 30.66L653.995 33.4L653.055 32.56L655.615 29.48L656.815 30.66ZM663.034 45.24C662.194 45.24 661.454 45.1067 660.814 44.84C660.187 44.5733 659.654 44.2 659.214 43.72C658.787 43.24 658.467 42.6733 658.254 42.02C658.041 41.3533 657.934 40.62 657.934 39.82C657.934 39.02 658.047 38.2867 658.274 37.62C658.514 36.9533 658.847 36.38 659.274 35.9C659.701 35.4067 660.221 35.0267 660.834 34.76C661.461 34.48 662.154 34.34 662.914 34.34C663.381 34.34 663.847 34.38 664.314 34.46C664.781 34.54 665.227 34.6667 665.654 34.84L665.234 36.42C664.954 36.2867 664.627 36.18 664.254 36.1C663.894 36.02 663.507 35.98 663.094 35.98C662.054 35.98 661.254 36.3067 660.694 36.96C660.147 37.6133 659.874 38.5667 659.874 39.82C659.874 40.38 659.934 40.8933 660.054 41.36C660.187 41.8267 660.387 42.2267 660.654 42.56C660.934 42.8933 661.287 43.1533 661.714 43.34C662.141 43.5133 662.661 43.6 663.274 43.6C663.767 43.6 664.214 43.5533 664.614 43.46C665.014 43.3667 665.327 43.2667 665.554 43.16L665.814 44.72C665.707 44.7867 665.554 44.8533 665.354 44.92C665.154 44.9733 664.927 45.02 664.674 45.06C664.421 45.1133 664.147 45.1533 663.854 45.18C663.574 45.22 663.301 45.24 663.034 45.24ZM669.671 45H667.811V34.6H669.671V45ZM668.731 32.72C668.398 32.72 668.111 32.6133 667.871 32.4C667.644 32.1733 667.531 31.8733 667.531 31.5C667.531 31.1267 667.644 30.8333 667.871 30.62C668.111 30.3933 668.398 30.28 668.731 30.28C669.064 30.28 669.344 30.3933 669.571 30.62C669.811 30.8333 669.931 31.1267 669.931 31.5C669.931 31.8733 669.811 32.1733 669.571 32.4C669.344 32.6133 669.064 32.72 668.731 32.72ZM682.05 39.8C682.05 40.6267 681.93 41.3733 681.69 42.04C681.45 42.7067 681.11 43.28 680.67 43.76C680.243 44.24 679.73 44.6133 679.13 44.88C678.53 45.1333 677.876 45.26 677.17 45.26C676.463 45.26 675.81 45.1333 675.21 44.88C674.61 44.6133 674.09 44.24 673.65 43.76C673.223 43.28 672.89 42.7067 672.65 42.04C672.41 41.3733 672.29 40.6267 672.29 39.8C672.29 38.9867 672.41 38.2467 672.65 37.58C672.89 36.9 673.223 36.32 673.65 35.84C674.09 35.36 674.61 34.9933 675.21 34.74C675.81 34.4733 676.463 34.34 677.17 34.34C677.876 34.34 678.53 34.4733 679.13 34.74C679.73 34.9933 680.243 35.36 680.67 35.84C681.11 36.32 681.45 36.9 681.69 37.58C681.93 38.2467 682.05 38.9867 682.05 39.8ZM680.11 39.8C680.11 38.6267 679.843 37.7 679.31 37.02C678.79 36.3267 678.076 35.98 677.17 35.98C676.263 35.98 675.543 36.3267 675.01 37.02C674.49 37.7 674.23 38.6267 674.23 39.8C674.23 40.9733 674.49 41.9067 675.01 42.6C675.543 43.28 676.263 43.62 677.17 43.62C678.076 43.62 678.79 43.28 679.31 42.6C679.843 41.9067 680.11 40.9733 680.11 39.8ZM693.855 37.94C693.855 38.2867 693.795 38.6133 693.675 38.92C693.555 39.2267 693.382 39.4933 693.155 39.72C692.942 39.9467 692.675 40.1333 692.355 40.28C692.049 40.4133 691.695 40.48 691.295 40.48C690.895 40.48 690.535 40.4133 690.215 40.28C689.909 40.1333 689.642 39.9467 689.415 39.72C689.202 39.4933 689.035 39.2267 688.915 38.92C688.795 38.6133 688.735 38.2867 688.735 37.94C688.735 37.6067 688.795 37.2867 688.915 36.98C689.035 36.66 689.202 36.3867 689.415 36.16C689.642 35.9333 689.909 35.7533 690.215 35.62C690.535 35.4733 690.895 35.4 691.295 35.4C691.695 35.4 692.049 35.4733 692.355 35.62C692.675 35.7533 692.942 35.9333 693.155 36.16C693.382 36.3867 693.555 36.66 693.675 36.98C693.795 37.2867 693.855 37.6067 693.855 37.94ZM707.211 45.3C706.238 45.3 705.351 45.14 704.551 44.82C703.751 44.5 703.065 44.0333 702.491 43.42C701.918 42.8067 701.471 42.0533 701.151 41.16C700.845 40.2533 700.691 39.22 700.691 38.06C700.691 36.9 700.865 35.8733 701.211 34.98C701.571 34.0733 702.051 33.3133 702.651 32.7C703.251 32.0867 703.951 31.62 704.751 31.3C705.551 30.98 706.405 30.82 707.311 30.82C707.885 30.82 708.398 30.86 708.851 30.94C709.318 31.02 709.718 31.1133 710.051 31.22C710.398 31.3267 710.678 31.4333 710.891 31.54C711.105 31.6467 711.251 31.7267 711.331 31.78L710.771 33.38C710.651 33.3 710.478 33.2133 710.251 33.12C710.025 33.0267 709.765 32.9333 709.471 32.84C709.191 32.7467 708.878 32.6733 708.531 32.62C708.198 32.5533 707.858 32.52 707.511 32.52C706.778 32.52 706.118 32.6467 705.531 32.9C704.945 33.1533 704.445 33.52 704.031 34C703.618 34.48 703.298 35.0667 703.071 35.76C702.858 36.44 702.751 37.2067 702.751 38.06C702.751 38.8867 702.845 39.64 703.031 40.32C703.231 41 703.525 41.5867 703.911 42.08C704.298 42.56 704.778 42.9333 705.351 43.2C705.938 43.4667 706.618 43.6 707.391 43.6C708.285 43.6 709.025 43.5067 709.611 43.32C710.198 43.1333 710.638 42.9667 710.931 42.82L711.431 44.42C711.338 44.4867 711.171 44.5733 710.931 44.68C710.691 44.7733 710.391 44.8667 710.031 44.96C709.671 45.0533 709.251 45.1333 708.771 45.2C708.291 45.2667 707.771 45.3 707.211 45.3ZM717.054 43.66C717.494 43.66 717.88 43.6533 718.214 43.64C718.56 43.6133 718.847 43.5733 719.074 43.52V40.42C718.94 40.3533 718.72 40.3 718.414 40.26C718.12 40.2067 717.76 40.18 717.334 40.18C717.054 40.18 716.754 40.2 716.434 40.24C716.127 40.28 715.84 40.3667 715.574 40.5C715.32 40.62 715.107 40.7933 714.934 41.02C714.76 41.2333 714.674 41.52 714.674 41.88C714.674 42.5467 714.887 43.0133 715.314 43.28C715.74 43.5333 716.32 43.66 717.054 43.66ZM716.894 34.34C717.64 34.34 718.267 34.44 718.774 34.64C719.294 34.8267 719.707 35.1 720.014 35.46C720.334 35.8067 720.56 36.2267 720.694 36.72C720.827 37.2 720.894 37.7333 720.894 38.32V44.82C720.734 44.8467 720.507 44.8867 720.214 44.94C719.934 44.98 719.614 45.02 719.254 45.06C718.894 45.1 718.5 45.1333 718.074 45.16C717.66 45.2 717.247 45.22 716.834 45.22C716.247 45.22 715.707 45.16 715.214 45.04C714.72 44.92 714.294 44.7333 713.934 44.48C713.574 44.2133 713.294 43.8667 713.094 43.44C712.894 43.0133 712.794 42.5 712.794 41.9C712.794 41.3267 712.907 40.8333 713.134 40.42C713.374 40.0067 713.694 39.6733 714.094 39.42C714.494 39.1667 714.96 38.98 715.494 38.86C716.027 38.74 716.587 38.68 717.174 38.68C717.36 38.68 717.554 38.6933 717.754 38.72C717.954 38.7333 718.14 38.76 718.314 38.8C718.5 38.8267 718.66 38.8533 718.794 38.88C718.927 38.9067 719.02 38.9267 719.074 38.94V38.42C719.074 38.1133 719.04 37.8133 718.974 37.52C718.907 37.2133 718.787 36.9467 718.614 36.72C718.44 36.48 718.2 36.2933 717.894 36.16C717.6 36.0133 717.214 35.94 716.734 35.94C716.12 35.94 715.58 35.9867 715.114 36.08C714.66 36.16 714.32 36.2467 714.094 36.34L713.874 34.8C714.114 34.6933 714.514 34.5933 715.074 34.5C715.634 34.3933 716.24 34.34 716.894 34.34ZM730.703 36.8C730.476 36.6133 730.149 36.4333 729.723 36.26C729.296 36.0867 728.829 36 728.323 36C727.789 36 727.329 36.1 726.943 36.3C726.569 36.4867 726.263 36.7533 726.023 37.1C725.783 37.4333 725.609 37.8333 725.503 38.3C725.396 38.7667 725.343 39.2667 725.343 39.8C725.343 41.0133 725.643 41.9533 726.243 42.62C726.843 43.2733 727.643 43.6 728.643 43.6C729.149 43.6 729.569 43.58 729.903 43.54C730.249 43.4867 730.516 43.4333 730.703 43.38V36.8ZM730.703 29.8L732.563 29.48V44.7C732.136 44.82 731.589 44.94 730.923 45.06C730.256 45.18 729.489 45.24 728.623 45.24C727.823 45.24 727.103 45.1133 726.463 44.86C725.823 44.6067 725.276 44.2467 724.823 43.78C724.369 43.3133 724.016 42.7467 723.763 42.08C723.523 41.4 723.403 40.64 723.403 39.8C723.403 39 723.503 38.2667 723.703 37.6C723.916 36.9333 724.223 36.36 724.623 35.88C725.023 35.4 725.509 35.0267 726.083 34.76C726.669 34.4933 727.336 34.36 728.083 34.36C728.683 34.36 729.209 34.44 729.663 34.6C730.129 34.76 730.476 34.9133 730.703 35.06V29.8ZM739.28 43.66C739.72 43.66 740.107 43.6533 740.44 43.64C740.787 43.6133 741.073 43.5733 741.3 43.52V40.42C741.167 40.3533 740.947 40.3 740.64 40.26C740.347 40.2067 739.987 40.18 739.56 40.18C739.28 40.18 738.98 40.2 738.66 40.24C738.353 40.28 738.067 40.3667 737.8 40.5C737.547 40.62 737.333 40.7933 737.16 41.02C736.987 41.2333 736.9 41.52 736.9 41.88C736.9 42.5467 737.113 43.0133 737.54 43.28C737.967 43.5333 738.547 43.66 739.28 43.66ZM739.12 34.34C739.867 34.34 740.493 34.44 741 34.64C741.52 34.8267 741.933 35.1 742.24 35.46C742.56 35.8067 742.787 36.2267 742.92 36.72C743.053 37.2 743.12 37.7333 743.12 38.32V44.82C742.96 44.8467 742.733 44.8867 742.44 44.94C742.16 44.98 741.84 45.02 741.48 45.06C741.12 45.1 740.727 45.1333 740.3 45.16C739.887 45.2 739.473 45.22 739.06 45.22C738.473 45.22 737.933 45.16 737.44 45.04C736.947 44.92 736.52 44.7333 736.16 44.48C735.8 44.2133 735.52 43.8667 735.32 43.44C735.12 43.0133 735.02 42.5 735.02 41.9C735.02 41.3267 735.133 40.8333 735.36 40.42C735.6 40.0067 735.92 39.6733 736.32 39.42C736.72 39.1667 737.187 38.98 737.72 38.86C738.253 38.74 738.813 38.68 739.4 38.68C739.587 38.68 739.78 38.6933 739.98 38.72C740.18 38.7333 740.367 38.76 740.54 38.8C740.727 38.8267 740.887 38.8533 741.02 38.88C741.153 38.9067 741.247 38.9267 741.3 38.94V38.42C741.3 38.1133 741.267 37.8133 741.2 37.52C741.133 37.2133 741.013 36.9467 740.84 36.72C740.667 36.48 740.427 36.2933 740.12 36.16C739.827 36.0133 739.44 35.94 738.96 35.94C738.347 35.94 737.807 35.9867 737.34 36.08C736.887 36.16 736.547 36.2467 736.32 36.34L736.1 34.8C736.34 34.6933 736.74 34.5933 737.3 34.5C737.86 34.3933 738.467 34.34 739.12 34.34ZM748.629 43.66C749.389 43.66 749.949 43.56 750.309 43.36C750.683 43.16 750.869 42.84 750.869 42.4C750.869 41.9467 750.689 41.5867 750.329 41.32C749.969 41.0533 749.376 40.7533 748.549 40.42C748.149 40.26 747.763 40.1 747.389 39.94C747.029 39.7667 746.716 39.5667 746.449 39.34C746.183 39.1133 745.969 38.84 745.809 38.52C745.649 38.2 745.569 37.8067 745.569 37.34C745.569 36.42 745.909 35.6933 746.589 35.16C747.269 34.6133 748.196 34.34 749.369 34.34C749.663 34.34 749.956 34.36 750.249 34.4C750.543 34.4267 750.816 34.4667 751.069 34.52C751.323 34.56 751.543 34.6067 751.729 34.66C751.929 34.7133 752.083 34.76 752.189 34.8L751.849 36.4C751.649 36.2933 751.336 36.1867 750.909 36.08C750.483 35.96 749.969 35.9 749.369 35.9C748.849 35.9 748.396 36.0067 748.009 36.22C747.623 36.42 747.429 36.74 747.429 37.18C747.429 37.4067 747.469 37.6067 747.549 37.78C747.643 37.9533 747.776 38.1133 747.949 38.26C748.136 38.3933 748.363 38.52 748.629 38.64C748.896 38.76 749.216 38.8867 749.589 39.02C750.083 39.2067 750.523 39.3933 750.909 39.58C751.296 39.7533 751.623 39.96 751.889 40.2C752.169 40.44 752.383 40.7333 752.529 41.08C752.676 41.4133 752.749 41.8267 752.749 42.32C752.749 43.28 752.389 44.0067 751.669 44.5C750.963 44.9933 749.949 45.24 748.629 45.24C747.709 45.24 746.989 45.16 746.469 45C745.949 44.8533 745.596 44.74 745.409 44.66L745.749 43.06C745.963 43.14 746.303 43.26 746.769 43.42C747.236 43.58 747.856 43.66 748.629 43.66ZM756.875 34.6H760.815V36.16H756.875V40.96C756.875 41.48 756.915 41.9133 756.995 42.26C757.075 42.5933 757.195 42.86 757.355 43.06C757.515 43.2467 757.715 43.38 757.955 43.46C758.195 43.54 758.475 43.58 758.795 43.58C759.355 43.58 759.802 43.52 760.135 43.4C760.482 43.2667 760.722 43.1733 760.855 43.12L761.215 44.66C761.028 44.7533 760.702 44.8667 760.235 45C759.768 45.1467 759.235 45.22 758.635 45.22C757.928 45.22 757.342 45.1333 756.875 44.96C756.422 44.7733 756.055 44.5 755.775 44.14C755.495 43.78 755.295 43.34 755.175 42.82C755.068 42.2867 755.015 41.6733 755.015 40.98V31.7L756.875 31.38V34.6ZM767.022 34.38C767.182 34.38 767.362 34.3933 767.562 34.42C767.775 34.4333 767.982 34.46 768.182 34.5C768.382 34.5267 768.562 34.56 768.722 34.6C768.895 34.6267 769.022 34.6533 769.102 34.68L768.782 36.3C768.635 36.2467 768.389 36.1867 768.042 36.12C767.709 36.04 767.275 36 766.742 36C766.395 36 766.049 36.04 765.702 36.12C765.369 36.1867 765.149 36.2333 765.042 36.26V45H763.182V35.04C763.622 34.88 764.169 34.7333 764.822 34.6C765.475 34.4533 766.209 34.38 767.022 34.38ZM770.317 39.82C770.317 38.9 770.45 38.1 770.717 37.42C770.984 36.7267 771.337 36.1533 771.777 35.7C772.217 35.2467 772.724 34.9067 773.297 34.68C773.87 34.4533 774.457 34.34 775.057 34.34C776.457 34.34 777.53 34.78 778.277 35.66C779.024 36.5267 779.397 37.8533 779.397 39.64C779.397 39.72 779.397 39.8267 779.397 39.96C779.397 40.08 779.39 40.1933 779.377 40.3H772.257C772.337 41.38 772.65 42.2 773.197 42.76C773.744 43.32 774.597 43.6 775.757 43.6C776.41 43.6 776.957 43.5467 777.397 43.44C777.85 43.32 778.19 43.2067 778.417 43.1L778.677 44.66C778.45 44.78 778.05 44.9067 777.477 45.04C776.917 45.1733 776.277 45.24 775.557 45.24C774.65 45.24 773.864 45.1067 773.197 44.84C772.544 44.56 772.004 44.18 771.577 43.7C771.15 43.22 770.83 42.6533 770.617 42C770.417 41.3333 770.317 40.6067 770.317 39.82ZM777.457 38.8C777.47 37.96 777.257 37.2733 776.817 36.74C776.39 36.1933 775.797 35.92 775.037 35.92C774.61 35.92 774.23 36.0067 773.897 36.18C773.577 36.34 773.304 36.5533 773.077 36.82C772.85 37.0867 772.67 37.3933 772.537 37.74C772.417 38.0867 772.337 38.44 772.297 38.8H777.457ZM780.989 38.14H785.929V39.88H780.989V38.14ZM790.465 43.66C791.225 43.66 791.785 43.56 792.145 43.36C792.519 43.16 792.705 42.84 792.705 42.4C792.705 41.9467 792.525 41.5867 792.165 41.32C791.805 41.0533 791.212 40.7533 790.385 40.42C789.985 40.26 789.599 40.1 789.225 39.94C788.865 39.7667 788.552 39.5667 788.285 39.34C788.019 39.1133 787.805 38.84 787.645 38.52C787.485 38.2 787.405 37.8067 787.405 37.34C787.405 36.42 787.745 35.6933 788.425 35.16C789.105 34.6133 790.032 34.34 791.205 34.34C791.499 34.34 791.792 34.36 792.085 34.4C792.379 34.4267 792.652 34.4667 792.905 34.52C793.159 34.56 793.379 34.6067 793.565 34.66C793.765 34.7133 793.919 34.76 794.025 34.8L793.685 36.4C793.485 36.2933 793.172 36.1867 792.745 36.08C792.319 35.96 791.805 35.9 791.205 35.9C790.685 35.9 790.232 36.0067 789.845 36.22C789.459 36.42 789.265 36.74 789.265 37.18C789.265 37.4067 789.305 37.6067 789.385 37.78C789.479 37.9533 789.612 38.1133 789.785 38.26C789.972 38.3933 790.199 38.52 790.465 38.64C790.732 38.76 791.052 38.8867 791.425 39.02C791.919 39.2067 792.359 39.3933 792.745 39.58C793.132 39.7533 793.459 39.96 793.725 40.2C794.005 40.44 794.219 40.7333 794.365 41.08C794.512 41.4133 794.585 41.8267 794.585 42.32C794.585 43.28 794.225 44.0067 793.505 44.5C792.799 44.9933 791.785 45.24 790.465 45.24C789.545 45.24 788.825 45.16 788.305 45C787.785 44.8533 787.432 44.74 787.245 44.66L787.585 43.06C787.799 43.14 788.139 43.26 788.605 43.42C789.072 43.58 789.692 43.66 790.465 43.66ZM796.391 39.82C796.391 38.9 796.524 38.1 796.791 37.42C797.058 36.7267 797.411 36.1533 797.851 35.7C798.291 35.2467 798.798 34.9067 799.371 34.68C799.944 34.4533 800.531 34.34 801.131 34.34C802.531 34.34 803.604 34.78 804.351 35.66C805.098 36.5267 805.471 37.8533 805.471 39.64C805.471 39.72 805.471 39.8267 805.471 39.96C805.471 40.08 805.464 40.1933 805.451 40.3H798.331C798.411 41.38 798.724 42.2 799.271 42.76C799.818 43.32 800.671 43.6 801.831 43.6C802.484 43.6 803.031 43.5467 803.471 43.44C803.924 43.32 804.264 43.2067 804.491 43.1L804.751 44.66C804.524 44.78 804.124 44.9067 803.551 45.04C802.991 45.1733 802.351 45.24 801.631 45.24C800.724 45.24 799.938 45.1067 799.271 44.84C798.618 44.56 798.078 44.18 797.651 43.7C797.224 43.22 796.904 42.6533 796.691 42C796.491 41.3333 796.391 40.6067 796.391 39.82ZM803.531 38.8C803.544 37.96 803.331 37.2733 802.891 36.74C802.464 36.1933 801.871 35.92 801.111 35.92C800.684 35.92 800.304 36.0067 799.971 36.18C799.651 36.34 799.378 36.5533 799.151 36.82C798.924 37.0867 798.744 37.3933 798.611 37.74C798.491 38.0867 798.411 38.44 798.371 38.8H803.531Z" fill="white"/>
<rect x="1210" y="19" width="150" height="37" rx="5" fill="#2E6CBA"/>
<path d="M88.49 26.97C91.61 26.97 94 27.53 95.66 28.65C97.32 29.75 98.15 31.47 98.15 33.81C98.15 35.27 97.81 36.46 97.13 37.38C96.47 38.28 95.51 38.99 94.25 39.51C94.67 40.03 95.11 40.63 95.57 41.31C96.03 41.97 96.48 42.67 96.92 43.41C97.38 44.13 97.82 44.89 98.24 45.69C98.66 46.47 99.05 47.24 99.41 48H94.16C93.78 47.32 93.39 46.63 92.99 45.93C92.61 45.23 92.21 44.55 91.79 43.89C91.39 43.23 90.99 42.61 90.59 42.03C90.19 41.43 89.79 40.89 89.39 40.41H87.08V48H82.4V27.51C83.42 27.31 84.47 27.17 85.55 27.09C86.65 27.01 87.63 26.97 88.49 26.97ZM88.76 30.96C88.42 30.96 88.11 30.97 87.83 30.99C87.57 31.01 87.32 31.03 87.08 31.05V36.69H88.4C90.16 36.69 91.42 36.47 92.18 36.03C92.94 35.59 93.32 34.84 93.32 33.78C93.32 32.76 92.93 32.04 92.15 31.62C91.39 31.18 90.26 30.96 88.76 30.96ZM100.598 40.23C100.598 38.83 100.808 37.61 101.228 36.57C101.668 35.51 102.238 34.63 102.938 33.93C103.638 33.23 104.438 32.7 105.338 32.34C106.258 31.98 107.198 31.8 108.158 31.8C110.398 31.8 112.168 32.49 113.468 33.87C114.768 35.23 115.418 37.24 115.418 39.9C115.418 40.16 115.408 40.45 115.388 40.77C115.368 41.07 115.348 41.34 115.328 41.58H105.188C105.288 42.5 105.718 43.23 106.478 43.77C107.238 44.31 108.258 44.58 109.538 44.58C110.358 44.58 111.158 44.51 111.938 44.37C112.738 44.21 113.388 44.02 113.888 43.8L114.488 47.43C114.248 47.55 113.928 47.67 113.528 47.79C113.128 47.91 112.678 48.01 112.178 48.09C111.698 48.19 111.178 48.27 110.618 48.33C110.058 48.39 109.498 48.42 108.938 48.42C107.518 48.42 106.278 48.21 105.218 47.79C104.178 47.37 103.308 46.8 102.608 46.08C101.928 45.34 101.418 44.47 101.078 43.47C100.758 42.47 100.598 41.39 100.598 40.23ZM111.098 38.52C111.078 38.14 111.008 37.77 110.888 37.41C110.788 37.05 110.618 36.73 110.378 36.45C110.158 36.17 109.868 35.94 109.508 35.76C109.168 35.58 108.738 35.49 108.218 35.49C107.718 35.49 107.288 35.58 106.928 35.76C106.568 35.92 106.268 36.14 106.028 36.42C105.788 36.7 105.598 37.03 105.458 37.41C105.338 37.77 105.248 38.14 105.188 38.52H111.098ZM123.158 48C122.138 46 121.098 43.66 120.038 40.98C118.998 38.3 118.008 35.38 117.068 32.22H121.808C122.008 33 122.238 33.85 122.498 34.77C122.778 35.67 123.058 36.59 123.338 37.53C123.638 38.45 123.928 39.35 124.208 40.23C124.508 41.11 124.798 41.91 125.078 42.63C125.338 41.91 125.618 41.11 125.918 40.23C126.218 39.35 126.508 38.45 126.788 37.53C127.088 36.59 127.368 35.67 127.628 34.77C127.908 33.85 128.148 33 128.348 32.22H132.968C132.028 35.38 131.028 38.3 129.968 40.98C128.928 43.66 127.898 46 126.878 48H123.158ZM139.832 48H135.362V32.22H139.832V48ZM140.252 27.66C140.252 28.48 139.982 29.13 139.442 29.61C138.922 30.07 138.302 30.3 137.582 30.3C136.862 30.3 136.232 30.07 135.692 29.61C135.172 29.13 134.912 28.48 134.912 27.66C134.912 26.84 135.172 26.2 135.692 25.74C136.232 25.26 136.862 25.02 137.582 25.02C138.302 25.02 138.922 25.26 139.442 25.74C139.982 26.2 140.252 26.84 140.252 27.66ZM143.284 40.23C143.284 38.83 143.494 37.61 143.914 36.57C144.354 35.51 144.924 34.63 145.624 33.93C146.324 33.23 147.124 32.7 148.024 32.34C148.944 31.98 149.884 31.8 150.844 31.8C153.084 31.8 154.854 32.49 156.154 33.87C157.454 35.23 158.104 37.24 158.104 39.9C158.104 40.16 158.094 40.45 158.074 40.77C158.054 41.07 158.034 41.34 158.014 41.58H147.874C147.974 42.5 148.404 43.23 149.164 43.77C149.924 44.31 150.944 44.58 152.224 44.58C153.044 44.58 153.844 44.51 154.624 44.37C155.424 44.21 156.074 44.02 156.574 43.8L157.174 47.43C156.934 47.55 156.614 47.67 156.214 47.79C155.814 47.91 155.364 48.01 154.864 48.09C154.384 48.19 153.864 48.27 153.304 48.33C152.744 48.39 152.184 48.42 151.624 48.42C150.204 48.42 148.964 48.21 147.904 47.79C146.864 47.37 145.994 46.8 145.294 46.08C144.614 45.34 144.104 44.47 143.764 43.47C143.444 42.47 143.284 41.39 143.284 40.23ZM153.784 38.52C153.764 38.14 153.694 37.77 153.574 37.41C153.474 37.05 153.304 36.73 153.064 36.45C152.844 36.17 152.554 35.94 152.194 35.76C151.854 35.58 151.424 35.49 150.904 35.49C150.404 35.49 149.974 35.58 149.614 35.76C149.254 35.92 148.954 36.14 148.714 36.42C148.474 36.7 148.284 37.03 148.144 37.41C148.024 37.77 147.934 38.14 147.874 38.52H153.784ZM171.153 38.94C170.753 40.46 170.323 41.97 169.863 43.47C169.423 44.97 168.953 46.48 168.453 48H164.973C164.613 47.16 164.223 46.16 163.803 45C163.383 43.84 162.943 42.58 162.483 41.22C162.043 39.84 161.583 38.39 161.103 36.87C160.643 35.33 160.193 33.78 159.753 32.22H164.463C164.623 32.94 164.793 33.73 164.973 34.59C165.173 35.43 165.373 36.3 165.573 37.2C165.793 38.1 166.013 39.01 166.233 39.93C166.473 40.83 166.713 41.7 166.953 42.54C167.213 41.66 167.463 40.76 167.703 39.84C167.963 38.92 168.203 38.02 168.423 37.14C168.663 36.24 168.883 35.38 169.083 34.56C169.303 33.72 169.493 32.94 169.653 32.22H172.893C173.053 32.94 173.233 33.72 173.433 34.56C173.633 35.38 173.843 36.24 174.063 37.14C174.283 38.02 174.513 38.92 174.753 39.84C174.993 40.76 175.243 41.66 175.503 42.54C175.743 41.7 175.983 40.83 176.223 39.93C176.463 39.01 176.683 38.1 176.883 37.2C177.103 36.3 177.303 35.43 177.483 34.59C177.683 33.73 177.863 32.94 178.023 32.22H182.673C182.233 33.78 181.773 35.33 181.293 36.87C180.833 38.39 180.373 39.84 179.913 41.22C179.473 42.58 179.033 43.84 178.593 45C178.173 46.16 177.783 47.16 177.423 48H173.943C173.443 46.48 172.953 44.97 172.473 43.47C171.993 41.97 171.553 40.46 171.153 38.94ZM191.049 44.43C191.709 44.43 192.249 44.38 192.669 44.28C193.109 44.16 193.459 44.01 193.719 43.83C193.979 43.63 194.159 43.4 194.259 43.14C194.359 42.88 194.409 42.59 194.409 42.27C194.409 41.59 194.089 41.03 193.449 40.59C192.809 40.13 191.709 39.64 190.149 39.12C189.469 38.88 188.789 38.61 188.109 38.31C187.429 37.99 186.819 37.6 186.279 37.14C185.739 36.66 185.299 36.09 184.959 35.43C184.619 34.75 184.449 33.93 184.449 32.97C184.449 32.01 184.629 31.15 184.989 30.39C185.349 29.61 185.859 28.95 186.519 28.41C187.179 27.87 187.979 27.46 188.919 27.18C189.859 26.88 190.919 26.73 192.099 26.73C193.499 26.73 194.709 26.88 195.729 27.18C196.749 27.48 197.589 27.81 198.249 28.17L196.899 31.86C196.319 31.56 195.669 31.3 194.949 31.08C194.249 30.84 193.399 30.72 192.399 30.72C191.279 30.72 190.469 30.88 189.969 31.2C189.489 31.5 189.249 31.97 189.249 32.61C189.249 32.99 189.339 33.31 189.519 33.57C189.699 33.83 189.949 34.07 190.269 34.29C190.609 34.49 190.989 34.68 191.409 34.86C191.849 35.02 192.329 35.19 192.849 35.37C193.929 35.77 194.869 36.17 195.669 36.57C196.469 36.95 197.129 37.4 197.649 37.92C198.189 38.44 198.589 39.05 198.849 39.75C199.109 40.45 199.239 41.3 199.239 42.3C199.239 44.24 198.559 45.75 197.199 46.83C195.839 47.89 193.789 48.42 191.049 48.42C190.129 48.42 189.299 48.36 188.559 48.24C187.819 48.14 187.159 48.01 186.579 47.85C186.019 47.69 185.529 47.52 185.109 47.34C184.709 47.16 184.369 46.99 184.089 46.83L185.409 43.11C186.029 43.45 186.789 43.76 187.689 44.04C188.609 44.3 189.729 44.43 191.049 44.43ZM216.081 32.22C215.181 35.26 214.241 38.11 213.261 40.77C212.281 43.43 211.211 46.01 210.051 48.51C209.631 49.41 209.211 50.17 208.791 50.79C208.371 51.43 207.911 51.95 207.411 52.35C206.911 52.77 206.341 53.07 205.701 53.25C205.081 53.45 204.351 53.55 203.511 53.55C202.811 53.55 202.161 53.48 201.561 53.34C200.981 53.22 200.501 53.08 200.121 52.92L200.901 49.35C201.361 49.51 201.771 49.62 202.131 49.68C202.491 49.74 202.871 49.77 203.271 49.77C204.071 49.77 204.681 49.55 205.101 49.11C205.541 48.69 205.911 48.1 206.211 47.34C205.191 45.34 204.171 43.1 203.151 40.62C202.131 38.12 201.171 35.32 200.271 32.22H205.011C205.211 33 205.441 33.85 205.701 34.77C205.981 35.67 206.271 36.59 206.571 37.53C206.871 38.45 207.171 39.35 207.471 40.23C207.791 41.11 208.091 41.91 208.371 42.63C208.631 41.91 208.901 41.11 209.181 40.23C209.461 39.35 209.731 38.45 209.991 37.53C210.271 36.59 210.531 35.67 210.771 34.77C211.031 33.85 211.261 33 211.461 32.22H216.081ZM223.007 44.79C223.827 44.79 224.407 44.71 224.747 44.55C225.087 44.39 225.257 44.08 225.257 43.62C225.257 43.26 225.037 42.95 224.597 42.69C224.157 42.41 223.487 42.1 222.587 41.76C221.887 41.5 221.247 41.23 220.667 40.95C220.107 40.67 219.627 40.34 219.227 39.96C218.827 39.56 218.517 39.09 218.297 38.55C218.077 38.01 217.967 37.36 217.967 36.6C217.967 35.12 218.517 33.95 219.617 33.09C220.717 32.23 222.227 31.8 224.147 31.8C225.107 31.8 226.027 31.89 226.907 32.07C227.787 32.23 228.487 32.41 229.007 32.61L228.227 36.09C227.707 35.91 227.137 35.75 226.517 35.61C225.917 35.47 225.237 35.4 224.477 35.4C223.077 35.4 222.377 35.79 222.377 36.57C222.377 36.75 222.407 36.91 222.467 37.05C222.527 37.19 222.647 37.33 222.827 37.47C223.007 37.59 223.247 37.73 223.547 37.89C223.867 38.03 224.267 38.19 224.747 38.37C225.727 38.73 226.537 39.09 227.177 39.45C227.817 39.79 228.317 40.17 228.677 40.59C229.057 40.99 229.317 41.44 229.457 41.94C229.617 42.44 229.697 43.02 229.697 43.68C229.697 45.24 229.107 46.42 227.927 47.22C226.767 48.02 225.117 48.42 222.977 48.42C221.577 48.42 220.407 48.3 219.467 48.06C218.547 47.82 217.907 47.62 217.547 47.46L218.297 43.83C219.057 44.13 219.837 44.37 220.637 44.55C221.437 44.71 222.227 44.79 223.007 44.79ZM232.888 28.29L237.358 27.57V32.22H242.728V35.94H237.358V41.49C237.358 42.43 237.518 43.18 237.838 43.74C238.178 44.3 238.848 44.58 239.848 44.58C240.328 44.58 240.818 44.54 241.318 44.46C241.838 44.36 242.308 44.23 242.728 44.07L243.358 47.55C242.818 47.77 242.218 47.96 241.558 48.12C240.898 48.28 240.088 48.36 239.128 48.36C237.908 48.36 236.898 48.2 236.098 47.88C235.298 47.54 234.658 47.08 234.178 46.5C233.698 45.9 233.358 45.18 233.158 44.34C232.978 43.5 232.888 42.57 232.888 41.55V28.29ZM245.032 40.23C245.032 38.83 245.242 37.61 245.662 36.57C246.102 35.51 246.672 34.63 247.372 33.93C248.072 33.23 248.872 32.7 249.772 32.34C250.692 31.98 251.632 31.8 252.592 31.8C254.832 31.8 256.602 32.49 257.902 33.87C259.202 35.23 259.852 37.24 259.852 39.9C259.852 40.16 259.842 40.45 259.822 40.77C259.802 41.07 259.782 41.34 259.762 41.58H249.622C249.722 42.5 250.152 43.23 250.912 43.77C251.672 44.31 252.692 44.58 253.972 44.58C254.792 44.58 255.592 44.51 256.372 44.37C257.172 44.21 257.822 44.02 258.322 43.8L258.922 47.43C258.682 47.55 258.362 47.67 257.962 47.79C257.562 47.91 257.112 48.01 256.612 48.09C256.132 48.19 255.612 48.27 255.052 48.33C254.492 48.39 253.932 48.42 253.372 48.42C251.952 48.42 250.712 48.21 249.652 47.79C248.612 47.37 247.742 46.8 247.042 46.08C246.362 45.34 245.852 44.47 245.512 43.47C245.192 42.47 245.032 41.39 245.032 40.23ZM255.532 38.52C255.512 38.14 255.442 37.77 255.322 37.41C255.222 37.05 255.052 36.73 254.812 36.45C254.592 36.17 254.302 35.94 253.942 35.76C253.602 35.58 253.172 35.49 252.652 35.49C252.152 35.49 251.722 35.58 251.362 35.76C251.002 35.92 250.702 36.14 250.462 36.42C250.222 36.7 250.032 37.03 249.892 37.41C249.772 37.77 249.682 38.14 249.622 38.52H255.532ZM271.971 39.63C271.971 38.19 271.781 37.17 271.401 36.57C271.041 35.97 270.411 35.67 269.511 35.67C269.231 35.67 268.941 35.69 268.641 35.73C268.341 35.75 268.051 35.78 267.771 35.82V48H263.301V32.76C263.681 32.66 264.121 32.56 264.621 32.46C265.141 32.34 265.681 32.24 266.241 32.16C266.821 32.06 267.411 31.99 268.011 31.95C268.611 31.89 269.201 31.86 269.781 31.86C270.921 31.86 271.841 32.01 272.541 32.31C273.261 32.59 273.851 32.93 274.311 33.33C274.951 32.87 275.681 32.51 276.501 32.25C277.341 31.99 278.111 31.86 278.811 31.86C280.071 31.86 281.101 32.04 281.901 32.4C282.721 32.74 283.371 33.23 283.851 33.87C284.331 34.51 284.661 35.27 284.841 36.15C285.021 37.03 285.111 38.01 285.111 39.09V48H280.641V39.63C280.641 38.19 280.451 37.17 280.071 36.57C279.711 35.97 279.081 35.67 278.181 35.67C277.941 35.67 277.601 35.73 277.161 35.85C276.741 35.97 276.391 36.12 276.111 36.3C276.251 36.76 276.341 37.25 276.381 37.77C276.421 38.27 276.441 38.81 276.441 39.39V48H271.971V39.63Z" fill="#1CF9FD"/>
<path d="M1234.38 31.912H1235.93V43H1234.38V31.912ZM1238.58 34.92C1238.92 34.8347 1239.37 34.744 1239.94 34.648C1240.5 34.552 1241.15 34.504 1241.89 34.504C1242.55 34.504 1243.1 34.6 1243.54 34.792C1243.97 34.9733 1244.32 35.2347 1244.58 35.576C1244.84 35.9067 1245.03 36.3067 1245.14 36.776C1245.24 37.2453 1245.3 37.7627 1245.3 38.328V43H1243.81V38.648C1243.81 38.136 1243.77 37.6987 1243.7 37.336C1243.63 36.9733 1243.52 36.68 1243.36 36.456C1243.2 36.232 1242.99 36.072 1242.72 35.976C1242.45 35.8693 1242.12 35.816 1241.73 35.816C1241.57 35.816 1241.4 35.8213 1241.23 35.832C1241.06 35.8427 1240.9 35.8587 1240.74 35.88C1240.59 35.8907 1240.45 35.9067 1240.32 35.928C1240.2 35.9493 1240.12 35.9653 1240.06 35.976V43H1238.58V34.92ZM1249.7 41.928C1250.31 41.928 1250.76 41.848 1251.04 41.688C1251.34 41.528 1251.49 41.272 1251.49 40.92C1251.49 40.5573 1251.35 40.2693 1251.06 40.056C1250.77 39.8427 1250.3 39.6027 1249.64 39.336C1249.32 39.208 1249.01 39.08 1248.71 38.952C1248.42 38.8133 1248.17 38.6533 1247.96 38.472C1247.74 38.2907 1247.57 38.072 1247.44 37.816C1247.32 37.56 1247.25 37.2453 1247.25 36.872C1247.25 36.136 1247.52 35.5547 1248.07 35.128C1248.61 34.6907 1249.35 34.472 1250.29 34.472C1250.53 34.472 1250.76 34.488 1251 34.52C1251.23 34.5413 1251.45 34.5733 1251.65 34.616C1251.86 34.648 1252.03 34.6853 1252.18 34.728C1252.34 34.7707 1252.46 34.808 1252.55 34.84L1252.28 36.12C1252.12 36.0347 1251.87 35.9493 1251.52 35.864C1251.18 35.768 1250.77 35.72 1250.29 35.72C1249.88 35.72 1249.51 35.8053 1249.2 35.976C1248.9 36.136 1248.74 36.392 1248.74 36.744C1248.74 36.9253 1248.77 37.0853 1248.84 37.224C1248.91 37.3627 1249.02 37.4907 1249.16 37.608C1249.31 37.7147 1249.49 37.816 1249.7 37.912C1249.91 38.008 1250.17 38.1093 1250.47 38.216C1250.86 38.3653 1251.22 38.5147 1251.52 38.664C1251.83 38.8027 1252.1 38.968 1252.31 39.16C1252.53 39.352 1252.7 39.5867 1252.82 39.864C1252.94 40.1307 1253 40.4613 1253 40.856C1253 41.624 1252.71 42.2053 1252.13 42.6C1251.57 42.9947 1250.76 43.192 1249.7 43.192C1248.96 43.192 1248.39 43.128 1247.97 43C1247.56 42.8827 1247.27 42.792 1247.12 42.728L1247.4 41.448C1247.57 41.512 1247.84 41.608 1248.21 41.736C1248.59 41.864 1249.08 41.928 1249.7 41.928ZM1254.44 38.856C1254.44 38.12 1254.55 37.48 1254.76 36.936C1254.97 36.3813 1255.26 35.9227 1255.61 35.56C1255.96 35.1973 1256.37 34.9253 1256.83 34.744C1257.28 34.5627 1257.75 34.472 1258.23 34.472C1259.35 34.472 1260.21 34.824 1260.81 35.528C1261.41 36.2213 1261.7 37.2827 1261.7 38.712C1261.7 38.776 1261.7 38.8613 1261.7 38.968C1261.7 39.064 1261.7 39.1547 1261.69 39.24H1255.99C1256.06 40.104 1256.31 40.76 1256.75 41.208C1257.18 41.656 1257.87 41.88 1258.79 41.88C1259.32 41.88 1259.75 41.8373 1260.11 41.752C1260.47 41.656 1260.74 41.5653 1260.92 41.48L1261.13 42.728C1260.95 42.824 1260.63 42.9253 1260.17 43.032C1259.72 43.1387 1259.21 43.192 1258.63 43.192C1257.91 43.192 1257.28 43.0853 1256.75 42.872C1256.22 42.648 1255.79 42.344 1255.45 41.96C1255.11 41.576 1254.85 41.1227 1254.68 40.6C1254.52 40.0667 1254.44 39.4853 1254.44 38.856ZM1260.15 38.04C1260.16 37.368 1259.99 36.8187 1259.64 36.392C1259.3 35.9547 1258.83 35.736 1258.22 35.736C1257.88 35.736 1257.57 35.8053 1257.31 35.944C1257.05 36.072 1256.83 36.2427 1256.65 36.456C1256.47 36.6693 1256.32 36.9147 1256.22 37.192C1256.12 37.4693 1256.06 37.752 1256.03 38.04H1260.15ZM1266.91 34.504C1267.04 34.504 1267.19 34.5147 1267.35 34.536C1267.52 34.5467 1267.68 34.568 1267.84 34.6C1268 34.6213 1268.15 34.648 1268.27 34.68C1268.41 34.7013 1268.51 34.7227 1268.58 34.744L1268.32 36.04C1268.21 35.9973 1268.01 35.9493 1267.73 35.896C1267.46 35.832 1267.12 35.8 1266.69 35.8C1266.41 35.8 1266.14 35.832 1265.86 35.896C1265.59 35.9493 1265.42 35.9867 1265.33 36.008V43H1263.84V35.032C1264.19 34.904 1264.63 34.7867 1265.15 34.68C1265.68 34.5627 1266.26 34.504 1266.91 34.504ZM1271.5 43H1270.01V34.68H1271.5V43ZM1270.75 33.176C1270.48 33.176 1270.25 33.0907 1270.06 32.92C1269.88 32.7387 1269.79 32.4987 1269.79 32.2C1269.79 31.9013 1269.88 31.6667 1270.06 31.496C1270.25 31.3147 1270.48 31.224 1270.75 31.224C1271.02 31.224 1271.24 31.3147 1271.42 31.496C1271.61 31.6667 1271.71 31.9013 1271.71 32.2C1271.71 32.4987 1271.61 32.7387 1271.42 32.92C1271.24 33.0907 1271.02 33.176 1270.75 33.176ZM1277.13 34.504C1277.26 34.504 1277.41 34.5147 1277.57 34.536C1277.74 34.5467 1277.9 34.568 1278.06 34.6C1278.22 34.6213 1278.37 34.648 1278.49 34.68C1278.63 34.7013 1278.73 34.7227 1278.8 34.744L1278.54 36.04C1278.42 35.9973 1278.23 35.9493 1277.95 35.896C1277.68 35.832 1277.34 35.8 1276.91 35.8C1276.63 35.8 1276.35 35.832 1276.08 35.896C1275.81 35.9493 1275.63 35.9867 1275.55 36.008V43H1274.06V35.032C1274.41 34.904 1274.85 34.7867 1275.37 34.68C1275.9 34.5627 1276.48 34.504 1277.13 34.504ZM1289.46 38.36C1289.63 38.5733 1289.84 38.856 1290.1 39.208C1290.36 39.5493 1290.63 39.9333 1290.91 40.36C1291.19 40.776 1291.46 41.2133 1291.73 41.672C1292.01 42.1307 1292.24 42.5733 1292.43 43H1290.74C1290.52 42.5947 1290.29 42.184 1290.03 41.768C1289.79 41.352 1289.54 40.9573 1289.28 40.584C1289.02 40.2 1288.77 39.8427 1288.51 39.512C1288.27 39.1813 1288.04 38.8933 1287.84 38.648C1287.7 38.6587 1287.56 38.664 1287.41 38.664C1287.27 38.664 1287.13 38.664 1286.98 38.664H1285.58V43H1284.03V32.072C1284.47 31.9653 1284.95 31.896 1285.49 31.864C1286.03 31.8213 1286.53 31.8 1286.98 31.8C1288.53 31.8 1289.72 32.0933 1290.53 32.68C1291.35 33.2667 1291.76 34.1413 1291.76 35.304C1291.76 36.04 1291.56 36.6693 1291.17 37.192C1290.78 37.7147 1290.21 38.104 1289.46 38.36ZM1287.1 33.16C1286.44 33.16 1285.94 33.176 1285.58 33.208V37.384H1286.69C1287.22 37.384 1287.7 37.3573 1288.13 37.304C1288.55 37.2507 1288.91 37.1493 1289.2 37C1289.5 36.8507 1289.73 36.6427 1289.89 36.376C1290.05 36.0987 1290.13 35.736 1290.13 35.288C1290.13 34.872 1290.05 34.5253 1289.89 34.248C1289.73 33.9707 1289.51 33.752 1289.23 33.592C1288.97 33.432 1288.65 33.32 1288.27 33.256C1287.91 33.192 1287.52 33.16 1287.1 33.16ZM1293.53 38.856C1293.53 38.12 1293.64 37.48 1293.85 36.936C1294.07 36.3813 1294.35 35.9227 1294.7 35.56C1295.05 35.1973 1295.46 34.9253 1295.92 34.744C1296.38 34.5627 1296.85 34.472 1297.33 34.472C1298.45 34.472 1299.31 34.824 1299.9 35.528C1300.5 36.2213 1300.8 37.2827 1300.8 38.712C1300.8 38.776 1300.8 38.8613 1300.8 38.968C1300.8 39.064 1300.79 39.1547 1300.78 39.24H1295.09C1295.15 40.104 1295.4 40.76 1295.84 41.208C1296.28 41.656 1296.96 41.88 1297.89 41.88C1298.41 41.88 1298.85 41.8373 1299.2 41.752C1299.56 41.656 1299.83 41.5653 1300.01 41.48L1300.22 42.728C1300.04 42.824 1299.72 42.9253 1299.26 43.032C1298.81 43.1387 1298.3 43.192 1297.73 43.192C1297 43.192 1296.37 43.0853 1295.84 42.872C1295.32 42.648 1294.88 42.344 1294.54 41.96C1294.2 41.576 1293.95 41.1227 1293.77 40.6C1293.61 40.0667 1293.53 39.4853 1293.53 38.856ZM1299.25 38.04C1299.26 37.368 1299.09 36.8187 1298.73 36.392C1298.39 35.9547 1297.92 35.736 1297.31 35.736C1296.97 35.736 1296.67 35.8053 1296.4 35.944C1296.14 36.072 1295.92 36.2427 1295.74 36.456C1295.56 36.6693 1295.42 36.9147 1295.31 37.192C1295.21 37.4693 1295.15 37.752 1295.12 38.04H1299.25ZM1309.43 34.68C1309.02 36.2373 1308.53 37.7307 1307.96 39.16C1307.41 40.5893 1306.87 41.8693 1306.34 43H1305C1304.48 41.8693 1303.93 40.5893 1303.37 39.16C1302.81 37.7307 1302.33 36.2373 1301.91 34.68H1303.51C1303.64 35.2027 1303.79 35.7627 1303.96 36.36C1304.14 36.9467 1304.33 37.5333 1304.52 38.12C1304.72 38.696 1304.93 39.256 1305.13 39.8C1305.33 40.344 1305.52 40.8293 1305.7 41.256C1305.89 40.8293 1306.08 40.344 1306.28 39.8C1306.48 39.256 1306.68 38.696 1306.87 38.12C1307.07 37.5333 1307.26 36.9467 1307.43 36.36C1307.61 35.7627 1307.77 35.2027 1307.9 34.68H1309.43ZM1312.46 43H1310.97V34.68H1312.46V43ZM1311.7 33.176C1311.44 33.176 1311.21 33.0907 1311.02 32.92C1310.83 32.7387 1310.74 32.4987 1310.74 32.2C1310.74 31.9013 1310.83 31.6667 1311.02 31.496C1311.21 31.3147 1311.44 31.224 1311.7 31.224C1311.97 31.224 1312.19 31.3147 1312.38 31.496C1312.57 31.6667 1312.66 31.9013 1312.66 32.2C1312.66 32.4987 1312.57 32.7387 1312.38 32.92C1312.19 33.0907 1311.97 33.176 1311.7 33.176ZM1314.55 38.856C1314.55 38.12 1314.66 37.48 1314.87 36.936C1315.08 36.3813 1315.37 35.9227 1315.72 35.56C1316.07 35.1973 1316.48 34.9253 1316.93 34.744C1317.39 34.5627 1317.86 34.472 1318.34 34.472C1319.46 34.472 1320.32 34.824 1320.92 35.528C1321.52 36.2213 1321.81 37.2827 1321.81 38.712C1321.81 38.776 1321.81 38.8613 1321.81 38.968C1321.81 39.064 1321.81 39.1547 1321.8 39.24H1316.1C1316.17 40.104 1316.42 40.76 1316.85 41.208C1317.29 41.656 1317.97 41.88 1318.9 41.88C1319.43 41.88 1319.86 41.8373 1320.21 41.752C1320.58 41.656 1320.85 41.5653 1321.03 41.48L1321.24 42.728C1321.06 42.824 1320.74 42.9253 1320.28 43.032C1319.83 43.1387 1319.32 43.192 1318.74 43.192C1318.02 43.192 1317.39 43.0853 1316.85 42.872C1316.33 42.648 1315.9 42.344 1315.56 41.96C1315.22 41.576 1314.96 41.1227 1314.79 40.6C1314.63 40.0667 1314.55 39.4853 1314.55 38.856ZM1320.26 38.04C1320.27 37.368 1320.1 36.8187 1319.75 36.392C1319.41 35.9547 1318.93 35.736 1318.33 35.736C1317.99 35.736 1317.68 35.8053 1317.41 35.944C1317.16 36.072 1316.94 36.2427 1316.76 36.456C1316.58 36.6693 1316.43 36.9147 1316.33 37.192C1316.23 37.4693 1316.17 37.752 1316.13 38.04H1320.26ZM1330.75 43C1330.45 42.232 1330.13 41.3573 1329.79 40.376C1329.46 39.384 1329.16 38.3547 1328.88 37.288C1328.6 38.3547 1328.3 39.384 1327.97 40.376C1327.64 41.3573 1327.32 42.232 1327.02 43H1325.73C1325.24 41.9013 1324.76 40.648 1324.29 39.24C1323.82 37.832 1323.38 36.312 1322.96 34.68H1324.56C1324.67 35.1813 1324.79 35.7253 1324.94 36.312C1325.09 36.8987 1325.25 37.4853 1325.41 38.072C1325.58 38.6587 1325.75 39.224 1325.94 39.768C1326.12 40.312 1326.29 40.7867 1326.45 41.192C1326.63 40.6907 1326.81 40.1627 1326.98 39.608C1327.16 39.0427 1327.33 38.4773 1327.49 37.912C1327.65 37.336 1327.8 36.776 1327.94 36.232C1328.09 35.6773 1328.21 35.16 1328.32 34.68H1329.55C1329.65 35.16 1329.77 35.6773 1329.9 36.232C1330.04 36.776 1330.19 37.336 1330.35 37.912C1330.51 38.4773 1330.68 39.0427 1330.85 39.608C1331.03 40.1627 1331.21 40.6907 1331.39 41.192C1331.55 40.7867 1331.72 40.312 1331.89 39.768C1332.07 39.224 1332.25 38.6587 1332.42 38.072C1332.59 37.4853 1332.75 36.8987 1332.9 36.312C1333.05 35.7253 1333.17 35.1813 1333.28 34.68H1334.82C1334.4 36.312 1333.96 37.832 1333.49 39.24C1333.02 40.648 1332.54 41.9013 1332.05 43H1330.75Z" fill="white"/>
<rect y="1014" width="1440" height="10" fill="#E84691"/>
<rect x="571" y="592" width="298" height="46" rx="5" fill="#2E6CBA"/>
<path d="M645.88 415.42C642.5 415.42 639.92 414.48 638.14 412.6C636.38 410.72 635.5 408.05 635.5 404.59C635.5 402.87 635.77 401.34 636.31 400C636.85 398.64 637.59 397.5 638.53 396.58C639.47 395.64 640.59 394.93 641.89 394.45C643.19 393.97 644.6 393.73 646.12 393.73C647 393.73 647.8 393.8 648.52 393.94C649.24 394.06 649.87 394.21 650.41 394.39C650.95 394.55 651.4 394.72 651.76 394.9C652.12 395.08 652.38 395.22 652.54 395.32L651.19 399.1C650.55 398.76 649.8 398.47 648.94 398.23C648.1 397.99 647.14 397.87 646.06 397.87C645.34 397.87 644.63 397.99 643.93 398.23C643.25 398.47 642.64 398.86 642.1 399.4C641.58 399.92 641.16 400.6 640.84 401.44C640.52 402.28 640.36 403.3 640.36 404.5C640.36 405.46 640.46 406.36 640.66 407.2C640.88 408.02 641.22 408.73 641.68 409.33C642.16 409.93 642.78 410.41 643.54 410.77C644.3 411.11 645.22 411.28 646.3 411.28C646.98 411.28 647.59 411.24 648.13 411.16C648.67 411.08 649.15 410.99 649.57 410.89C649.99 410.77 650.36 410.64 650.68 410.5C651 410.36 651.29 410.23 651.55 410.11L652.84 413.86C652.18 414.26 651.25 414.62 650.05 414.94C648.85 415.26 647.46 415.42 645.88 415.42ZM661.876 411.88C662.316 411.88 662.736 411.87 663.136 411.85C663.536 411.83 663.856 411.8 664.096 411.76V408.37C663.916 408.33 663.646 408.29 663.286 408.25C662.926 408.21 662.596 408.19 662.296 408.19C661.876 408.19 661.476 408.22 661.096 408.28C660.736 408.32 660.416 408.41 660.136 408.55C659.856 408.69 659.636 408.88 659.476 409.12C659.316 409.36 659.236 409.66 659.236 410.02C659.236 410.72 659.466 411.21 659.926 411.49C660.406 411.75 661.056 411.88 661.876 411.88ZM661.516 398.8C662.836 398.8 663.936 398.95 664.816 399.25C665.696 399.55 666.396 399.98 666.916 400.54C667.456 401.1 667.836 401.78 668.056 402.58C668.276 403.38 668.386 404.27 668.386 405.25V414.55C667.746 414.69 666.856 414.85 665.716 415.03C664.576 415.23 663.196 415.33 661.576 415.33C660.556 415.33 659.626 415.24 658.786 415.06C657.966 414.88 657.256 414.59 656.656 414.19C656.056 413.77 655.596 413.23 655.276 412.57C654.956 411.91 654.796 411.1 654.796 410.14C654.796 409.22 654.976 408.44 655.336 407.8C655.716 407.16 656.216 406.65 656.836 406.27C657.456 405.89 658.166 405.62 658.966 405.46C659.766 405.28 660.596 405.19 661.456 405.19C662.036 405.19 662.546 405.22 662.986 405.28C663.446 405.32 663.816 405.38 664.096 405.46V405.04C664.096 404.28 663.866 403.67 663.406 403.21C662.946 402.75 662.146 402.52 661.006 402.52C660.246 402.52 659.496 402.58 658.756 402.7C658.016 402.8 657.376 402.95 656.836 403.15L656.266 399.55C656.526 399.47 656.846 399.39 657.226 399.31C657.626 399.21 658.056 399.13 658.516 399.07C658.976 398.99 659.456 398.93 659.956 398.89C660.476 398.83 660.996 398.8 661.516 398.8ZM676.238 406.99C676.238 408.37 676.548 409.48 677.168 410.32C677.788 411.16 678.708 411.58 679.928 411.58C680.328 411.58 680.698 411.57 681.038 411.55C681.378 411.51 681.658 411.47 681.878 411.43V403.3C681.598 403.12 681.228 402.97 680.768 402.85C680.328 402.73 679.878 402.67 679.418 402.67C677.298 402.67 676.238 404.11 676.238 406.99ZM686.348 414.49C685.948 414.61 685.488 414.73 684.968 414.85C684.448 414.95 683.898 415.04 683.318 415.12C682.758 415.2 682.178 415.26 681.578 415.3C680.998 415.36 680.438 415.39 679.898 415.39C678.598 415.39 677.438 415.2 676.418 414.82C675.398 414.44 674.538 413.9 673.838 413.2C673.138 412.48 672.598 411.62 672.218 410.62C671.858 409.6 671.678 408.46 671.678 407.2C671.678 405.92 671.838 404.77 672.158 403.75C672.478 402.71 672.938 401.83 673.538 401.11C674.138 400.39 674.868 399.84 675.728 399.46C676.608 399.08 677.608 398.89 678.728 398.89C679.348 398.89 679.898 398.95 680.378 399.07C680.878 399.19 681.378 399.36 681.878 399.58V392.44L686.348 391.72V414.49ZM696.564 411.88C697.004 411.88 697.424 411.87 697.824 411.85C698.224 411.83 698.544 411.8 698.784 411.76V408.37C698.604 408.33 698.334 408.29 697.974 408.25C697.614 408.21 697.284 408.19 696.984 408.19C696.564 408.19 696.164 408.22 695.784 408.28C695.424 408.32 695.104 408.41 694.824 408.55C694.544 408.69 694.324 408.88 694.164 409.12C694.004 409.36 693.924 409.66 693.924 410.02C693.924 410.72 694.154 411.21 694.614 411.49C695.094 411.75 695.744 411.88 696.564 411.88ZM696.204 398.8C697.524 398.8 698.624 398.95 699.504 399.25C700.384 399.55 701.084 399.98 701.604 400.54C702.144 401.1 702.524 401.78 702.744 402.58C702.964 403.38 703.074 404.27 703.074 405.25V414.55C702.434 414.69 701.544 414.85 700.404 415.03C699.264 415.23 697.884 415.33 696.264 415.33C695.244 415.33 694.314 415.24 693.474 415.06C692.654 414.88 691.944 414.59 691.344 414.19C690.744 413.77 690.284 413.23 689.964 412.57C689.644 411.91 689.484 411.1 689.484 410.14C689.484 409.22 689.664 408.44 690.024 407.8C690.404 407.16 690.904 406.65 691.524 406.27C692.144 405.89 692.854 405.62 693.654 405.46C694.454 405.28 695.284 405.19 696.144 405.19C696.724 405.19 697.234 405.22 697.674 405.28C698.134 405.32 698.504 405.38 698.784 405.46V405.04C698.784 404.28 698.554 403.67 698.094 403.21C697.634 402.75 696.834 402.52 695.694 402.52C694.934 402.52 694.184 402.58 693.444 402.7C692.704 402.8 692.064 402.95 691.524 403.15L690.954 399.55C691.214 399.47 691.534 399.39 691.914 399.31C692.314 399.21 692.744 399.13 693.204 399.07C693.664 398.99 694.144 398.93 694.644 398.89C695.164 398.83 695.684 398.8 696.204 398.8ZM711.646 411.79C712.466 411.79 713.046 411.71 713.386 411.55C713.726 411.39 713.896 411.08 713.896 410.62C713.896 410.26 713.676 409.95 713.236 409.69C712.796 409.41 712.126 409.1 711.226 408.76C710.526 408.5 709.886 408.23 709.306 407.95C708.746 407.67 708.266 407.34 707.866 406.96C707.466 406.56 707.156 406.09 706.936 405.55C706.716 405.01 706.606 404.36 706.606 403.6C706.606 402.12 707.156 400.95 708.256 400.09C709.356 399.23 710.866 398.8 712.786 398.8C713.746 398.8 714.666 398.89 715.546 399.07C716.426 399.23 717.126 399.41 717.646 399.61L716.866 403.09C716.346 402.91 715.776 402.75 715.156 402.61C714.556 402.47 713.876 402.4 713.116 402.4C711.716 402.4 711.016 402.79 711.016 403.57C711.016 403.75 711.046 403.91 711.106 404.05C711.166 404.19 711.286 404.33 711.466 404.47C711.646 404.59 711.886 404.73 712.186 404.89C712.506 405.03 712.906 405.19 713.386 405.37C714.366 405.73 715.176 406.09 715.816 406.45C716.456 406.79 716.956 407.17 717.316 407.59C717.696 407.99 717.956 408.44 718.096 408.94C718.256 409.44 718.336 410.02 718.336 410.68C718.336 412.24 717.746 413.42 716.566 414.22C715.406 415.02 713.756 415.42 711.616 415.42C710.216 415.42 709.046 415.3 708.106 415.06C707.186 414.82 706.546 414.62 706.186 414.46L706.936 410.83C707.696 411.13 708.476 411.37 709.276 411.55C710.076 411.71 710.866 411.79 711.646 411.79ZM721.526 395.29L725.996 394.57V399.22H731.366V402.94H725.996V408.49C725.996 409.43 726.156 410.18 726.476 410.74C726.816 411.3 727.486 411.58 728.486 411.58C728.966 411.58 729.456 411.54 729.956 411.46C730.476 411.36 730.946 411.23 731.366 411.07L731.996 414.55C731.456 414.77 730.856 414.96 730.196 415.12C729.536 415.28 728.726 415.36 727.766 415.36C726.546 415.36 725.536 415.2 724.736 414.88C723.936 414.54 723.296 414.08 722.816 413.5C722.336 412.9 721.996 412.18 721.796 411.34C721.616 410.5 721.526 409.57 721.526 408.55V395.29ZM744.516 403.18C744.116 403.08 743.646 402.98 743.106 402.88C742.566 402.76 741.986 402.7 741.366 402.7C741.086 402.7 740.746 402.73 740.346 402.79C739.966 402.83 739.676 402.88 739.476 402.94V415H735.006V400.06C735.806 399.78 736.746 399.52 737.826 399.28C738.926 399.02 740.146 398.89 741.486 398.89C741.726 398.89 742.016 398.91 742.356 398.95C742.696 398.97 743.036 399.01 743.376 399.07C743.716 399.11 744.056 399.17 744.396 399.25C744.736 399.31 745.026 399.39 745.266 399.49L744.516 403.18ZM746.62 407.23C746.62 405.83 746.83 404.61 747.25 403.57C747.69 402.51 748.26 401.63 748.96 400.93C749.66 400.23 750.46 399.7 751.36 399.34C752.28 398.98 753.22 398.8 754.18 398.8C756.42 398.8 758.19 399.49 759.49 400.87C760.79 402.23 761.44 404.24 761.44 406.9C761.44 407.16 761.43 407.45 761.41 407.77C761.39 408.07 761.37 408.34 761.35 408.58H751.21C751.31 409.5 751.74 410.23 752.5 410.77C753.26 411.31 754.28 411.58 755.56 411.58C756.38 411.58 757.18 411.51 757.96 411.37C758.76 411.21 759.41 411.02 759.91 410.8L760.51 414.43C760.27 414.55 759.95 414.67 759.55 414.79C759.15 414.91 758.7 415.01 758.2 415.09C757.72 415.19 757.2 415.27 756.64 415.33C756.08 415.39 755.52 415.42 754.96 415.42C753.54 415.42 752.3 415.21 751.24 414.79C750.2 414.37 749.33 413.8 748.63 413.08C747.95 412.34 747.44 411.47 747.1 410.47C746.78 409.47 746.62 408.39 746.62 407.23ZM757.12 405.52C757.1 405.14 757.03 404.77 756.91 404.41C756.81 404.05 756.64 403.73 756.4 403.45C756.18 403.17 755.89 402.94 755.53 402.76C755.19 402.58 754.76 402.49 754.24 402.49C753.74 402.49 753.31 402.58 752.95 402.76C752.59 402.92 752.29 403.14 752.05 403.42C751.81 403.7 751.62 404.03 751.48 404.41C751.36 404.77 751.27 405.14 751.21 405.52H757.12ZM763.539 404.02H772.239V408.07H763.539V404.02ZM779.614 411.79C780.434 411.79 781.014 411.71 781.354 411.55C781.694 411.39 781.864 411.08 781.864 410.62C781.864 410.26 781.644 409.95 781.204 409.69C780.764 409.41 780.094 409.1 779.194 408.76C778.494 408.5 777.854 408.23 777.274 407.95C776.714 407.67 776.234 407.34 775.834 406.96C775.434 406.56 775.124 406.09 774.904 405.55C774.684 405.01 774.574 404.36 774.574 403.6C774.574 402.12 775.124 400.95 776.224 400.09C777.324 399.23 778.834 398.8 780.754 398.8C781.714 398.8 782.634 398.89 783.514 399.07C784.394 399.23 785.094 399.41 785.614 399.61L784.834 403.09C784.314 402.91 783.744 402.75 783.124 402.61C782.524 402.47 781.844 402.4 781.084 402.4C779.684 402.4 778.984 402.79 778.984 403.57C778.984 403.75 779.014 403.91 779.074 404.05C779.134 404.19 779.254 404.33 779.434 404.47C779.614 404.59 779.854 404.73 780.154 404.89C780.474 405.03 780.874 405.19 781.354 405.37C782.334 405.73 783.144 406.09 783.784 406.45C784.424 406.79 784.924 407.17 785.284 407.59C785.664 407.99 785.924 408.44 786.064 408.94C786.224 409.44 786.304 410.02 786.304 410.68C786.304 412.24 785.714 413.42 784.534 414.22C783.374 415.02 781.724 415.42 779.584 415.42C778.184 415.42 777.014 415.3 776.074 415.06C775.154 414.82 774.514 414.62 774.154 414.46L774.904 410.83C775.664 411.13 776.444 411.37 777.244 411.55C778.044 411.71 778.834 411.79 779.614 411.79ZM788.895 407.23C788.895 405.83 789.105 404.61 789.525 403.57C789.965 402.51 790.535 401.63 791.235 400.93C791.935 400.23 792.735 399.7 793.635 399.34C794.555 398.98 795.495 398.8 796.455 398.8C798.695 398.8 800.465 399.49 801.765 400.87C803.065 402.23 803.715 404.24 803.715 406.9C803.715 407.16 803.705 407.45 803.685 407.77C803.665 408.07 803.645 408.34 803.625 408.58H793.485C793.585 409.5 794.015 410.23 794.775 410.77C795.535 411.31 796.555 411.58 797.835 411.58C798.655 411.58 799.455 411.51 800.235 411.37C801.035 411.21 801.685 411.02 802.185 410.8L802.785 414.43C802.545 414.55 802.225 414.67 801.825 414.79C801.425 414.91 800.975 415.01 800.475 415.09C799.995 415.19 799.475 415.27 798.915 415.33C798.355 415.39 797.795 415.42 797.235 415.42C795.815 415.42 794.575 415.21 793.515 414.79C792.475 414.37 791.605 413.8 790.905 413.08C790.225 412.34 789.715 411.47 789.375 410.47C789.055 409.47 788.895 408.39 788.895 407.23ZM799.395 405.52C799.375 405.14 799.305 404.77 799.185 404.41C799.085 404.05 798.915 403.73 798.675 403.45C798.455 403.17 798.165 402.94 797.805 402.76C797.465 402.58 797.035 402.49 796.515 402.49C796.015 402.49 795.585 402.58 795.225 402.76C794.865 402.92 794.565 403.14 794.325 403.42C794.085 403.7 793.895 404.03 793.755 404.41C793.635 404.77 793.545 405.14 793.485 405.52H799.395Z" fill="#3E3E3E"/>
<rect x="571" y="445" width="298" height="36" rx="5" fill="white"/>
<rect x="571.5" y="445.5" width="297" height="35" rx="4.5" stroke="#666666" stroke-opacity="0.15"/>
<rect x="571" y="491" width="298" height="36" rx="5" fill="white"/>
<rect x="571.5" y="491.5" width="297" height="35" rx="4.5" stroke="#666666" stroke-opacity="0.15"/>
<rect x="571" y="537" width="298" height="36" rx="5" fill="white"/>
<rect x="571.5" y="537.5" width="297" height="35" rx="4.5" stroke="#666666" stroke-opacity="0.15"/>
<path d="M586.48 457.912V458.856H582.928V469H581.84V458.856H578.288V457.912H586.48ZM589.182 469H588.142V460.728H589.182V469ZM590.878 457.448L588.142 459.672L587.614 459.064L590.142 456.632L590.878 457.448ZM592.914 460.728H596.211V461.608H592.914V466.008C592.914 466.477 592.952 466.861 593.027 467.16C593.112 467.448 593.229 467.672 593.379 467.832C593.528 467.992 593.709 468.099 593.923 468.152C594.136 468.205 594.371 468.232 594.627 468.232C595.064 468.232 595.416 468.184 595.683 468.088C595.949 467.981 596.157 467.885 596.307 467.8L596.563 468.664C596.413 468.76 596.152 468.872 595.779 469C595.405 469.117 595 469.176 594.562 469.176C594.051 469.176 593.619 469.112 593.267 468.984C592.925 468.845 592.648 468.643 592.435 468.376C592.232 468.099 592.088 467.757 592.003 467.352C591.917 466.947 591.875 466.467 591.875 465.912V458.296L592.914 458.104V460.728ZM604.478 468.712C604.169 468.797 603.753 468.893 603.23 469C602.707 469.107 602.067 469.16 601.31 469.16C600.691 469.16 600.174 469.069 599.758 468.888C599.342 468.707 599.006 468.451 598.75 468.12C598.494 467.789 598.307 467.389 598.19 466.92C598.083 466.451 598.03 465.933 598.03 465.368V460.728H599.07V465.032C599.07 465.619 599.113 466.115 599.198 466.52C599.283 466.925 599.422 467.256 599.614 467.512C599.806 467.757 600.051 467.939 600.35 468.056C600.659 468.163 601.033 468.216 601.47 468.216C601.961 468.216 602.387 468.189 602.75 468.136C603.113 468.083 603.342 468.035 603.438 467.992V460.728H604.478V468.712ZM609.331 469.144C608.979 469.133 608.67 469.085 608.403 469C608.147 468.925 607.929 468.808 607.747 468.648C607.577 468.477 607.443 468.264 607.347 468.008C607.262 467.741 607.219 467.411 607.219 467.016V456.776L608.259 456.584V466.984C608.259 467.24 608.281 467.448 608.323 467.608C608.377 467.757 608.451 467.88 608.547 467.976C608.643 468.061 608.766 468.125 608.915 468.168C609.075 468.211 609.262 468.248 609.475 468.28L609.331 469.144ZM618.37 464.872C618.37 465.523 618.274 466.115 618.082 466.648C617.9 467.181 617.639 467.635 617.298 468.008C616.967 468.381 616.572 468.675 616.114 468.888C615.655 469.091 615.148 469.192 614.594 469.192C614.039 469.192 613.532 469.091 613.074 468.888C612.615 468.675 612.215 468.381 611.874 468.008C611.543 467.635 611.282 467.181 611.09 466.648C610.908 466.115 610.818 465.523 610.818 464.872C610.818 464.221 610.908 463.629 611.09 463.096C611.282 462.563 611.543 462.109 611.874 461.736C612.215 461.352 612.615 461.059 613.074 460.856C613.532 460.643 614.039 460.536 614.594 460.536C615.148 460.536 615.655 460.643 616.114 460.856C616.572 461.059 616.967 461.352 617.298 461.736C617.639 462.109 617.9 462.563 618.082 463.096C618.274 463.629 618.37 464.221 618.37 464.872ZM617.266 464.872C617.266 463.837 617.026 463.016 616.546 462.408C616.066 461.789 615.415 461.48 614.594 461.48C613.772 461.48 613.122 461.789 612.642 462.408C612.162 463.016 611.922 463.837 611.922 464.872C611.922 465.907 612.162 466.728 612.642 467.336C613.122 467.944 613.772 468.248 614.594 468.248C615.415 468.248 616.066 467.944 616.546 467.336C617.026 466.728 617.266 465.907 617.266 464.872ZM630.843 468.744C630.533 468.851 630.139 468.952 629.659 469.048C629.179 469.144 628.571 469.192 627.835 469.192C627.227 469.192 626.672 469.096 626.171 468.904C625.68 468.701 625.253 468.413 624.891 468.04C624.539 467.667 624.261 467.213 624.059 466.68C623.867 466.147 623.771 465.544 623.771 464.872C623.771 464.243 623.851 463.667 624.011 463.144C624.181 462.611 624.427 462.152 624.747 461.768C625.067 461.384 625.456 461.085 625.915 460.872C626.384 460.659 626.917 460.552 627.515 460.552C628.059 460.552 628.528 460.632 628.923 460.792C629.328 460.941 629.621 461.085 629.803 461.224V456.776L630.843 456.584V468.744ZM629.803 462.232C629.707 462.157 629.584 462.077 629.435 461.992C629.296 461.907 629.131 461.827 628.939 461.752C628.747 461.677 628.539 461.619 628.315 461.576C628.091 461.523 627.856 461.496 627.611 461.496C627.099 461.496 626.667 461.587 626.315 461.768C625.973 461.949 625.696 462.195 625.483 462.504C625.269 462.803 625.115 463.16 625.019 463.576C624.923 463.981 624.875 464.413 624.875 464.872C624.875 465.96 625.147 466.797 625.691 467.384C626.235 467.96 626.955 468.248 627.851 468.248C628.363 468.248 628.773 468.227 629.083 468.184C629.403 468.131 629.643 468.077 629.803 468.024V462.232ZM640.651 464.872C640.651 465.523 640.555 466.115 640.363 466.648C640.181 467.181 639.92 467.635 639.579 468.008C639.248 468.381 638.853 468.675 638.395 468.888C637.936 469.091 637.429 469.192 636.875 469.192C636.32 469.192 635.813 469.091 635.355 468.888C634.896 468.675 634.496 468.381 634.155 468.008C633.824 467.635 633.563 467.181 633.371 466.648C633.189 466.115 633.099 465.523 633.099 464.872C633.099 464.221 633.189 463.629 633.371 463.096C633.563 462.563 633.824 462.109 634.155 461.736C634.496 461.352 634.896 461.059 635.355 460.856C635.813 460.643 636.32 460.536 636.875 460.536C637.429 460.536 637.936 460.643 638.395 460.856C638.853 461.059 639.248 461.352 639.579 461.736C639.92 462.109 640.181 462.563 640.363 463.096C640.555 463.629 640.651 464.221 640.651 464.872ZM639.547 464.872C639.547 463.837 639.307 463.016 638.827 462.408C638.347 461.789 637.696 461.48 636.875 461.48C636.053 461.48 635.403 461.789 634.923 462.408C634.443 463.016 634.203 463.837 634.203 464.872C634.203 465.907 634.443 466.728 634.923 467.336C635.403 467.944 636.053 468.248 636.875 468.248C637.696 468.248 638.347 467.944 638.827 467.336C639.307 466.728 639.547 465.907 639.547 464.872ZM649.364 460.568C649.705 460.568 650.025 460.595 650.324 460.648C650.633 460.701 650.847 460.755 650.964 460.808L650.756 461.704C650.671 461.661 650.495 461.619 650.228 461.576C649.972 461.523 649.631 461.496 649.204 461.496C648.756 461.496 648.393 461.528 648.116 461.592C647.849 461.656 647.673 461.709 647.588 461.752V469H646.548V461.112C646.815 460.995 647.183 460.877 647.652 460.76C648.121 460.632 648.692 460.568 649.364 460.568ZM652.036 464.856C652.036 464.131 652.138 463.501 652.34 462.968C652.554 462.424 652.826 461.971 653.156 461.608C653.498 461.245 653.882 460.979 654.308 460.808C654.746 460.627 655.194 460.536 655.652 460.536C656.666 460.536 657.471 460.867 658.068 461.528C658.676 462.189 658.98 463.208 658.98 464.584C658.98 464.669 658.975 464.755 658.964 464.84C658.964 464.925 658.959 465.005 658.948 465.08H653.14C653.172 466.093 653.423 466.872 653.892 467.416C654.362 467.96 655.108 468.232 656.132 468.232C656.698 468.232 657.146 468.179 657.476 468.072C657.807 467.965 658.047 467.875 658.196 467.8L658.388 468.696C658.239 468.781 657.956 468.883 657.54 469C657.135 469.117 656.655 469.176 656.1 469.176C655.375 469.176 654.756 469.069 654.244 468.856C653.732 468.643 653.311 468.344 652.98 467.96C652.65 467.576 652.41 467.123 652.26 466.6C652.111 466.067 652.036 465.485 652.036 464.856ZM657.908 464.2C657.887 463.336 657.684 462.664 657.3 462.184C656.916 461.704 656.372 461.464 655.668 461.464C655.295 461.464 654.959 461.539 654.66 461.688C654.372 461.837 654.116 462.04 653.892 462.296C653.679 462.541 653.508 462.829 653.38 463.16C653.263 463.491 653.194 463.837 653.172 464.2H657.908ZM663.794 467.88C664.018 467.421 664.247 466.899 664.482 466.312C664.717 465.715 664.941 465.101 665.154 464.472C665.378 463.832 665.581 463.192 665.762 462.552C665.954 461.901 666.114 461.293 666.242 460.728H667.282C667.09 461.485 666.877 462.232 666.642 462.968C666.407 463.704 666.157 464.424 665.89 465.128C665.634 465.832 665.362 466.509 665.074 467.16C664.797 467.811 664.525 468.424 664.258 469H663.266C662.989 468.424 662.711 467.811 662.434 467.16C662.157 466.509 661.885 465.832 661.618 465.128C661.362 464.424 661.117 463.704 660.882 462.968C660.647 462.232 660.434 461.485 660.242 460.728H661.346C661.474 461.293 661.629 461.901 661.81 462.552C662.002 463.192 662.205 463.832 662.418 464.472C662.642 465.101 662.871 465.715 663.106 466.312C663.341 466.899 663.57 467.421 663.794 467.88ZM670.025 469H668.985V460.728H670.025V469ZM670.265 458.232C670.265 458.477 670.191 458.675 670.041 458.824C669.892 458.963 669.711 459.032 669.497 459.032C669.284 459.032 669.103 458.963 668.953 458.824C668.804 458.675 668.729 458.477 668.729 458.232C668.729 457.987 668.804 457.795 668.953 457.656C669.103 457.507 669.284 457.432 669.497 457.432C669.711 457.432 669.892 457.507 670.041 457.656C670.191 457.795 670.265 457.987 670.265 458.232ZM672.286 464.856C672.286 464.131 672.388 463.501 672.59 462.968C672.804 462.424 673.076 461.971 673.406 461.608C673.748 461.245 674.132 460.979 674.558 460.808C674.996 460.627 675.444 460.536 675.902 460.536C676.916 460.536 677.721 460.867 678.318 461.528C678.926 462.189 679.23 463.208 679.23 464.584C679.23 464.669 679.225 464.755 679.214 464.84C679.214 464.925 679.209 465.005 679.198 465.08H673.39C673.422 466.093 673.673 466.872 674.142 467.416C674.612 467.96 675.358 468.232 676.382 468.232C676.948 468.232 677.396 468.179 677.726 468.072C678.057 467.965 678.297 467.875 678.446 467.8L678.638 468.696C678.489 468.781 678.206 468.883 677.79 469C677.385 469.117 676.905 469.176 676.35 469.176C675.625 469.176 675.006 469.069 674.494 468.856C673.982 468.643 673.561 468.344 673.23 467.96C672.9 467.576 672.66 467.123 672.51 466.6C672.361 466.067 672.286 465.485 672.286 464.856ZM678.158 464.2C678.137 463.336 677.934 462.664 677.55 462.184C677.166 461.704 676.622 461.464 675.918 461.464C675.545 461.464 675.209 461.539 674.91 461.688C674.622 461.837 674.366 462.04 674.142 462.296C673.929 462.541 673.758 462.829 673.63 463.16C673.513 463.491 673.444 463.837 673.422 464.2H678.158ZM686.876 460.728C686.972 461.261 687.095 461.832 687.244 462.44C687.404 463.037 687.575 463.651 687.756 464.28C687.948 464.899 688.145 465.512 688.348 466.12C688.561 466.728 688.775 467.299 688.988 467.832C689.169 467.427 689.361 466.936 689.564 466.36C689.767 465.773 689.969 465.16 690.172 464.52C690.375 463.869 690.561 463.219 690.732 462.568C690.913 461.907 691.063 461.293 691.18 460.728H692.204C691.82 462.349 691.399 463.832 690.94 465.176C690.492 466.52 689.996 467.795 689.452 469H688.476C688.316 468.627 688.145 468.211 687.964 467.752C687.793 467.283 687.612 466.787 687.42 466.264C687.239 465.731 687.057 465.176 686.876 464.6C686.705 464.013 686.54 463.416 686.38 462.808C686.22 463.416 686.049 464.013 685.868 464.6C685.697 465.176 685.516 465.731 685.324 466.264C685.143 466.787 684.961 467.283 684.78 467.752C684.609 468.211 684.444 468.627 684.284 469H683.292C682.748 467.795 682.247 466.52 681.788 465.176C681.34 463.832 680.924 462.349 680.54 460.728H681.644C681.761 461.293 681.905 461.907 682.076 462.568C682.257 463.219 682.449 463.869 682.652 464.52C682.855 465.16 683.057 465.768 683.26 466.344C683.473 466.92 683.671 467.411 683.852 467.816C684.055 467.283 684.257 466.712 684.46 466.104C684.673 465.496 684.871 464.883 685.052 464.264C685.233 463.645 685.404 463.037 685.564 462.44C685.724 461.832 685.863 461.261 685.98 460.728H686.876Z" fill="black" fill-opacity="0.2"/>
<path d="M584.048 515.24C583.333 515.24 582.667 515.112 582.048 514.856C581.44 514.6 580.907 514.227 580.448 513.736C580 513.245 579.643 512.643 579.376 511.928C579.12 511.203 578.992 510.376 578.992 509.448C578.992 508.52 579.131 507.699 579.408 506.984C579.696 506.259 580.075 505.651 580.544 505.16C581.013 504.669 581.557 504.301 582.176 504.056C582.795 503.8 583.44 503.672 584.112 503.672C584.528 503.672 584.907 503.699 585.248 503.752C585.589 503.805 585.888 503.875 586.144 503.96C586.4 504.035 586.619 504.115 586.8 504.2C586.981 504.275 587.12 504.344 587.216 504.408L586.864 505.352C586.597 505.192 586.256 505.037 585.84 504.888C585.435 504.728 584.928 504.648 584.32 504.648C583.627 504.648 583.019 504.765 582.496 505C581.984 505.235 581.552 505.565 581.2 505.992C580.848 506.419 580.581 506.925 580.4 507.512C580.229 508.099 580.144 508.749 580.144 509.464C580.144 510.2 580.229 510.867 580.4 511.464C580.581 512.051 580.843 512.552 581.184 512.968C581.525 513.384 581.941 513.704 582.432 513.928C582.933 514.152 583.504 514.264 584.144 514.264C584.848 514.264 585.435 514.2 585.904 514.072C586.384 513.933 586.747 513.795 586.992 513.656L587.296 514.584C587.221 514.637 587.093 514.701 586.912 514.776C586.731 514.84 586.501 514.909 586.224 514.984C585.947 515.059 585.627 515.117 585.264 515.16C584.901 515.213 584.496 515.24 584.048 515.24ZM591.734 514.248C592.139 514.248 592.491 514.237 592.79 514.216C593.099 514.184 593.361 514.147 593.574 514.104V511.192C593.457 511.139 593.27 511.085 593.014 511.032C592.758 510.968 592.406 510.936 591.958 510.936C591.702 510.936 591.435 510.957 591.158 511C590.881 511.032 590.625 511.112 590.39 511.24C590.155 511.357 589.963 511.523 589.814 511.736C589.665 511.949 589.59 512.232 589.59 512.584C589.59 512.893 589.638 513.155 589.734 513.368C589.841 513.581 589.985 513.752 590.166 513.88C590.358 514.008 590.582 514.104 590.838 514.168C591.105 514.221 591.403 514.248 591.734 514.248ZM591.638 506.536C592.182 506.536 592.641 506.616 593.014 506.776C593.398 506.925 593.707 507.139 593.942 507.416C594.177 507.683 594.347 508.003 594.454 508.376C594.561 508.749 594.614 509.155 594.614 509.592V514.808C594.507 514.84 594.353 514.877 594.15 514.92C593.947 514.952 593.713 514.989 593.446 515.032C593.179 515.075 592.881 515.107 592.55 515.128C592.23 515.16 591.899 515.176 591.558 515.176C591.121 515.176 590.715 515.128 590.342 515.032C589.979 514.936 589.659 514.787 589.382 514.584C589.115 514.371 588.902 514.104 588.742 513.784C588.593 513.453 588.518 513.053 588.518 512.584C588.518 512.136 588.603 511.752 588.774 511.432C588.945 511.112 589.185 510.851 589.494 510.648C589.803 510.435 590.171 510.28 590.598 510.184C591.025 510.088 591.489 510.04 591.99 510.04C592.139 510.04 592.294 510.051 592.454 510.072C592.625 510.083 592.785 510.104 592.934 510.136C593.094 510.157 593.227 510.184 593.334 510.216C593.451 510.237 593.531 510.259 593.574 510.28V509.768C593.574 509.48 593.553 509.203 593.51 508.936C593.467 508.659 593.371 508.413 593.222 508.2C593.083 507.976 592.881 507.8 592.614 507.672C592.358 507.533 592.017 507.464 591.59 507.464C590.982 507.464 590.529 507.507 590.23 507.592C589.931 507.677 589.713 507.747 589.574 507.8L589.43 506.888C589.611 506.803 589.889 506.723 590.262 506.648C590.646 506.573 591.105 506.536 591.638 506.536ZM598.243 506.728H601.539V507.608H598.243V512.008C598.243 512.477 598.28 512.861 598.355 513.16C598.44 513.448 598.557 513.672 598.707 513.832C598.856 513.992 599.037 514.099 599.251 514.152C599.464 514.205 599.699 514.232 599.955 514.232C600.392 514.232 600.744 514.184 601.011 514.088C601.277 513.981 601.485 513.885 601.635 513.8L601.891 514.664C601.741 514.76 601.48 514.872 601.107 515C600.733 515.117 600.328 515.176 599.891 515.176C599.379 515.176 598.947 515.112 598.595 514.984C598.253 514.845 597.976 514.643 597.763 514.376C597.56 514.099 597.416 513.757 597.331 513.352C597.245 512.947 597.203 512.467 597.203 511.912V504.296L598.243 504.104V506.728ZM602.958 510.856C602.958 510.131 603.059 509.501 603.262 508.968C603.475 508.424 603.747 507.971 604.078 507.608C604.419 507.245 604.803 506.979 605.23 506.808C605.667 506.627 606.115 506.536 606.574 506.536C607.587 506.536 608.393 506.867 608.99 507.528C609.598 508.189 609.902 509.208 609.902 510.584C609.902 510.669 609.897 510.755 609.886 510.84C609.886 510.925 609.881 511.005 609.87 511.08H604.062C604.094 512.093 604.345 512.872 604.814 513.416C605.283 513.96 606.03 514.232 607.054 514.232C607.619 514.232 608.067 514.179 608.398 514.072C608.729 513.965 608.969 513.875 609.118 513.8L609.31 514.696C609.161 514.781 608.878 514.883 608.462 515C608.057 515.117 607.577 515.176 607.022 515.176C606.297 515.176 605.678 515.069 605.166 514.856C604.654 514.643 604.233 514.344 603.902 513.96C603.571 513.576 603.331 513.123 603.182 512.6C603.033 512.067 602.958 511.485 602.958 510.856ZM608.83 510.2C608.809 509.336 608.606 508.664 608.222 508.184C607.838 507.704 607.294 507.464 606.59 507.464C606.217 507.464 605.881 507.539 605.582 507.688C605.294 507.837 605.038 508.04 604.814 508.296C604.601 508.541 604.43 508.829 604.302 509.16C604.185 509.491 604.115 509.837 604.094 510.2H608.83ZM617.612 514.04C617.548 514.093 617.452 514.157 617.324 514.232C617.196 514.296 617.036 514.365 616.844 514.44C616.662 514.515 616.449 514.579 616.204 514.632C615.969 514.675 615.702 514.696 615.404 514.696C614.924 514.696 614.46 514.621 614.012 514.472C613.564 514.323 613.169 514.088 612.828 513.768C612.497 513.448 612.23 513.037 612.028 512.536C611.825 512.024 611.724 511.405 611.724 510.68C611.724 510.093 611.814 509.549 611.996 509.048C612.177 508.547 612.433 508.115 612.764 507.752C613.105 507.379 613.516 507.091 613.996 506.888C614.486 506.675 615.036 506.568 615.644 506.568C616.412 506.568 617.025 506.621 617.484 506.728C617.953 506.824 618.337 506.92 618.636 507.016V514.568C618.636 515.805 618.316 516.685 617.676 517.208C617.036 517.741 616.07 518.008 614.78 518.008C614.246 518.008 613.761 517.965 613.324 517.88C612.897 517.805 612.529 517.715 612.22 517.608L612.428 516.664C612.684 516.781 613.03 516.883 613.468 516.968C613.916 517.053 614.364 517.096 614.812 517.096C615.793 517.096 616.502 516.904 616.94 516.52C617.388 516.147 617.612 515.501 617.612 514.584V514.04ZM617.596 507.736C617.414 507.683 617.18 507.635 616.892 507.592C616.604 507.539 616.193 507.512 615.66 507.512C615.212 507.512 614.812 507.592 614.46 507.752C614.118 507.901 613.825 508.12 613.58 508.408C613.334 508.685 613.148 509.021 613.02 509.416C612.892 509.8 612.828 510.227 612.828 510.696C612.828 511.24 612.902 511.709 613.052 512.104C613.201 512.488 613.393 512.803 613.628 513.048C613.873 513.293 614.15 513.475 614.46 513.592C614.769 513.699 615.084 513.752 615.404 513.752C615.873 513.752 616.3 513.683 616.684 513.544C617.078 513.405 617.382 513.245 617.596 513.064V507.736ZM628.448 510.872C628.448 511.523 628.352 512.115 628.16 512.648C627.978 513.181 627.717 513.635 627.376 514.008C627.045 514.381 626.65 514.675 626.192 514.888C625.733 515.091 625.226 515.192 624.672 515.192C624.117 515.192 623.61 515.091 623.152 514.888C622.693 514.675 622.293 514.381 621.952 514.008C621.621 513.635 621.36 513.181 621.168 512.648C620.986 512.115 620.896 511.523 620.896 510.872C620.896 510.221 620.986 509.629 621.168 509.096C621.36 508.563 621.621 508.109 621.952 507.736C622.293 507.352 622.693 507.059 623.152 506.856C623.61 506.643 624.117 506.536 624.672 506.536C625.226 506.536 625.733 506.643 626.192 506.856C626.65 507.059 627.045 507.352 627.376 507.736C627.717 508.109 627.978 508.563 628.16 509.096C628.352 509.629 628.448 510.221 628.448 510.872ZM627.344 510.872C627.344 509.837 627.104 509.016 626.624 508.408C626.144 507.789 625.493 507.48 624.672 507.48C623.85 507.48 623.2 507.789 622.72 508.408C622.24 509.016 622 509.837 622 510.872C622 511.907 622.24 512.728 622.72 513.336C623.2 513.944 623.85 514.248 624.672 514.248C625.493 514.248 626.144 513.944 626.624 513.336C627.104 512.728 627.344 511.907 627.344 510.872ZM633.52 506.568C633.861 506.568 634.181 506.595 634.48 506.648C634.789 506.701 635.003 506.755 635.12 506.808L634.912 507.704C634.827 507.661 634.651 507.619 634.384 507.576C634.128 507.523 633.787 507.496 633.36 507.496C632.912 507.496 632.549 507.528 632.272 507.592C632.005 507.656 631.829 507.709 631.744 507.752V515H630.704V507.112C630.971 506.995 631.339 506.877 631.808 506.76C632.277 506.632 632.848 506.568 633.52 506.568ZM637.729 515H636.689V506.728H637.729V515ZM637.969 504.232C637.969 504.477 637.894 504.675 637.745 504.824C637.595 504.963 637.414 505.032 637.201 505.032C636.987 505.032 636.806 504.963 636.657 504.824C636.507 504.675 636.433 504.477 636.433 504.232C636.433 503.987 636.507 503.795 636.657 503.656C636.806 503.507 636.987 503.432 637.201 503.432C637.414 503.432 637.595 503.507 637.745 503.656C637.894 503.795 637.969 503.987 637.969 504.232ZM643.093 514.248C643.499 514.248 643.851 514.237 644.149 514.216C644.459 514.184 644.72 514.147 644.933 514.104V511.192C644.816 511.139 644.629 511.085 644.373 511.032C644.117 510.968 643.765 510.936 643.317 510.936C643.061 510.936 642.795 510.957 642.517 511C642.24 511.032 641.984 511.112 641.749 511.24C641.515 511.357 641.323 511.523 641.173 511.736C641.024 511.949 640.949 512.232 640.949 512.584C640.949 512.893 640.997 513.155 641.093 513.368C641.2 513.581 641.344 513.752 641.525 513.88C641.717 514.008 641.941 514.104 642.197 514.168C642.464 514.221 642.763 514.248 643.093 514.248ZM642.997 506.536C643.541 506.536 644 506.616 644.373 506.776C644.757 506.925 645.067 507.139 645.301 507.416C645.536 507.683 645.707 508.003 645.813 508.376C645.92 508.749 645.973 509.155 645.973 509.592V514.808C645.867 514.84 645.712 514.877 645.509 514.92C645.307 514.952 645.072 514.989 644.805 515.032C644.539 515.075 644.24 515.107 643.909 515.128C643.589 515.16 643.259 515.176 642.917 515.176C642.48 515.176 642.075 515.128 641.701 515.032C641.339 514.936 641.019 514.787 640.741 514.584C640.475 514.371 640.261 514.104 640.101 513.784C639.952 513.453 639.877 513.053 639.877 512.584C639.877 512.136 639.963 511.752 640.133 511.432C640.304 511.112 640.544 510.851 640.853 510.648C641.163 510.435 641.531 510.28 641.957 510.184C642.384 510.088 642.848 510.04 643.349 510.04C643.499 510.04 643.653 510.051 643.813 510.072C643.984 510.083 644.144 510.104 644.293 510.136C644.453 510.157 644.587 510.184 644.693 510.216C644.811 510.237 644.891 510.259 644.933 510.28V509.768C644.933 509.48 644.912 509.203 644.869 508.936C644.827 508.659 644.731 508.413 644.581 508.2C644.443 507.976 644.24 507.8 643.973 507.672C643.717 507.533 643.376 507.464 642.949 507.464C642.341 507.464 641.888 507.507 641.589 507.592C641.291 507.677 641.072 507.747 640.933 507.8L640.789 506.888C640.971 506.803 641.248 506.723 641.621 506.648C642.005 506.573 642.464 506.536 642.997 506.536ZM658.843 514.744C658.533 514.851 658.139 514.952 657.659 515.048C657.179 515.144 656.571 515.192 655.835 515.192C655.227 515.192 654.672 515.096 654.171 514.904C653.68 514.701 653.253 514.413 652.891 514.04C652.539 513.667 652.261 513.213 652.059 512.68C651.867 512.147 651.771 511.544 651.771 510.872C651.771 510.243 651.851 509.667 652.011 509.144C652.181 508.611 652.427 508.152 652.747 507.768C653.067 507.384 653.456 507.085 653.915 506.872C654.384 506.659 654.917 506.552 655.515 506.552C656.059 506.552 656.528 506.632 656.923 506.792C657.328 506.941 657.621 507.085 657.803 507.224V502.776L658.843 502.584V514.744ZM657.803 508.232C657.707 508.157 657.584 508.077 657.435 507.992C657.296 507.907 657.131 507.827 656.939 507.752C656.747 507.677 656.539 507.619 656.315 507.576C656.091 507.523 655.856 507.496 655.611 507.496C655.099 507.496 654.667 507.587 654.315 507.768C653.973 507.949 653.696 508.195 653.483 508.504C653.269 508.803 653.115 509.16 653.019 509.576C652.923 509.981 652.875 510.413 652.875 510.872C652.875 511.96 653.147 512.797 653.691 513.384C654.235 513.96 654.955 514.248 655.851 514.248C656.363 514.248 656.773 514.227 657.083 514.184C657.403 514.131 657.643 514.077 657.803 514.024V508.232ZM668.651 510.872C668.651 511.523 668.555 512.115 668.363 512.648C668.181 513.181 667.92 513.635 667.579 514.008C667.248 514.381 666.853 514.675 666.395 514.888C665.936 515.091 665.429 515.192 664.875 515.192C664.32 515.192 663.813 515.091 663.355 514.888C662.896 514.675 662.496 514.381 662.155 514.008C661.824 513.635 661.563 513.181 661.371 512.648C661.189 512.115 661.099 511.523 661.099 510.872C661.099 510.221 661.189 509.629 661.371 509.096C661.563 508.563 661.824 508.109 662.155 507.736C662.496 507.352 662.896 507.059 663.355 506.856C663.813 506.643 664.32 506.536 664.875 506.536C665.429 506.536 665.936 506.643 666.395 506.856C666.853 507.059 667.248 507.352 667.579 507.736C667.92 508.109 668.181 508.563 668.363 509.096C668.555 509.629 668.651 510.221 668.651 510.872ZM667.547 510.872C667.547 509.837 667.307 509.016 666.827 508.408C666.347 507.789 665.696 507.48 664.875 507.48C664.053 507.48 663.403 507.789 662.923 508.408C662.443 509.016 662.203 509.837 662.203 510.872C662.203 511.907 662.443 512.728 662.923 513.336C663.403 513.944 664.053 514.248 664.875 514.248C665.696 514.248 666.347 513.944 666.827 513.336C667.307 512.728 667.547 511.907 667.547 510.872ZM677.364 506.568C677.705 506.568 678.025 506.595 678.324 506.648C678.633 506.701 678.847 506.755 678.964 506.808L678.756 507.704C678.671 507.661 678.495 507.619 678.228 507.576C677.972 507.523 677.631 507.496 677.204 507.496C676.756 507.496 676.393 507.528 676.116 507.592C675.849 507.656 675.673 507.709 675.588 507.752V515H674.548V507.112C674.815 506.995 675.183 506.877 675.652 506.76C676.121 506.632 676.692 506.568 677.364 506.568ZM680.036 510.856C680.036 510.131 680.138 509.501 680.34 508.968C680.554 508.424 680.826 507.971 681.156 507.608C681.498 507.245 681.882 506.979 682.308 506.808C682.746 506.627 683.194 506.536 683.652 506.536C684.666 506.536 685.471 506.867 686.068 507.528C686.676 508.189 686.98 509.208 686.98 510.584C686.98 510.669 686.975 510.755 686.964 510.84C686.964 510.925 686.959 511.005 686.948 511.08H681.14C681.172 512.093 681.423 512.872 681.892 513.416C682.362 513.96 683.108 514.232 684.132 514.232C684.698 514.232 685.146 514.179 685.476 514.072C685.807 513.965 686.047 513.875 686.196 513.8L686.388 514.696C686.239 514.781 685.956 514.883 685.54 515C685.135 515.117 684.655 515.176 684.1 515.176C683.375 515.176 682.756 515.069 682.244 514.856C681.732 514.643 681.311 514.344 680.98 513.96C680.65 513.576 680.41 513.123 680.26 512.6C680.111 512.067 680.036 511.485 680.036 510.856ZM685.908 510.2C685.887 509.336 685.684 508.664 685.3 508.184C684.916 507.704 684.372 507.464 683.668 507.464C683.295 507.464 682.959 507.539 682.66 507.688C682.372 507.837 682.116 508.04 681.892 508.296C681.679 508.541 681.508 508.829 681.38 509.16C681.263 509.491 681.194 509.837 681.172 510.2H685.908ZM691.794 513.88C692.018 513.421 692.247 512.899 692.482 512.312C692.717 511.715 692.941 511.101 693.154 510.472C693.378 509.832 693.581 509.192 693.762 508.552C693.954 507.901 694.114 507.293 694.242 506.728H695.282C695.09 507.485 694.877 508.232 694.642 508.968C694.407 509.704 694.157 510.424 693.89 511.128C693.634 511.832 693.362 512.509 693.074 513.16C692.797 513.811 692.525 514.424 692.258 515H691.266C690.989 514.424 690.711 513.811 690.434 513.16C690.157 512.509 689.885 511.832 689.618 511.128C689.362 510.424 689.117 509.704 688.882 508.968C688.647 508.232 688.434 507.485 688.242 506.728H689.346C689.474 507.293 689.629 507.901 689.81 508.552C690.002 509.192 690.205 509.832 690.418 510.472C690.642 511.101 690.871 511.715 691.106 512.312C691.341 512.899 691.57 513.421 691.794 513.88ZM698.025 515H696.985V506.728H698.025V515ZM698.265 504.232C698.265 504.477 698.191 504.675 698.041 504.824C697.892 504.963 697.711 505.032 697.497 505.032C697.284 505.032 697.103 504.963 696.953 504.824C696.804 504.675 696.729 504.477 696.729 504.232C696.729 503.987 696.804 503.795 696.953 503.656C697.103 503.507 697.284 503.432 697.497 503.432C697.711 503.432 697.892 503.507 698.041 503.656C698.191 503.795 698.265 503.987 698.265 504.232ZM700.286 510.856C700.286 510.131 700.388 509.501 700.59 508.968C700.804 508.424 701.076 507.971 701.406 507.608C701.748 507.245 702.132 506.979 702.558 506.808C702.996 506.627 703.444 506.536 703.902 506.536C704.916 506.536 705.721 506.867 706.318 507.528C706.926 508.189 707.23 509.208 707.23 510.584C707.23 510.669 707.225 510.755 707.214 510.84C707.214 510.925 707.209 511.005 707.198 511.08H701.39C701.422 512.093 701.673 512.872 702.142 513.416C702.612 513.96 703.358 514.232 704.382 514.232C704.948 514.232 705.396 514.179 705.726 514.072C706.057 513.965 706.297 513.875 706.446 513.8L706.638 514.696C706.489 514.781 706.206 514.883 705.79 515C705.385 515.117 704.905 515.176 704.35 515.176C703.625 515.176 703.006 515.069 702.494 514.856C701.982 514.643 701.561 514.344 701.23 513.96C700.9 513.576 700.66 513.123 700.51 512.6C700.361 512.067 700.286 511.485 700.286 510.856ZM706.158 510.2C706.137 509.336 705.934 508.664 705.55 508.184C705.166 507.704 704.622 507.464 703.918 507.464C703.545 507.464 703.209 507.539 702.91 507.688C702.622 507.837 702.366 508.04 702.142 508.296C701.929 508.541 701.758 508.829 701.63 509.16C701.513 509.491 701.444 509.837 701.422 510.2H706.158ZM714.876 506.728C714.972 507.261 715.095 507.832 715.244 508.44C715.404 509.037 715.575 509.651 715.756 510.28C715.948 510.899 716.145 511.512 716.348 512.12C716.561 512.728 716.775 513.299 716.988 513.832C717.169 513.427 717.361 512.936 717.564 512.36C717.767 511.773 717.969 511.16 718.172 510.52C718.375 509.869 718.561 509.219 718.732 508.568C718.913 507.907 719.063 507.293 719.18 506.728H720.204C719.82 508.349 719.399 509.832 718.94 511.176C718.492 512.52 717.996 513.795 717.452 515H716.476C716.316 514.627 716.145 514.211 715.964 513.752C715.793 513.283 715.612 512.787 715.42 512.264C715.239 511.731 715.057 511.176 714.876 510.6C714.705 510.013 714.54 509.416 714.38 508.808C714.22 509.416 714.049 510.013 713.868 510.6C713.697 511.176 713.516 511.731 713.324 512.264C713.143 512.787 712.961 513.283 712.78 513.752C712.609 514.211 712.444 514.627 712.284 515H711.292C710.748 513.795 710.247 512.52 709.788 511.176C709.34 509.832 708.924 508.349 708.54 506.728H709.644C709.761 507.293 709.905 507.907 710.076 508.568C710.257 509.219 710.449 509.869 710.652 510.52C710.855 511.16 711.057 511.768 711.26 512.344C711.473 512.92 711.671 513.411 711.852 513.816C712.055 513.283 712.257 512.712 712.46 512.104C712.673 511.496 712.871 510.883 713.052 510.264C713.233 509.645 713.404 509.037 713.564 508.44C713.724 507.832 713.863 507.261 713.98 506.728H714.876Z" fill="black" fill-opacity="0.2"/>
<path d="M579.44 561V549.912H585.84V550.856H580.528V554.712H585.264V555.64H580.528V560.056H586.256V561H579.44ZM588.251 553.016C588.56 552.931 588.96 552.835 589.451 552.728C589.952 552.621 590.598 552.568 591.387 552.568C592.432 552.568 593.19 552.872 593.659 553.48C593.712 553.437 593.814 553.368 593.963 553.272C594.123 553.165 594.32 553.059 594.555 552.952C594.79 552.845 595.062 552.755 595.371 552.68C595.691 552.605 596.043 552.568 596.427 552.568C597.056 552.568 597.563 552.664 597.947 552.856C598.342 553.037 598.646 553.299 598.859 553.64C599.072 553.971 599.216 554.371 599.291 554.84C599.366 555.309 599.403 555.821 599.403 556.376V561H598.363V556.712C598.363 556.168 598.336 555.699 598.283 555.304C598.24 554.899 598.144 554.568 597.995 554.312C597.856 554.045 597.654 553.848 597.387 553.72C597.12 553.581 596.774 553.512 596.347 553.512C596.027 553.512 595.734 553.544 595.467 553.608C595.211 553.661 594.987 553.731 594.795 553.816C594.603 553.901 594.443 553.987 594.315 554.072C594.198 554.157 594.112 554.221 594.059 554.264C594.155 554.541 594.224 554.856 594.267 555.208C594.32 555.549 594.347 555.912 594.347 556.296V561H593.307V556.712C593.307 556.168 593.28 555.699 593.227 555.304C593.184 554.899 593.088 554.568 592.939 554.312C592.79 554.045 592.576 553.848 592.299 553.72C592.032 553.581 591.675 553.512 591.227 553.512C590.726 553.512 590.299 553.539 589.947 553.592C589.606 553.645 589.387 553.693 589.291 553.736V561H588.251V553.016ZM604.672 560.248C605.077 560.248 605.429 560.237 605.728 560.216C606.037 560.184 606.298 560.147 606.512 560.104V557.192C606.394 557.139 606.208 557.085 605.952 557.032C605.696 556.968 605.344 556.936 604.896 556.936C604.64 556.936 604.373 556.957 604.096 557C603.818 557.032 603.562 557.112 603.328 557.24C603.093 557.357 602.901 557.523 602.752 557.736C602.602 557.949 602.528 558.232 602.528 558.584C602.528 558.893 602.576 559.155 602.672 559.368C602.778 559.581 602.922 559.752 603.104 559.88C603.296 560.008 603.52 560.104 603.776 560.168C604.042 560.221 604.341 560.248 604.672 560.248ZM604.576 552.536C605.12 552.536 605.578 552.616 605.952 552.776C606.336 552.925 606.645 553.139 606.88 553.416C607.114 553.683 607.285 554.003 607.392 554.376C607.498 554.749 607.552 555.155 607.552 555.592V560.808C607.445 560.84 607.29 560.877 607.088 560.92C606.885 560.952 606.65 560.989 606.384 561.032C606.117 561.075 605.818 561.107 605.488 561.128C605.168 561.16 604.837 561.176 604.496 561.176C604.058 561.176 603.653 561.128 603.28 561.032C602.917 560.936 602.597 560.787 602.32 560.584C602.053 560.371 601.84 560.104 601.68 559.784C601.53 559.453 601.456 559.053 601.456 558.584C601.456 558.136 601.541 557.752 601.712 557.432C601.882 557.112 602.122 556.851 602.432 556.648C602.741 556.435 603.109 556.28 603.536 556.184C603.962 556.088 604.426 556.04 604.928 556.04C605.077 556.04 605.232 556.051 605.391 556.072C605.562 556.083 605.722 556.104 605.872 556.136C606.032 556.157 606.165 556.184 606.272 556.216C606.389 556.237 606.469 556.259 606.512 556.28V555.768C606.512 555.48 606.49 555.203 606.448 554.936C606.405 554.659 606.309 554.413 606.16 554.2C606.021 553.976 605.818 553.8 605.552 553.672C605.296 553.533 604.954 553.464 604.528 553.464C603.92 553.464 603.466 553.507 603.168 553.592C602.869 553.677 602.65 553.747 602.512 553.8L602.368 552.888C602.549 552.803 602.826 552.723 603.2 552.648C603.584 552.573 604.042 552.536 604.576 552.536ZM611.244 561H610.204V552.728H611.244V561ZM611.484 550.232C611.484 550.477 611.409 550.675 611.26 550.824C611.111 550.963 610.929 551.032 610.716 551.032C610.503 551.032 610.321 550.963 610.172 550.824C610.023 550.675 609.948 550.477 609.948 550.232C609.948 549.987 610.023 549.795 610.172 549.656C610.321 549.507 610.503 549.432 610.716 549.432C610.929 549.432 611.111 549.507 611.26 549.656C611.409 549.795 611.484 549.987 611.484 550.232ZM616.097 561.144C615.745 561.133 615.436 561.085 615.169 561C614.913 560.925 614.694 560.808 614.513 560.648C614.342 560.477 614.209 560.264 614.113 560.008C614.028 559.741 613.985 559.411 613.985 559.016V548.776L615.025 548.584V558.984C615.025 559.24 615.046 559.448 615.089 559.608C615.142 559.757 615.217 559.88 615.313 559.976C615.409 560.061 615.532 560.125 615.681 560.168C615.841 560.211 616.028 560.248 616.241 560.28L616.097 561.144Z" fill="black" fill-opacity="0.2"/>
<path d="M698.328 621V609.912H705.448V611.624H700.344V614.36H704.888V616.04H700.344V619.288H705.832V621H698.328ZM707.607 612.904C707.98 612.797 708.466 612.696 709.063 612.6C709.66 612.504 710.322 612.456 711.047 612.456C711.73 612.456 712.3 612.552 712.759 612.744C713.218 612.925 713.58 613.187 713.847 613.528C714.124 613.859 714.316 614.264 714.423 614.744C714.54 615.213 714.599 615.731 714.599 616.296V621H712.663V616.6C712.663 616.152 712.631 615.773 712.567 615.464C712.514 615.144 712.418 614.888 712.279 614.696C712.151 614.493 711.97 614.349 711.735 614.264C711.511 614.168 711.234 614.12 710.903 614.12C710.658 614.12 710.402 614.136 710.135 614.168C709.868 614.2 709.671 614.227 709.543 614.248V621H707.607V612.904ZM718.892 621C718.358 619.901 717.809 618.643 717.244 617.224C716.689 615.795 716.182 614.264 715.724 612.632H717.788C717.905 613.101 718.038 613.608 718.188 614.152C718.348 614.685 718.513 615.224 718.684 615.768C718.865 616.301 719.046 616.824 719.228 617.336C719.42 617.837 719.596 618.291 719.756 618.696C719.916 618.291 720.086 617.837 720.268 617.336C720.449 616.824 720.625 616.301 720.796 615.768C720.977 615.224 721.148 614.685 721.308 614.152C721.468 613.608 721.606 613.101 721.724 612.632H723.724C723.265 614.264 722.753 615.795 722.188 617.224C721.633 618.643 721.089 619.901 720.556 621H718.892ZM727.122 621H725.186V612.632H727.122V621ZM727.33 610.184C727.33 610.547 727.212 610.835 726.978 611.048C726.743 611.261 726.466 611.368 726.146 611.368C725.815 611.368 725.532 611.261 725.298 611.048C725.063 610.835 724.946 610.547 724.946 610.184C724.946 609.811 725.063 609.517 725.298 609.304C725.532 609.091 725.815 608.984 726.146 608.984C726.466 608.984 726.743 609.091 726.978 609.304C727.212 609.517 727.33 609.811 727.33 610.184ZM732.535 619.64C733.133 619.64 733.586 619.608 733.895 619.544V617.4C733.789 617.368 733.634 617.336 733.431 617.304C733.229 617.272 733.005 617.256 732.759 617.256C732.546 617.256 732.327 617.272 732.103 617.304C731.89 617.336 731.693 617.395 731.511 617.48C731.341 617.565 731.202 617.688 731.095 617.848C730.989 617.997 730.935 618.189 730.935 618.424C730.935 618.883 731.079 619.203 731.367 619.384C731.655 619.555 732.045 619.64 732.535 619.64ZM732.375 612.424C733.015 612.424 733.554 612.504 733.991 612.664C734.429 612.824 734.775 613.048 735.031 613.336C735.298 613.624 735.485 613.976 735.591 614.392C735.709 614.797 735.767 615.245 735.767 615.736V620.808C735.469 620.872 735.015 620.947 734.407 621.032C733.81 621.128 733.133 621.176 732.375 621.176C731.874 621.176 731.415 621.128 730.999 621.032C730.583 620.936 730.226 620.781 729.927 620.568C729.639 620.355 729.41 620.077 729.239 619.736C729.079 619.395 728.999 618.973 728.999 618.472C728.999 617.992 729.09 617.587 729.271 617.256C729.463 616.925 729.719 616.659 730.039 616.456C730.359 616.243 730.727 616.093 731.143 616.008C731.57 615.912 732.013 615.864 732.471 615.864C732.685 615.864 732.909 615.88 733.143 615.912C733.378 615.933 733.629 615.976 733.895 616.04V615.72C733.895 615.496 733.869 615.283 733.815 615.08C733.762 614.877 733.666 614.701 733.527 614.552C733.399 614.392 733.223 614.269 732.999 614.184C732.786 614.099 732.514 614.056 732.183 614.056C731.735 614.056 731.325 614.088 730.951 614.152C730.578 614.216 730.274 614.291 730.039 614.376L729.799 612.808C730.045 612.723 730.402 612.637 730.871 612.552C731.341 612.467 731.842 612.424 732.375 612.424ZM742.906 614.376C742.746 614.323 742.522 614.269 742.234 614.216C741.957 614.152 741.632 614.12 741.258 614.12C741.045 614.12 740.816 614.141 740.57 614.184C740.336 614.227 740.17 614.264 740.074 614.296V621H738.138V613.032C738.512 612.893 738.976 612.765 739.53 612.648C740.096 612.52 740.72 612.456 741.402 612.456C741.53 612.456 741.68 612.467 741.85 612.488C742.021 612.499 742.192 612.52 742.362 612.552C742.533 612.573 742.698 612.605 742.858 612.648C743.018 612.68 743.146 612.712 743.242 612.744L742.906 614.376Z" fill="white"/>
</svg>
