<svg width="1440" height="1024" viewBox="0 0 1440 1024" fill="none" xmlns="http://www.w3.org/2000/svg">
<rect width="1440" height="1024" fill="#F4F4F4"/>
<rect width="1440" height="74" fill="#003E8A"/>
<rect y="950" width="1440" height="74" fill="#003E8A"/>
<path d="M636.72 31.14H638.66V45H636.72V31.14ZM641.971 34.9C642.398 34.7933 642.964 34.68 643.671 34.56C644.378 34.44 645.191 34.38 646.111 34.38C646.938 34.38 647.624 34.5 648.171 34.74C648.718 34.9667 649.151 35.2933 649.471 35.72C649.804 36.1333 650.038 36.6333 650.171 37.22C650.304 37.8067 650.371 38.4533 650.371 39.16V45H648.511V39.56C648.511 38.92 648.464 38.3733 648.371 37.92C648.291 37.4667 648.151 37.1 647.951 36.82C647.751 36.54 647.484 36.34 647.151 36.22C646.818 36.0867 646.404 36.02 645.911 36.02C645.711 36.02 645.504 36.0267 645.291 36.04C645.078 36.0533 644.871 36.0733 644.671 36.1C644.484 36.1133 644.311 36.1333 644.151 36.16C644.004 36.1867 643.898 36.2067 643.831 36.22V45H641.971V34.9ZM655.315 45H653.455V34.6H655.315V45ZM656.815 30.66L653.995 33.4L653.055 32.56L655.615 29.48L656.815 30.66ZM663.034 45.24C662.194 45.24 661.454 45.1067 660.814 44.84C660.187 44.5733 659.654 44.2 659.214 43.72C658.787 43.24 658.467 42.6733 658.254 42.02C658.041 41.3533 657.934 40.62 657.934 39.82C657.934 39.02 658.047 38.2867 658.274 37.62C658.514 36.9533 658.847 36.38 659.274 35.9C659.701 35.4067 660.221 35.0267 660.834 34.76C661.461 34.48 662.154 34.34 662.914 34.34C663.381 34.34 663.847 34.38 664.314 34.46C664.781 34.54 665.227 34.6667 665.654 34.84L665.234 36.42C664.954 36.2867 664.627 36.18 664.254 36.1C663.894 36.02 663.507 35.98 663.094 35.98C662.054 35.98 661.254 36.3067 660.694 36.96C660.147 37.6133 659.874 38.5667 659.874 39.82C659.874 40.38 659.934 40.8933 660.054 41.36C660.187 41.8267 660.387 42.2267 660.654 42.56C660.934 42.8933 661.287 43.1533 661.714 43.34C662.141 43.5133 662.661 43.6 663.274 43.6C663.767 43.6 664.214 43.5533 664.614 43.46C665.014 43.3667 665.327 43.2667 665.554 43.16L665.814 44.72C665.707 44.7867 665.554 44.8533 665.354 44.92C665.154 44.9733 664.927 45.02 664.674 45.06C664.421 45.1133 664.147 45.1533 663.854 45.18C663.574 45.22 663.301 45.24 663.034 45.24ZM669.671 45H667.811V34.6H669.671V45ZM668.731 32.72C668.398 32.72 668.111 32.6133 667.871 32.4C667.644 32.1733 667.531 31.8733 667.531 31.5C667.531 31.1267 667.644 30.8333 667.871 30.62C668.111 30.3933 668.398 30.28 668.731 30.28C669.064 30.28 669.344 30.3933 669.571 30.62C669.811 30.8333 669.931 31.1267 669.931 31.5C669.931 31.8733 669.811 32.1733 669.571 32.4C669.344 32.6133 669.064 32.72 668.731 32.72ZM682.05 39.8C682.05 40.6267 681.93 41.3733 681.69 42.04C681.45 42.7067 681.11 43.28 680.67 43.76C680.243 44.24 679.73 44.6133 679.13 44.88C678.53 45.1333 677.876 45.26 677.17 45.26C676.463 45.26 675.81 45.1333 675.21 44.88C674.61 44.6133 674.09 44.24 673.65 43.76C673.223 43.28 672.89 42.7067 672.65 42.04C672.41 41.3733 672.29 40.6267 672.29 39.8C672.29 38.9867 672.41 38.2467 672.65 37.58C672.89 36.9 673.223 36.32 673.65 35.84C674.09 35.36 674.61 34.9933 675.21 34.74C675.81 34.4733 676.463 34.34 677.17 34.34C677.876 34.34 678.53 34.4733 679.13 34.74C679.73 34.9933 680.243 35.36 680.67 35.84C681.11 36.32 681.45 36.9 681.69 37.58C681.93 38.2467 682.05 38.9867 682.05 39.8ZM680.11 39.8C680.11 38.6267 679.843 37.7 679.31 37.02C678.79 36.3267 678.076 35.98 677.17 35.98C676.263 35.98 675.543 36.3267 675.01 37.02C674.49 37.7 674.23 38.6267 674.23 39.8C674.23 40.9733 674.49 41.9067 675.01 42.6C675.543 43.28 676.263 43.62 677.17 43.62C678.076 43.62 678.79 43.28 679.31 42.6C679.843 41.9067 680.11 40.9733 680.11 39.8ZM693.855 37.94C693.855 38.2867 693.795 38.6133 693.675 38.92C693.555 39.2267 693.382 39.4933 693.155 39.72C692.942 39.9467 692.675 40.1333 692.355 40.28C692.049 40.4133 691.695 40.48 691.295 40.48C690.895 40.48 690.535 40.4133 690.215 40.28C689.909 40.1333 689.642 39.9467 689.415 39.72C689.202 39.4933 689.035 39.2267 688.915 38.92C688.795 38.6133 688.735 38.2867 688.735 37.94C688.735 37.6067 688.795 37.2867 688.915 36.98C689.035 36.66 689.202 36.3867 689.415 36.16C689.642 35.9333 689.909 35.7533 690.215 35.62C690.535 35.4733 690.895 35.4 691.295 35.4C691.695 35.4 692.049 35.4733 692.355 35.62C692.675 35.7533 692.942 35.9333 693.155 36.16C693.382 36.3867 693.555 36.66 693.675 36.98C693.795 37.2867 693.855 37.6067 693.855 37.94ZM709.591 43.32V45H701.251V31.14H703.191V43.32H709.591ZM720.448 39.8C720.448 40.6267 720.328 41.3733 720.088 42.04C719.848 42.7067 719.508 43.28 719.068 43.76C718.641 44.24 718.128 44.6133 717.528 44.88C716.928 45.1333 716.275 45.26 715.568 45.26C714.861 45.26 714.208 45.1333 713.608 44.88C713.008 44.6133 712.488 44.24 712.048 43.76C711.621 43.28 711.288 42.7067 711.048 42.04C710.808 41.3733 710.688 40.6267 710.688 39.8C710.688 38.9867 710.808 38.2467 711.048 37.58C711.288 36.9 711.621 36.32 712.048 35.84C712.488 35.36 713.008 34.9933 713.608 34.74C714.208 34.4733 714.861 34.34 715.568 34.34C716.275 34.34 716.928 34.4733 717.528 34.74C718.128 34.9933 718.641 35.36 719.068 35.84C719.508 36.32 719.848 36.9 720.088 37.58C720.328 38.2467 720.448 38.9867 720.448 39.8ZM718.508 39.8C718.508 38.6267 718.241 37.7 717.708 37.02C717.188 36.3267 716.475 35.98 715.568 35.98C714.661 35.98 713.941 36.3267 713.408 37.02C712.888 37.7 712.628 38.6267 712.628 39.8C712.628 40.9733 712.888 41.9067 713.408 42.6C713.941 43.28 714.661 43.62 715.568 43.62C716.475 43.62 717.188 43.28 717.708 42.6C718.241 41.9067 718.508 40.9733 718.508 39.8ZM729.585 43.96C729.425 44.0667 729.112 44.2067 728.645 44.38C728.192 44.54 727.658 44.62 727.045 44.62C726.418 44.62 725.825 44.52 725.265 44.32C724.718 44.12 724.238 43.8133 723.825 43.4C723.412 42.9733 723.085 42.4467 722.845 41.82C722.605 41.1933 722.485 40.4467 722.485 39.58C722.485 38.82 722.598 38.1267 722.825 37.5C723.052 36.86 723.378 36.3133 723.805 35.86C724.245 35.3933 724.778 35.0333 725.405 34.78C726.032 34.5133 726.738 34.38 727.525 34.38C728.392 34.38 729.145 34.4467 729.785 34.58C730.438 34.7 730.985 34.8133 731.425 34.92V44.2C731.425 45.8 731.012 46.96 730.185 47.68C729.358 48.4 728.105 48.76 726.425 48.76C725.772 48.76 725.152 48.7067 724.565 48.6C723.992 48.4933 723.492 48.3667 723.065 48.22L723.405 46.6C723.778 46.7467 724.232 46.8733 724.765 46.98C725.312 47.1 725.878 47.16 726.465 47.16C727.572 47.16 728.365 46.94 728.845 46.5C729.338 46.06 729.585 45.36 729.585 44.4V43.96ZM729.565 36.24C729.378 36.1867 729.125 36.14 728.805 36.1C728.498 36.0467 728.078 36.02 727.545 36.02C726.545 36.02 725.772 36.3467 725.225 37C724.692 37.6533 724.425 38.52 724.425 39.6C724.425 40.2 724.498 40.7133 724.645 41.14C724.805 41.5667 725.012 41.92 725.265 42.2C725.532 42.48 725.832 42.6867 726.165 42.82C726.512 42.9533 726.865 43.02 727.225 43.02C727.718 43.02 728.172 42.9533 728.585 42.82C728.998 42.6733 729.325 42.5067 729.565 42.32V36.24ZM736.487 45H734.627V34.6H736.487V45ZM735.547 32.72C735.214 32.72 734.927 32.6133 734.687 32.4C734.461 32.1733 734.347 31.8733 734.347 31.5C734.347 31.1267 734.461 30.8333 734.687 30.62C734.927 30.3933 735.214 30.28 735.547 30.28C735.881 30.28 736.161 30.3933 736.387 30.62C736.627 30.8333 736.747 31.1267 736.747 31.5C736.747 31.8733 736.627 32.1733 736.387 32.4C736.161 32.6133 735.881 32.72 735.547 32.72ZM739.686 34.9C740.113 34.7933 740.679 34.68 741.386 34.56C742.093 34.44 742.906 34.38 743.826 34.38C744.653 34.38 745.339 34.5 745.886 34.74C746.433 34.9667 746.866 35.2933 747.186 35.72C747.519 36.1333 747.753 36.6333 747.886 37.22C748.019 37.8067 748.086 38.4533 748.086 39.16V45H746.226V39.56C746.226 38.92 746.179 38.3733 746.086 37.92C746.006 37.4667 745.866 37.1 745.666 36.82C745.466 36.54 745.199 36.34 744.866 36.22C744.533 36.0867 744.119 36.02 743.626 36.02C743.426 36.02 743.219 36.0267 743.006 36.04C742.793 36.0533 742.586 36.0733 742.386 36.1C742.199 36.1133 742.026 36.1333 741.866 36.16C741.719 36.1867 741.613 36.2067 741.546 36.22V45H739.686V34.9Z" fill="white"/>
<rect x="1210" y="19" width="150" height="37" rx="5" fill="#2E6CBA"/>
<path d="M88.49 26.97C91.61 26.97 94 27.53 95.66 28.65C97.32 29.75 98.15 31.47 98.15 33.81C98.15 35.27 97.81 36.46 97.13 37.38C96.47 38.28 95.51 38.99 94.25 39.51C94.67 40.03 95.11 40.63 95.57 41.31C96.03 41.97 96.48 42.67 96.92 43.41C97.38 44.13 97.82 44.89 98.24 45.69C98.66 46.47 99.05 47.24 99.41 48H94.16C93.78 47.32 93.39 46.63 92.99 45.93C92.61 45.23 92.21 44.55 91.79 43.89C91.39 43.23 90.99 42.61 90.59 42.03C90.19 41.43 89.79 40.89 89.39 40.41H87.08V48H82.4V27.51C83.42 27.31 84.47 27.17 85.55 27.09C86.65 27.01 87.63 26.97 88.49 26.97ZM88.76 30.96C88.42 30.96 88.11 30.97 87.83 30.99C87.57 31.01 87.32 31.03 87.08 31.05V36.69H88.4C90.16 36.69 91.42 36.47 92.18 36.03C92.94 35.59 93.32 34.84 93.32 33.78C93.32 32.76 92.93 32.04 92.15 31.62C91.39 31.18 90.26 30.96 88.76 30.96ZM100.598 40.23C100.598 38.83 100.808 37.61 101.228 36.57C101.668 35.51 102.238 34.63 102.938 33.93C103.638 33.23 104.438 32.7 105.338 32.34C106.258 31.98 107.198 31.8 108.158 31.8C110.398 31.8 112.168 32.49 113.468 33.87C114.768 35.23 115.418 37.24 115.418 39.9C115.418 40.16 115.408 40.45 115.388 40.77C115.368 41.07 115.348 41.34 115.328 41.58H105.188C105.288 42.5 105.718 43.23 106.478 43.77C107.238 44.31 108.258 44.58 109.538 44.58C110.358 44.58 111.158 44.51 111.938 44.37C112.738 44.21 113.388 44.02 113.888 43.8L114.488 47.43C114.248 47.55 113.928 47.67 113.528 47.79C113.128 47.91 112.678 48.01 112.178 48.09C111.698 48.19 111.178 48.27 110.618 48.33C110.058 48.39 109.498 48.42 108.938 48.42C107.518 48.42 106.278 48.21 105.218 47.79C104.178 47.37 103.308 46.8 102.608 46.08C101.928 45.34 101.418 44.47 101.078 43.47C100.758 42.47 100.598 41.39 100.598 40.23ZM111.098 38.52C111.078 38.14 111.008 37.77 110.888 37.41C110.788 37.05 110.618 36.73 110.378 36.45C110.158 36.17 109.868 35.94 109.508 35.76C109.168 35.58 108.738 35.49 108.218 35.49C107.718 35.49 107.288 35.58 106.928 35.76C106.568 35.92 106.268 36.14 106.028 36.42C105.788 36.7 105.598 37.03 105.458 37.41C105.338 37.77 105.248 38.14 105.188 38.52H111.098ZM123.158 48C122.138 46 121.098 43.66 120.038 40.98C118.998 38.3 118.008 35.38 117.068 32.22H121.808C122.008 33 122.238 33.85 122.498 34.77C122.778 35.67 123.058 36.59 123.338 37.53C123.638 38.45 123.928 39.35 124.208 40.23C124.508 41.11 124.798 41.91 125.078 42.63C125.338 41.91 125.618 41.11 125.918 40.23C126.218 39.35 126.508 38.45 126.788 37.53C127.088 36.59 127.368 35.67 127.628 34.77C127.908 33.85 128.148 33 128.348 32.22H132.968C132.028 35.38 131.028 38.3 129.968 40.98C128.928 43.66 127.898 46 126.878 48H123.158ZM139.832 48H135.362V32.22H139.832V48ZM140.252 27.66C140.252 28.48 139.982 29.13 139.442 29.61C138.922 30.07 138.302 30.3 137.582 30.3C136.862 30.3 136.232 30.07 135.692 29.61C135.172 29.13 134.912 28.48 134.912 27.66C134.912 26.84 135.172 26.2 135.692 25.74C136.232 25.26 136.862 25.02 137.582 25.02C138.302 25.02 138.922 25.26 139.442 25.74C139.982 26.2 140.252 26.84 140.252 27.66ZM143.284 40.23C143.284 38.83 143.494 37.61 143.914 36.57C144.354 35.51 144.924 34.63 145.624 33.93C146.324 33.23 147.124 32.7 148.024 32.34C148.944 31.98 149.884 31.8 150.844 31.8C153.084 31.8 154.854 32.49 156.154 33.87C157.454 35.23 158.104 37.24 158.104 39.9C158.104 40.16 158.094 40.45 158.074 40.77C158.054 41.07 158.034 41.34 158.014 41.58H147.874C147.974 42.5 148.404 43.23 149.164 43.77C149.924 44.31 150.944 44.58 152.224 44.58C153.044 44.58 153.844 44.51 154.624 44.37C155.424 44.21 156.074 44.02 156.574 43.8L157.174 47.43C156.934 47.55 156.614 47.67 156.214 47.79C155.814 47.91 155.364 48.01 154.864 48.09C154.384 48.19 153.864 48.27 153.304 48.33C152.744 48.39 152.184 48.42 151.624 48.42C150.204 48.42 148.964 48.21 147.904 47.79C146.864 47.37 145.994 46.8 145.294 46.08C144.614 45.34 144.104 44.47 143.764 43.47C143.444 42.47 143.284 41.39 143.284 40.23ZM153.784 38.52C153.764 38.14 153.694 37.77 153.574 37.41C153.474 37.05 153.304 36.73 153.064 36.45C152.844 36.17 152.554 35.94 152.194 35.76C151.854 35.58 151.424 35.49 150.904 35.49C150.404 35.49 149.974 35.58 149.614 35.76C149.254 35.92 148.954 36.14 148.714 36.42C148.474 36.7 148.284 37.03 148.144 37.41C148.024 37.77 147.934 38.14 147.874 38.52H153.784ZM171.153 38.94C170.753 40.46 170.323 41.97 169.863 43.47C169.423 44.97 168.953 46.48 168.453 48H164.973C164.613 47.16 164.223 46.16 163.803 45C163.383 43.84 162.943 42.58 162.483 41.22C162.043 39.84 161.583 38.39 161.103 36.87C160.643 35.33 160.193 33.78 159.753 32.22H164.463C164.623 32.94 164.793 33.73 164.973 34.59C165.173 35.43 165.373 36.3 165.573 37.2C165.793 38.1 166.013 39.01 166.233 39.93C166.473 40.83 166.713 41.7 166.953 42.54C167.213 41.66 167.463 40.76 167.703 39.84C167.963 38.92 168.203 38.02 168.423 37.14C168.663 36.24 168.883 35.38 169.083 34.56C169.303 33.72 169.493 32.94 169.653 32.22H172.893C173.053 32.94 173.233 33.72 173.433 34.56C173.633 35.38 173.843 36.24 174.063 37.14C174.283 38.02 174.513 38.92 174.753 39.84C174.993 40.76 175.243 41.66 175.503 42.54C175.743 41.7 175.983 40.83 176.223 39.93C176.463 39.01 176.683 38.1 176.883 37.2C177.103 36.3 177.303 35.43 177.483 34.59C177.683 33.73 177.863 32.94 178.023 32.22H182.673C182.233 33.78 181.773 35.33 181.293 36.87C180.833 38.39 180.373 39.84 179.913 41.22C179.473 42.58 179.033 43.84 178.593 45C178.173 46.16 177.783 47.16 177.423 48H173.943C173.443 46.48 172.953 44.97 172.473 43.47C171.993 41.97 171.553 40.46 171.153 38.94ZM191.049 44.43C191.709 44.43 192.249 44.38 192.669 44.28C193.109 44.16 193.459 44.01 193.719 43.83C193.979 43.63 194.159 43.4 194.259 43.14C194.359 42.88 194.409 42.59 194.409 42.27C194.409 41.59 194.089 41.03 193.449 40.59C192.809 40.13 191.709 39.64 190.149 39.12C189.469 38.88 188.789 38.61 188.109 38.31C187.429 37.99 186.819 37.6 186.279 37.14C185.739 36.66 185.299 36.09 184.959 35.43C184.619 34.75 184.449 33.93 184.449 32.97C184.449 32.01 184.629 31.15 184.989 30.39C185.349 29.61 185.859 28.95 186.519 28.41C187.179 27.87 187.979 27.46 188.919 27.18C189.859 26.88 190.919 26.73 192.099 26.73C193.499 26.73 194.709 26.88 195.729 27.18C196.749 27.48 197.589 27.81 198.249 28.17L196.899 31.86C196.319 31.56 195.669 31.3 194.949 31.08C194.249 30.84 193.399 30.72 192.399 30.72C191.279 30.72 190.469 30.88 189.969 31.2C189.489 31.5 189.249 31.97 189.249 32.61C189.249 32.99 189.339 33.31 189.519 33.57C189.699 33.83 189.949 34.07 190.269 34.29C190.609 34.49 190.989 34.68 191.409 34.86C191.849 35.02 192.329 35.19 192.849 35.37C193.929 35.77 194.869 36.17 195.669 36.57C196.469 36.95 197.129 37.4 197.649 37.92C198.189 38.44 198.589 39.05 198.849 39.75C199.109 40.45 199.239 41.3 199.239 42.3C199.239 44.24 198.559 45.75 197.199 46.83C195.839 47.89 193.789 48.42 191.049 48.42C190.129 48.42 189.299 48.36 188.559 48.24C187.819 48.14 187.159 48.01 186.579 47.85C186.019 47.69 185.529 47.52 185.109 47.34C184.709 47.16 184.369 46.99 184.089 46.83L185.409 43.11C186.029 43.45 186.789 43.76 187.689 44.04C188.609 44.3 189.729 44.43 191.049 44.43ZM216.081 32.22C215.181 35.26 214.241 38.11 213.261 40.77C212.281 43.43 211.211 46.01 210.051 48.51C209.631 49.41 209.211 50.17 208.791 50.79C208.371 51.43 207.911 51.95 207.411 52.35C206.911 52.77 206.341 53.07 205.701 53.25C205.081 53.45 204.351 53.55 203.511 53.55C202.811 53.55 202.161 53.48 201.561 53.34C200.981 53.22 200.501 53.08 200.121 52.92L200.901 49.35C201.361 49.51 201.771 49.62 202.131 49.68C202.491 49.74 202.871 49.77 203.271 49.77C204.071 49.77 204.681 49.55 205.101 49.11C205.541 48.69 205.911 48.1 206.211 47.34C205.191 45.34 204.171 43.1 203.151 40.62C202.131 38.12 201.171 35.32 200.271 32.22H205.011C205.211 33 205.441 33.85 205.701 34.77C205.981 35.67 206.271 36.59 206.571 37.53C206.871 38.45 207.171 39.35 207.471 40.23C207.791 41.11 208.091 41.91 208.371 42.63C208.631 41.91 208.901 41.11 209.181 40.23C209.461 39.35 209.731 38.45 209.991 37.53C210.271 36.59 210.531 35.67 210.771 34.77C211.031 33.85 211.261 33 211.461 32.22H216.081ZM223.007 44.79C223.827 44.79 224.407 44.71 224.747 44.55C225.087 44.39 225.257 44.08 225.257 43.62C225.257 43.26 225.037 42.95 224.597 42.69C224.157 42.41 223.487 42.1 222.587 41.76C221.887 41.5 221.247 41.23 220.667 40.95C220.107 40.67 219.627 40.34 219.227 39.96C218.827 39.56 218.517 39.09 218.297 38.55C218.077 38.01 217.967 37.36 217.967 36.6C217.967 35.12 218.517 33.95 219.617 33.09C220.717 32.23 222.227 31.8 224.147 31.8C225.107 31.8 226.027 31.89 226.907 32.07C227.787 32.23 228.487 32.41 229.007 32.61L228.227 36.09C227.707 35.91 227.137 35.75 226.517 35.61C225.917 35.47 225.237 35.4 224.477 35.4C223.077 35.4 222.377 35.79 222.377 36.57C222.377 36.75 222.407 36.91 222.467 37.05C222.527 37.19 222.647 37.33 222.827 37.47C223.007 37.59 223.247 37.73 223.547 37.89C223.867 38.03 224.267 38.19 224.747 38.37C225.727 38.73 226.537 39.09 227.177 39.45C227.817 39.79 228.317 40.17 228.677 40.59C229.057 40.99 229.317 41.44 229.457 41.94C229.617 42.44 229.697 43.02 229.697 43.68C229.697 45.24 229.107 46.42 227.927 47.22C226.767 48.02 225.117 48.42 222.977 48.42C221.577 48.42 220.407 48.3 219.467 48.06C218.547 47.82 217.907 47.62 217.547 47.46L218.297 43.83C219.057 44.13 219.837 44.37 220.637 44.55C221.437 44.71 222.227 44.79 223.007 44.79ZM232.888 28.29L237.358 27.57V32.22H242.728V35.94H237.358V41.49C237.358 42.43 237.518 43.18 237.838 43.74C238.178 44.3 238.848 44.58 239.848 44.58C240.328 44.58 240.818 44.54 241.318 44.46C241.838 44.36 242.308 44.23 242.728 44.07L243.358 47.55C242.818 47.77 242.218 47.96 241.558 48.12C240.898 48.28 240.088 48.36 239.128 48.36C237.908 48.36 236.898 48.2 236.098 47.88C235.298 47.54 234.658 47.08 234.178 46.5C233.698 45.9 233.358 45.18 233.158 44.34C232.978 43.5 232.888 42.57 232.888 41.55V28.29ZM245.032 40.23C245.032 38.83 245.242 37.61 245.662 36.57C246.102 35.51 246.672 34.63 247.372 33.93C248.072 33.23 248.872 32.7 249.772 32.34C250.692 31.98 251.632 31.8 252.592 31.8C254.832 31.8 256.602 32.49 257.902 33.87C259.202 35.23 259.852 37.24 259.852 39.9C259.852 40.16 259.842 40.45 259.822 40.77C259.802 41.07 259.782 41.34 259.762 41.58H249.622C249.722 42.5 250.152 43.23 250.912 43.77C251.672 44.31 252.692 44.58 253.972 44.58C254.792 44.58 255.592 44.51 256.372 44.37C257.172 44.21 257.822 44.02 258.322 43.8L258.922 47.43C258.682 47.55 258.362 47.67 257.962 47.79C257.562 47.91 257.112 48.01 256.612 48.09C256.132 48.19 255.612 48.27 255.052 48.33C254.492 48.39 253.932 48.42 253.372 48.42C251.952 48.42 250.712 48.21 249.652 47.79C248.612 47.37 247.742 46.8 247.042 46.08C246.362 45.34 245.852 44.47 245.512 43.47C245.192 42.47 245.032 41.39 245.032 40.23ZM255.532 38.52C255.512 38.14 255.442 37.77 255.322 37.41C255.222 37.05 255.052 36.73 254.812 36.45C254.592 36.17 254.302 35.94 253.942 35.76C253.602 35.58 253.172 35.49 252.652 35.49C252.152 35.49 251.722 35.58 251.362 35.76C251.002 35.92 250.702 36.14 250.462 36.42C250.222 36.7 250.032 37.03 249.892 37.41C249.772 37.77 249.682 38.14 249.622 38.52H255.532ZM271.971 39.63C271.971 38.19 271.781 37.17 271.401 36.57C271.041 35.97 270.411 35.67 269.511 35.67C269.231 35.67 268.941 35.69 268.641 35.73C268.341 35.75 268.051 35.78 267.771 35.82V48H263.301V32.76C263.681 32.66 264.121 32.56 264.621 32.46C265.141 32.34 265.681 32.24 266.241 32.16C266.821 32.06 267.411 31.99 268.011 31.95C268.611 31.89 269.201 31.86 269.781 31.86C270.921 31.86 271.841 32.01 272.541 32.31C273.261 32.59 273.851 32.93 274.311 33.33C274.951 32.87 275.681 32.51 276.501 32.25C277.341 31.99 278.111 31.86 278.811 31.86C280.071 31.86 281.101 32.04 281.901 32.4C282.721 32.74 283.371 33.23 283.851 33.87C284.331 34.51 284.661 35.27 284.841 36.15C285.021 37.03 285.111 38.01 285.111 39.09V48H280.641V39.63C280.641 38.19 280.451 37.17 280.071 36.57C279.711 35.97 279.081 35.67 278.181 35.67C277.941 35.67 277.601 35.73 277.161 35.85C276.741 35.97 276.391 36.12 276.111 36.3C276.251 36.76 276.341 37.25 276.381 37.77C276.421 38.27 276.441 38.81 276.441 39.39V48H271.971V39.63Z" fill="#1CF9FD"/>
<path d="M1234.38 31.912H1235.93V43H1234.38V31.912ZM1238.58 34.92C1238.92 34.8347 1239.37 34.744 1239.94 34.648C1240.5 34.552 1241.15 34.504 1241.89 34.504C1242.55 34.504 1243.1 34.6 1243.54 34.792C1243.97 34.9733 1244.32 35.2347 1244.58 35.576C1244.84 35.9067 1245.03 36.3067 1245.14 36.776C1245.24 37.2453 1245.3 37.7627 1245.3 38.328V43H1243.81V38.648C1243.81 38.136 1243.77 37.6987 1243.7 37.336C1243.63 36.9733 1243.52 36.68 1243.36 36.456C1243.2 36.232 1242.99 36.072 1242.72 35.976C1242.45 35.8693 1242.12 35.816 1241.73 35.816C1241.57 35.816 1241.4 35.8213 1241.23 35.832C1241.06 35.8427 1240.9 35.8587 1240.74 35.88C1240.59 35.8907 1240.45 35.9067 1240.32 35.928C1240.2 35.9493 1240.12 35.9653 1240.06 35.976V43H1238.58V34.92ZM1249.7 41.928C1250.31 41.928 1250.76 41.848 1251.04 41.688C1251.34 41.528 1251.49 41.272 1251.49 40.92C1251.49 40.5573 1251.35 40.2693 1251.06 40.056C1250.77 39.8427 1250.3 39.6027 1249.64 39.336C1249.32 39.208 1249.01 39.08 1248.71 38.952C1248.42 38.8133 1248.17 38.6533 1247.96 38.472C1247.74 38.2907 1247.57 38.072 1247.44 37.816C1247.32 37.56 1247.25 37.2453 1247.25 36.872C1247.25 36.136 1247.52 35.5547 1248.07 35.128C1248.61 34.6907 1249.35 34.472 1250.29 34.472C1250.53 34.472 1250.76 34.488 1251 34.52C1251.23 34.5413 1251.45 34.5733 1251.65 34.616C1251.86 34.648 1252.03 34.6853 1252.18 34.728C1252.34 34.7707 1252.46 34.808 1252.55 34.84L1252.28 36.12C1252.12 36.0347 1251.87 35.9493 1251.52 35.864C1251.18 35.768 1250.77 35.72 1250.29 35.72C1249.88 35.72 1249.51 35.8053 1249.2 35.976C1248.9 36.136 1248.74 36.392 1248.74 36.744C1248.74 36.9253 1248.77 37.0853 1248.84 37.224C1248.91 37.3627 1249.02 37.4907 1249.16 37.608C1249.31 37.7147 1249.49 37.816 1249.7 37.912C1249.91 38.008 1250.17 38.1093 1250.47 38.216C1250.86 38.3653 1251.22 38.5147 1251.52 38.664C1251.83 38.8027 1252.1 38.968 1252.31 39.16C1252.53 39.352 1252.7 39.5867 1252.82 39.864C1252.94 40.1307 1253 40.4613 1253 40.856C1253 41.624 1252.71 42.2053 1252.13 42.6C1251.57 42.9947 1250.76 43.192 1249.7 43.192C1248.96 43.192 1248.39 43.128 1247.97 43C1247.56 42.8827 1247.27 42.792 1247.12 42.728L1247.4 41.448C1247.57 41.512 1247.84 41.608 1248.21 41.736C1248.59 41.864 1249.08 41.928 1249.7 41.928ZM1254.44 38.856C1254.44 38.12 1254.55 37.48 1254.76 36.936C1254.97 36.3813 1255.26 35.9227 1255.61 35.56C1255.96 35.1973 1256.37 34.9253 1256.83 34.744C1257.28 34.5627 1257.75 34.472 1258.23 34.472C1259.35 34.472 1260.21 34.824 1260.81 35.528C1261.41 36.2213 1261.7 37.2827 1261.7 38.712C1261.7 38.776 1261.7 38.8613 1261.7 38.968C1261.7 39.064 1261.7 39.1547 1261.69 39.24H1255.99C1256.06 40.104 1256.31 40.76 1256.75 41.208C1257.18 41.656 1257.87 41.88 1258.79 41.88C1259.32 41.88 1259.75 41.8373 1260.11 41.752C1260.47 41.656 1260.74 41.5653 1260.92 41.48L1261.13 42.728C1260.95 42.824 1260.63 42.9253 1260.17 43.032C1259.72 43.1387 1259.21 43.192 1258.63 43.192C1257.91 43.192 1257.28 43.0853 1256.75 42.872C1256.22 42.648 1255.79 42.344 1255.45 41.96C1255.11 41.576 1254.85 41.1227 1254.68 40.6C1254.52 40.0667 1254.44 39.4853 1254.44 38.856ZM1260.15 38.04C1260.16 37.368 1259.99 36.8187 1259.64 36.392C1259.3 35.9547 1258.83 35.736 1258.22 35.736C1257.88 35.736 1257.57 35.8053 1257.31 35.944C1257.05 36.072 1256.83 36.2427 1256.65 36.456C1256.47 36.6693 1256.32 36.9147 1256.22 37.192C1256.12 37.4693 1256.06 37.752 1256.03 38.04H1260.15ZM1266.91 34.504C1267.04 34.504 1267.19 34.5147 1267.35 34.536C1267.52 34.5467 1267.68 34.568 1267.84 34.6C1268 34.6213 1268.15 34.648 1268.27 34.68C1268.41 34.7013 1268.51 34.7227 1268.58 34.744L1268.32 36.04C1268.21 35.9973 1268.01 35.9493 1267.73 35.896C1267.46 35.832 1267.12 35.8 1266.69 35.8C1266.41 35.8 1266.14 35.832 1265.86 35.896C1265.59 35.9493 1265.42 35.9867 1265.33 36.008V43H1263.84V35.032C1264.19 34.904 1264.63 34.7867 1265.15 34.68C1265.68 34.5627 1266.26 34.504 1266.91 34.504ZM1271.5 43H1270.01V34.68H1271.5V43ZM1270.75 33.176C1270.48 33.176 1270.25 33.0907 1270.06 32.92C1269.88 32.7387 1269.79 32.4987 1269.79 32.2C1269.79 31.9013 1269.88 31.6667 1270.06 31.496C1270.25 31.3147 1270.48 31.224 1270.75 31.224C1271.02 31.224 1271.24 31.3147 1271.42 31.496C1271.61 31.6667 1271.71 31.9013 1271.71 32.2C1271.71 32.4987 1271.61 32.7387 1271.42 32.92C1271.24 33.0907 1271.02 33.176 1270.75 33.176ZM1277.13 34.504C1277.26 34.504 1277.41 34.5147 1277.57 34.536C1277.74 34.5467 1277.9 34.568 1278.06 34.6C1278.22 34.6213 1278.37 34.648 1278.49 34.68C1278.63 34.7013 1278.73 34.7227 1278.8 34.744L1278.54 36.04C1278.42 35.9973 1278.23 35.9493 1277.95 35.896C1277.68 35.832 1277.34 35.8 1276.91 35.8C1276.63 35.8 1276.35 35.832 1276.08 35.896C1275.81 35.9493 1275.63 35.9867 1275.55 36.008V43H1274.06V35.032C1274.41 34.904 1274.85 34.7867 1275.37 34.68C1275.9 34.5627 1276.48 34.504 1277.13 34.504ZM1289.46 38.36C1289.63 38.5733 1289.84 38.856 1290.1 39.208C1290.36 39.5493 1290.63 39.9333 1290.91 40.36C1291.19 40.776 1291.46 41.2133 1291.73 41.672C1292.01 42.1307 1292.24 42.5733 1292.43 43H1290.74C1290.52 42.5947 1290.29 42.184 1290.03 41.768C1289.79 41.352 1289.54 40.9573 1289.28 40.584C1289.02 40.2 1288.77 39.8427 1288.51 39.512C1288.27 39.1813 1288.04 38.8933 1287.84 38.648C1287.7 38.6587 1287.56 38.664 1287.41 38.664C1287.27 38.664 1287.13 38.664 1286.98 38.664H1285.58V43H1284.03V32.072C1284.47 31.9653 1284.95 31.896 1285.49 31.864C1286.03 31.8213 1286.53 31.8 1286.98 31.8C1288.53 31.8 1289.72 32.0933 1290.53 32.68C1291.35 33.2667 1291.76 34.1413 1291.76 35.304C1291.76 36.04 1291.56 36.6693 1291.17 37.192C1290.78 37.7147 1290.21 38.104 1289.46 38.36ZM1287.1 33.16C1286.44 33.16 1285.94 33.176 1285.58 33.208V37.384H1286.69C1287.22 37.384 1287.7 37.3573 1288.13 37.304C1288.55 37.2507 1288.91 37.1493 1289.2 37C1289.5 36.8507 1289.73 36.6427 1289.89 36.376C1290.05 36.0987 1290.13 35.736 1290.13 35.288C1290.13 34.872 1290.05 34.5253 1289.89 34.248C1289.73 33.9707 1289.51 33.752 1289.23 33.592C1288.97 33.432 1288.65 33.32 1288.27 33.256C1287.91 33.192 1287.52 33.16 1287.1 33.16ZM1293.53 38.856C1293.53 38.12 1293.64 37.48 1293.85 36.936C1294.07 36.3813 1294.35 35.9227 1294.7 35.56C1295.05 35.1973 1295.46 34.9253 1295.92 34.744C1296.38 34.5627 1296.85 34.472 1297.33 34.472C1298.45 34.472 1299.31 34.824 1299.9 35.528C1300.5 36.2213 1300.8 37.2827 1300.8 38.712C1300.8 38.776 1300.8 38.8613 1300.8 38.968C1300.8 39.064 1300.79 39.1547 1300.78 39.24H1295.09C1295.15 40.104 1295.4 40.76 1295.84 41.208C1296.28 41.656 1296.96 41.88 1297.89 41.88C1298.41 41.88 1298.85 41.8373 1299.2 41.752C1299.56 41.656 1299.83 41.5653 1300.01 41.48L1300.22 42.728C1300.04 42.824 1299.72 42.9253 1299.26 43.032C1298.81 43.1387 1298.3 43.192 1297.73 43.192C1297 43.192 1296.37 43.0853 1295.84 42.872C1295.32 42.648 1294.88 42.344 1294.54 41.96C1294.2 41.576 1293.95 41.1227 1293.77 40.6C1293.61 40.0667 1293.53 39.4853 1293.53 38.856ZM1299.25 38.04C1299.26 37.368 1299.09 36.8187 1298.73 36.392C1298.39 35.9547 1297.92 35.736 1297.31 35.736C1296.97 35.736 1296.67 35.8053 1296.4 35.944C1296.14 36.072 1295.92 36.2427 1295.74 36.456C1295.56 36.6693 1295.42 36.9147 1295.31 37.192C1295.21 37.4693 1295.15 37.752 1295.12 38.04H1299.25ZM1309.43 34.68C1309.02 36.2373 1308.53 37.7307 1307.96 39.16C1307.41 40.5893 1306.87 41.8693 1306.34 43H1305C1304.48 41.8693 1303.93 40.5893 1303.37 39.16C1302.81 37.7307 1302.33 36.2373 1301.91 34.68H1303.51C1303.64 35.2027 1303.79 35.7627 1303.96 36.36C1304.14 36.9467 1304.33 37.5333 1304.52 38.12C1304.72 38.696 1304.93 39.256 1305.13 39.8C1305.33 40.344 1305.52 40.8293 1305.7 41.256C1305.89 40.8293 1306.08 40.344 1306.28 39.8C1306.48 39.256 1306.68 38.696 1306.87 38.12C1307.07 37.5333 1307.26 36.9467 1307.43 36.36C1307.61 35.7627 1307.77 35.2027 1307.9 34.68H1309.43ZM1312.46 43H1310.97V34.68H1312.46V43ZM1311.7 33.176C1311.44 33.176 1311.21 33.0907 1311.02 32.92C1310.83 32.7387 1310.74 32.4987 1310.74 32.2C1310.74 31.9013 1310.83 31.6667 1311.02 31.496C1311.21 31.3147 1311.44 31.224 1311.7 31.224C1311.97 31.224 1312.19 31.3147 1312.38 31.496C1312.57 31.6667 1312.66 31.9013 1312.66 32.2C1312.66 32.4987 1312.57 32.7387 1312.38 32.92C1312.19 33.0907 1311.97 33.176 1311.7 33.176ZM1314.55 38.856C1314.55 38.12 1314.66 37.48 1314.87 36.936C1315.08 36.3813 1315.37 35.9227 1315.72 35.56C1316.07 35.1973 1316.48 34.9253 1316.93 34.744C1317.39 34.5627 1317.86 34.472 1318.34 34.472C1319.46 34.472 1320.32 34.824 1320.92 35.528C1321.52 36.2213 1321.81 37.2827 1321.81 38.712C1321.81 38.776 1321.81 38.8613 1321.81 38.968C1321.81 39.064 1321.81 39.1547 1321.8 39.24H1316.1C1316.17 40.104 1316.42 40.76 1316.85 41.208C1317.29 41.656 1317.97 41.88 1318.9 41.88C1319.43 41.88 1319.86 41.8373 1320.21 41.752C1320.58 41.656 1320.85 41.5653 1321.03 41.48L1321.24 42.728C1321.06 42.824 1320.74 42.9253 1320.28 43.032C1319.83 43.1387 1319.32 43.192 1318.74 43.192C1318.02 43.192 1317.39 43.0853 1316.85 42.872C1316.33 42.648 1315.9 42.344 1315.56 41.96C1315.22 41.576 1314.96 41.1227 1314.79 40.6C1314.63 40.0667 1314.55 39.4853 1314.55 38.856ZM1320.26 38.04C1320.27 37.368 1320.1 36.8187 1319.75 36.392C1319.41 35.9547 1318.93 35.736 1318.33 35.736C1317.99 35.736 1317.68 35.8053 1317.41 35.944C1317.16 36.072 1316.94 36.2427 1316.76 36.456C1316.58 36.6693 1316.43 36.9147 1316.33 37.192C1316.23 37.4693 1316.17 37.752 1316.13 38.04H1320.26ZM1330.75 43C1330.45 42.232 1330.13 41.3573 1329.79 40.376C1329.46 39.384 1329.16 38.3547 1328.88 37.288C1328.6 38.3547 1328.3 39.384 1327.97 40.376C1327.64 41.3573 1327.32 42.232 1327.02 43H1325.73C1325.24 41.9013 1324.76 40.648 1324.29 39.24C1323.82 37.832 1323.38 36.312 1322.96 34.68H1324.56C1324.67 35.1813 1324.79 35.7253 1324.94 36.312C1325.09 36.8987 1325.25 37.4853 1325.41 38.072C1325.58 38.6587 1325.75 39.224 1325.94 39.768C1326.12 40.312 1326.29 40.7867 1326.45 41.192C1326.63 40.6907 1326.81 40.1627 1326.98 39.608C1327.16 39.0427 1327.33 38.4773 1327.49 37.912C1327.65 37.336 1327.8 36.776 1327.94 36.232C1328.09 35.6773 1328.21 35.16 1328.32 34.68H1329.55C1329.65 35.16 1329.77 35.6773 1329.9 36.232C1330.04 36.776 1330.19 37.336 1330.35 37.912C1330.51 38.4773 1330.68 39.0427 1330.85 39.608C1331.03 40.1627 1331.21 40.6907 1331.39 41.192C1331.55 40.7867 1331.72 40.312 1331.89 39.768C1332.07 39.224 1332.25 38.6587 1332.42 38.072C1332.59 37.4853 1332.75 36.8987 1332.9 36.312C1333.05 35.7253 1333.17 35.1813 1333.28 34.68H1334.82C1334.4 36.312 1333.96 37.832 1333.49 39.24C1333.02 40.648 1332.54 41.9013 1332.05 43H1330.75Z" fill="white"/>
<rect y="1014" width="1440" height="10" fill="#E84691"/>
<rect x="571" y="561" width="298" height="46" rx="5" fill="#2E6CBA"/>
<path d="M696.29 439.98V444H682.4V423.21H687.08V439.98H696.29ZM713.764 436.08C713.764 437.32 713.584 438.46 713.224 439.5C712.864 440.52 712.344 441.4 711.664 442.14C710.984 442.86 710.164 443.42 709.204 443.82C708.264 444.22 707.204 444.42 706.024 444.42C704.864 444.42 703.804 444.22 702.844 443.82C701.904 443.42 701.094 442.86 700.414 442.14C699.734 441.4 699.204 440.52 698.824 439.5C698.444 438.46 698.254 437.32 698.254 436.08C698.254 434.84 698.444 433.71 698.824 432.69C699.224 431.67 699.764 430.8 700.444 430.08C701.144 429.36 701.964 428.8 702.904 428.4C703.864 428 704.904 427.8 706.024 427.8C707.164 427.8 708.204 428 709.144 428.4C710.104 428.8 710.924 429.36 711.604 430.08C712.284 430.8 712.814 431.67 713.194 432.69C713.574 433.71 713.764 434.84 713.764 436.08ZM709.204 436.08C709.204 434.7 708.924 433.62 708.364 432.84C707.824 432.04 707.044 431.64 706.024 431.64C705.004 431.64 704.214 432.04 703.654 432.84C703.094 433.62 702.814 434.7 702.814 436.08C702.814 437.46 703.094 438.56 703.654 439.38C704.214 440.18 705.004 440.58 706.024 440.58C707.044 440.58 707.824 440.18 708.364 439.38C708.924 438.56 709.204 437.46 709.204 436.08ZM721.037 435.6C721.037 438.1 722.047 439.35 724.067 439.35C724.527 439.35 724.957 439.29 725.357 439.17C725.757 439.05 726.097 438.91 726.377 438.75V431.61C726.157 431.57 725.897 431.54 725.597 431.52C725.297 431.48 724.947 431.46 724.547 431.46C723.367 431.46 722.487 431.85 721.907 432.63C721.327 433.41 721.037 434.4 721.037 435.6ZM730.847 442.02C730.847 444.6 730.187 446.51 728.867 447.75C727.567 449.01 725.547 449.64 722.807 449.64C721.847 449.64 720.887 449.55 719.927 449.37C718.967 449.21 718.077 448.99 717.257 448.71L718.037 444.96C718.737 445.24 719.467 445.46 720.227 445.62C721.007 445.78 721.887 445.86 722.867 445.86C724.147 445.86 725.047 445.58 725.567 445.02C726.107 444.46 726.377 443.74 726.377 442.86V442.29C725.897 442.51 725.397 442.68 724.877 442.8C724.377 442.9 723.827 442.95 723.227 442.95C721.047 442.95 719.377 442.31 718.217 441.03C717.057 439.73 716.477 437.92 716.477 435.6C716.477 434.44 716.657 433.39 717.017 432.45C717.377 431.49 717.897 430.67 718.577 429.99C719.277 429.31 720.127 428.79 721.127 428.43C722.127 428.05 723.257 427.86 724.517 427.86C725.057 427.86 725.607 427.89 726.167 427.95C726.747 427.99 727.317 428.05 727.877 428.13C728.437 428.21 728.967 428.31 729.467 428.43C729.987 428.53 730.447 428.64 730.847 428.76V442.02ZM739.509 444H735.039V428.22H739.509V444ZM739.929 423.66C739.929 424.48 739.659 425.13 739.119 425.61C738.599 426.07 737.979 426.3 737.259 426.3C736.539 426.3 735.909 426.07 735.369 425.61C734.849 425.13 734.589 424.48 734.589 423.66C734.589 422.84 734.849 422.2 735.369 421.74C735.909 421.26 736.539 421.02 737.259 421.02C737.979 421.02 738.599 421.26 739.119 421.74C739.659 422.2 739.929 422.84 739.929 423.66ZM743.711 428.76C744.471 428.54 745.451 428.34 746.651 428.16C747.851 427.96 749.111 427.86 750.431 427.86C751.771 427.86 752.881 428.04 753.761 428.4C754.661 428.74 755.371 429.23 755.891 429.87C756.411 430.51 756.781 431.27 757.001 432.15C757.221 433.03 757.331 434.01 757.331 435.09V444H752.861V435.63C752.861 434.19 752.671 433.17 752.291 432.57C751.911 431.97 751.201 431.67 750.161 431.67C749.841 431.67 749.501 431.69 749.141 431.73C748.781 431.75 748.461 431.78 748.181 431.82V444H743.711V428.76Z" fill="#3E3E3E"/>
<rect x="571" y="460" width="298" height="36" rx="5" fill="white"/>
<rect x="571.5" y="460.5" width="297" height="35" rx="4.5" stroke="#666666" stroke-opacity="0.15"/>
<rect x="571" y="506" width="298" height="36" rx="5" fill="white"/>
<rect x="571.5" y="506.5" width="297" height="35" rx="4.5" stroke="#666666" stroke-opacity="0.15"/>
<path d="M583.44 484.24C582.704 484.24 582.075 484.128 581.552 483.904C581.04 483.68 580.624 483.371 580.304 482.976C579.984 482.581 579.749 482.123 579.6 481.6C579.461 481.067 579.392 480.496 579.392 479.888V472.912H580.48V479.744C580.48 480.352 580.549 480.88 580.688 481.328C580.837 481.765 581.04 482.128 581.296 482.416C581.552 482.704 581.861 482.917 582.224 483.056C582.587 483.195 582.992 483.264 583.44 483.264C583.888 483.264 584.293 483.195 584.656 483.056C585.019 482.917 585.328 482.704 585.584 482.416C585.84 482.128 586.037 481.765 586.176 481.328C586.325 480.88 586.4 480.352 586.4 479.744V472.912H587.488V479.888C587.488 480.496 587.413 481.067 587.264 481.6C587.125 482.123 586.896 482.581 586.576 482.976C586.256 483.371 585.835 483.68 585.312 483.904C584.8 484.128 584.176 484.24 583.44 484.24ZM591.947 483.264C592.544 483.264 593.035 483.168 593.419 482.976C593.814 482.773 594.011 482.437 594.011 481.968C594.011 481.744 593.974 481.552 593.899 481.392C593.835 481.232 593.723 481.088 593.563 480.96C593.403 480.832 593.19 480.709 592.923 480.592C592.667 480.475 592.347 480.336 591.963 480.176C591.654 480.048 591.36 479.92 591.083 479.792C590.806 479.653 590.56 479.499 590.347 479.328C590.134 479.147 589.963 478.933 589.835 478.688C589.707 478.443 589.643 478.144 589.643 477.792C589.643 477.12 589.894 476.576 590.395 476.16C590.907 475.744 591.606 475.536 592.491 475.536C593.056 475.536 593.52 475.584 593.883 475.68C594.256 475.776 594.518 475.861 594.667 475.936L594.427 476.864C594.299 476.8 594.08 476.715 593.771 476.608C593.472 476.501 593.03 476.448 592.443 476.448C592.208 476.448 591.984 476.475 591.771 476.528C591.568 476.571 591.387 476.645 591.227 476.752C591.067 476.848 590.939 476.976 590.843 477.136C590.747 477.285 590.699 477.472 590.699 477.696C590.699 477.92 590.742 478.112 590.827 478.272C590.912 478.432 591.035 478.576 591.195 478.704C591.366 478.821 591.568 478.933 591.803 479.04C592.048 479.147 592.326 479.264 592.635 479.392C592.955 479.52 593.259 479.653 593.547 479.792C593.846 479.92 594.107 480.08 594.331 480.272C594.555 480.453 594.736 480.677 594.875 480.944C595.014 481.2 595.083 481.525 595.083 481.92C595.083 482.667 594.8 483.232 594.235 483.616C593.68 484 592.918 484.192 591.947 484.192C591.222 484.192 590.667 484.128 590.283 484C589.899 483.883 589.643 483.792 589.515 483.728L589.787 482.784C589.819 482.805 589.888 482.843 589.995 482.896C590.102 482.939 590.246 482.992 590.427 483.056C590.608 483.109 590.822 483.157 591.067 483.2C591.323 483.243 591.616 483.264 591.947 483.264ZM603.447 483.712C603.137 483.797 602.721 483.893 602.199 484C601.676 484.107 601.036 484.16 600.279 484.16C599.66 484.16 599.143 484.069 598.727 483.888C598.311 483.707 597.975 483.451 597.719 483.12C597.463 482.789 597.276 482.389 597.159 481.92C597.052 481.451 596.999 480.933 596.999 480.368V475.728H598.039V480.032C598.039 480.619 598.081 481.115 598.167 481.52C598.252 481.925 598.391 482.256 598.583 482.512C598.775 482.757 599.02 482.939 599.319 483.056C599.628 483.163 600.001 483.216 600.439 483.216C600.929 483.216 601.356 483.189 601.719 483.136C602.081 483.083 602.311 483.035 602.407 482.992V475.728H603.447V483.712ZM608.812 483.248C609.217 483.248 609.569 483.237 609.868 483.216C610.177 483.184 610.439 483.147 610.652 483.104V480.192C610.535 480.139 610.348 480.085 610.092 480.032C609.836 479.968 609.484 479.936 609.036 479.936C608.78 479.936 608.513 479.957 608.236 480C607.959 480.032 607.703 480.112 607.468 480.24C607.233 480.357 607.041 480.523 606.892 480.736C606.743 480.949 606.668 481.232 606.668 481.584C606.668 481.893 606.716 482.155 606.812 482.368C606.919 482.581 607.063 482.752 607.244 482.88C607.436 483.008 607.66 483.104 607.916 483.168C608.183 483.221 608.481 483.248 608.812 483.248ZM608.716 475.536C609.26 475.536 609.719 475.616 610.092 475.776C610.476 475.925 610.785 476.139 611.02 476.416C611.255 476.683 611.425 477.003 611.532 477.376C611.639 477.749 611.692 478.155 611.692 478.592V483.808C611.585 483.84 611.431 483.877 611.228 483.92C611.025 483.952 610.791 483.989 610.524 484.032C610.257 484.075 609.959 484.107 609.628 484.128C609.308 484.16 608.977 484.176 608.636 484.176C608.199 484.176 607.793 484.128 607.42 484.032C607.057 483.936 606.737 483.787 606.46 483.584C606.193 483.371 605.98 483.104 605.82 482.784C605.671 482.453 605.596 482.053 605.596 481.584C605.596 481.136 605.681 480.752 605.852 480.432C606.023 480.112 606.263 479.851 606.572 479.648C606.881 479.435 607.249 479.28 607.676 479.184C608.103 479.088 608.567 479.04 609.068 479.04C609.217 479.04 609.372 479.051 609.532 479.072C609.703 479.083 609.863 479.104 610.012 479.136C610.172 479.157 610.305 479.184 610.412 479.216C610.529 479.237 610.609 479.259 610.652 479.28V478.768C610.652 478.48 610.631 478.203 610.588 477.936C610.545 477.659 610.449 477.413 610.3 477.2C610.161 476.976 609.959 476.8 609.692 476.672C609.436 476.533 609.095 476.464 608.668 476.464C608.06 476.464 607.607 476.507 607.308 476.592C607.009 476.677 606.791 476.747 606.652 476.8L606.508 475.888C606.689 475.803 606.967 475.723 607.34 475.648C607.724 475.573 608.183 475.536 608.716 475.536ZM611.196 472.448L608.46 474.672L607.932 474.064L610.46 471.632L611.196 472.448ZM617.161 475.568C617.502 475.568 617.822 475.595 618.121 475.648C618.43 475.701 618.643 475.755 618.761 475.808L618.553 476.704C618.467 476.661 618.291 476.619 618.025 476.576C617.769 476.523 617.427 476.496 617.001 476.496C616.553 476.496 616.19 476.528 615.913 476.592C615.646 476.656 615.47 476.709 615.385 476.752V484H614.345V476.112C614.611 475.995 614.979 475.877 615.449 475.76C615.918 475.632 616.489 475.568 617.161 475.568ZM621.369 484H620.329V475.728H621.369V484ZM621.609 473.232C621.609 473.477 621.534 473.675 621.385 473.824C621.236 473.963 621.054 474.032 620.841 474.032C620.628 474.032 620.446 473.963 620.297 473.824C620.148 473.675 620.073 473.477 620.073 473.232C620.073 472.987 620.148 472.795 620.297 472.656C620.446 472.507 620.628 472.432 620.841 472.432C621.054 472.432 621.236 472.507 621.385 472.656C621.534 472.795 621.609 472.987 621.609 473.232ZM631.182 479.872C631.182 480.523 631.086 481.115 630.894 481.648C630.713 482.181 630.451 482.635 630.11 483.008C629.779 483.381 629.385 483.675 628.926 483.888C628.467 484.091 627.961 484.192 627.406 484.192C626.851 484.192 626.345 484.091 625.886 483.888C625.427 483.675 625.027 483.381 624.686 483.008C624.355 482.635 624.094 482.181 623.902 481.648C623.721 481.115 623.63 480.523 623.63 479.872C623.63 479.221 623.721 478.629 623.902 478.096C624.094 477.563 624.355 477.109 624.686 476.736C625.027 476.352 625.427 476.059 625.886 475.856C626.345 475.643 626.851 475.536 627.406 475.536C627.961 475.536 628.467 475.643 628.926 475.856C629.385 476.059 629.779 476.352 630.11 476.736C630.451 477.109 630.713 477.563 630.894 478.096C631.086 478.629 631.182 479.221 631.182 479.872ZM630.078 479.872C630.078 478.837 629.838 478.016 629.358 477.408C628.878 476.789 628.227 476.48 627.406 476.48C626.585 476.48 625.934 476.789 625.454 477.408C624.974 478.016 624.734 478.837 624.734 479.872C624.734 480.907 624.974 481.728 625.454 482.336C625.934 482.944 626.585 483.248 627.406 483.248C628.227 483.248 628.878 482.944 629.358 482.336C629.838 481.728 630.078 480.907 630.078 479.872Z" fill="black" fill-opacity="0.2"/>
<path d="M581.824 529.296C582.688 529.296 583.36 529.141 583.84 528.832C584.32 528.512 584.56 528 584.56 527.296C584.56 526.891 584.48 526.555 584.32 526.288C584.171 526.011 583.968 525.781 583.712 525.6C583.456 525.408 583.163 525.248 582.832 525.12C582.501 524.981 582.155 524.837 581.792 524.688C581.333 524.507 580.923 524.32 580.56 524.128C580.197 523.936 579.888 523.723 579.632 523.488C579.376 523.243 579.179 522.965 579.04 522.656C578.912 522.347 578.848 521.984 578.848 521.568C578.848 520.619 579.163 519.899 579.792 519.408C580.421 518.917 581.296 518.672 582.416 518.672C582.715 518.672 583.008 518.693 583.296 518.736C583.584 518.779 583.851 518.837 584.096 518.912C584.352 518.976 584.581 519.051 584.784 519.136C584.997 519.221 585.173 519.312 585.312 519.408L584.928 520.32C584.619 520.107 584.24 519.936 583.792 519.808C583.355 519.68 582.88 519.616 582.368 519.616C582.016 519.616 581.691 519.653 581.392 519.728C581.104 519.792 580.853 519.904 580.64 520.064C580.427 520.213 580.256 520.405 580.128 520.64C580.011 520.875 579.952 521.157 579.952 521.488C579.952 521.829 580.016 522.117 580.144 522.352C580.272 522.587 580.448 522.789 580.672 522.96C580.907 523.131 581.179 523.285 581.488 523.424C581.797 523.563 582.133 523.707 582.496 523.856C582.933 524.037 583.344 524.219 583.728 524.4C584.123 524.581 584.464 524.795 584.752 525.04C585.04 525.285 585.269 525.584 585.44 525.936C585.611 526.288 585.696 526.72 585.696 527.232C585.696 528.235 585.344 528.987 584.64 529.488C583.947 529.989 583.003 530.24 581.808 530.24C581.381 530.24 580.992 530.213 580.64 530.16C580.288 530.107 579.973 530.043 579.696 529.968C579.419 529.883 579.184 529.797 578.992 529.712C578.8 529.627 578.651 529.552 578.544 529.488L578.896 528.544C579.003 528.608 579.147 528.683 579.328 528.768C579.509 528.853 579.723 528.939 579.968 529.024C580.213 529.099 580.491 529.163 580.8 529.216C581.109 529.269 581.451 529.296 581.824 529.296ZM587.146 525.856C587.146 525.131 587.247 524.501 587.45 523.968C587.663 523.424 587.935 522.971 588.266 522.608C588.607 522.245 588.991 521.979 589.418 521.808C589.855 521.627 590.303 521.536 590.762 521.536C591.775 521.536 592.58 521.867 593.178 522.528C593.786 523.189 594.09 524.208 594.09 525.584C594.09 525.669 594.084 525.755 594.074 525.84C594.074 525.925 594.068 526.005 594.058 526.08H588.25C588.282 527.093 588.532 527.872 589.002 528.416C589.471 528.96 590.218 529.232 591.242 529.232C591.807 529.232 592.255 529.179 592.586 529.072C592.916 528.965 593.156 528.875 593.306 528.8L593.498 529.696C593.348 529.781 593.066 529.883 592.65 530C592.244 530.117 591.764 530.176 591.21 530.176C590.484 530.176 589.866 530.069 589.354 529.856C588.842 529.643 588.42 529.344 588.09 528.96C587.759 528.576 587.519 528.123 587.37 527.6C587.22 527.067 587.146 526.485 587.146 525.856ZM593.018 525.2C592.996 524.336 592.794 523.664 592.41 523.184C592.026 522.704 591.482 522.464 590.778 522.464C590.404 522.464 590.068 522.539 589.77 522.688C589.482 522.837 589.226 523.04 589.002 523.296C588.788 523.541 588.618 523.829 588.49 524.16C588.372 524.491 588.303 524.837 588.282 525.2H593.018ZM596.407 522.016C596.717 521.931 597.133 521.835 597.655 521.728C598.178 521.621 598.818 521.568 599.575 521.568C600.205 521.568 600.727 521.659 601.143 521.84C601.57 522.021 601.906 522.283 602.151 522.624C602.407 522.955 602.589 523.355 602.695 523.824C602.802 524.293 602.855 524.811 602.855 525.376V530H601.815V525.712C601.815 525.125 601.773 524.629 601.687 524.224C601.613 523.819 601.479 523.488 601.287 523.232C601.106 522.976 600.861 522.795 600.551 522.688C600.253 522.571 599.874 522.512 599.415 522.512C598.925 522.512 598.498 522.539 598.135 522.592C597.783 522.645 597.554 522.693 597.447 522.736V530H596.407V522.016ZM605.517 530V517.776L606.557 517.584V521.968C606.898 521.84 607.245 521.744 607.597 521.68C607.949 521.605 608.301 521.568 608.653 521.568C609.293 521.568 609.826 521.659 610.253 521.84C610.679 522.021 611.021 522.283 611.277 522.624C611.533 522.955 611.709 523.355 611.805 523.824C611.911 524.293 611.965 524.811 611.965 525.376V530H610.925V525.712C610.925 525.125 610.882 524.629 610.797 524.224C610.722 523.819 610.589 523.488 610.397 523.232C610.215 522.976 609.97 522.795 609.661 522.688C609.351 522.571 608.962 522.512 608.493 522.512C608.311 522.512 608.114 522.528 607.901 522.56C607.698 522.592 607.506 522.629 607.325 522.672C607.143 522.704 606.978 522.741 606.829 522.784C606.69 522.827 606.599 522.859 606.557 522.88V530H605.517ZM617.234 529.248C617.639 529.248 617.991 529.237 618.29 529.216C618.599 529.184 618.861 529.147 619.074 529.104V526.192C618.957 526.139 618.77 526.085 618.514 526.032C618.258 525.968 617.906 525.936 617.458 525.936C617.202 525.936 616.935 525.957 616.658 526C616.381 526.032 616.125 526.112 615.89 526.24C615.655 526.357 615.463 526.523 615.314 526.736C615.165 526.949 615.09 527.232 615.09 527.584C615.09 527.893 615.138 528.155 615.234 528.368C615.341 528.581 615.485 528.752 615.666 528.88C615.858 529.008 616.082 529.104 616.338 529.168C616.605 529.221 616.903 529.248 617.234 529.248ZM617.138 521.536C617.682 521.536 618.141 521.616 618.514 521.776C618.898 521.925 619.207 522.139 619.442 522.416C619.677 522.683 619.847 523.003 619.954 523.376C620.061 523.749 620.114 524.155 620.114 524.592V529.808C620.007 529.84 619.853 529.877 619.65 529.92C619.447 529.952 619.213 529.989 618.946 530.032C618.679 530.075 618.381 530.107 618.05 530.128C617.73 530.16 617.399 530.176 617.058 530.176C616.621 530.176 616.215 530.128 615.842 530.032C615.479 529.936 615.159 529.787 614.882 529.584C614.615 529.371 614.402 529.104 614.242 528.784C614.093 528.453 614.018 528.053 614.018 527.584C614.018 527.136 614.103 526.752 614.274 526.432C614.445 526.112 614.685 525.851 614.994 525.648C615.303 525.435 615.671 525.28 616.098 525.184C616.525 525.088 616.989 525.04 617.49 525.04C617.639 525.04 617.794 525.051 617.954 525.072C618.125 525.083 618.285 525.104 618.434 525.136C618.594 525.157 618.727 525.184 618.834 525.216C618.951 525.237 619.031 525.259 619.074 525.28V524.768C619.074 524.48 619.053 524.203 619.01 523.936C618.967 523.659 618.871 523.413 618.722 523.2C618.583 522.976 618.381 522.8 618.114 522.672C617.858 522.533 617.517 522.464 617.09 522.464C616.482 522.464 616.029 522.507 615.73 522.592C615.431 522.677 615.213 522.747 615.074 522.8L614.93 521.888C615.111 521.803 615.389 521.723 615.762 521.648C616.146 521.573 616.605 521.536 617.138 521.536Z" fill="black" fill-opacity="0.2"/>
<path d="M698.328 590V578.912H705.448V580.624H700.344V583.36H704.888V585.04H700.344V588.288H705.832V590H698.328ZM707.607 581.904C707.98 581.797 708.466 581.696 709.063 581.6C709.66 581.504 710.322 581.456 711.047 581.456C711.73 581.456 712.3 581.552 712.759 581.744C713.218 581.925 713.58 582.187 713.847 582.528C714.124 582.859 714.316 583.264 714.423 583.744C714.54 584.213 714.599 584.731 714.599 585.296V590H712.663V585.6C712.663 585.152 712.631 584.773 712.567 584.464C712.514 584.144 712.418 583.888 712.279 583.696C712.151 583.493 711.97 583.349 711.735 583.264C711.511 583.168 711.234 583.12 710.903 583.12C710.658 583.12 710.402 583.136 710.135 583.168C709.868 583.2 709.671 583.227 709.543 583.248V590H707.607V581.904ZM718.892 590C718.358 588.901 717.809 587.643 717.244 586.224C716.689 584.795 716.182 583.264 715.724 581.632H717.788C717.905 582.101 718.038 582.608 718.188 583.152C718.348 583.685 718.513 584.224 718.684 584.768C718.865 585.301 719.046 585.824 719.228 586.336C719.42 586.837 719.596 587.291 719.756 587.696C719.916 587.291 720.086 586.837 720.268 586.336C720.449 585.824 720.625 585.301 720.796 584.768C720.977 584.224 721.148 583.685 721.308 583.152C721.468 582.608 721.606 582.101 721.724 581.632H723.724C723.265 583.264 722.753 584.795 722.188 586.224C721.633 587.643 721.089 588.901 720.556 590H718.892ZM727.122 590H725.186V581.632H727.122V590ZM727.33 579.184C727.33 579.547 727.212 579.835 726.978 580.048C726.743 580.261 726.466 580.368 726.146 580.368C725.815 580.368 725.532 580.261 725.298 580.048C725.063 579.835 724.946 579.547 724.946 579.184C724.946 578.811 725.063 578.517 725.298 578.304C725.532 578.091 725.815 577.984 726.146 577.984C726.466 577.984 726.743 578.091 726.978 578.304C727.212 578.517 727.33 578.811 727.33 579.184ZM732.535 588.64C733.133 588.64 733.586 588.608 733.895 588.544V586.4C733.789 586.368 733.634 586.336 733.431 586.304C733.229 586.272 733.005 586.256 732.759 586.256C732.546 586.256 732.327 586.272 732.103 586.304C731.89 586.336 731.693 586.395 731.511 586.48C731.341 586.565 731.202 586.688 731.095 586.848C730.989 586.997 730.935 587.189 730.935 587.424C730.935 587.883 731.079 588.203 731.367 588.384C731.655 588.555 732.045 588.64 732.535 588.64ZM732.375 581.424C733.015 581.424 733.554 581.504 733.991 581.664C734.429 581.824 734.775 582.048 735.031 582.336C735.298 582.624 735.485 582.976 735.591 583.392C735.709 583.797 735.767 584.245 735.767 584.736V589.808C735.469 589.872 735.015 589.947 734.407 590.032C733.81 590.128 733.133 590.176 732.375 590.176C731.874 590.176 731.415 590.128 730.999 590.032C730.583 589.936 730.226 589.781 729.927 589.568C729.639 589.355 729.41 589.077 729.239 588.736C729.079 588.395 728.999 587.973 728.999 587.472C728.999 586.992 729.09 586.587 729.271 586.256C729.463 585.925 729.719 585.659 730.039 585.456C730.359 585.243 730.727 585.093 731.143 585.008C731.57 584.912 732.013 584.864 732.471 584.864C732.685 584.864 732.909 584.88 733.143 584.912C733.378 584.933 733.629 584.976 733.895 585.04V584.72C733.895 584.496 733.869 584.283 733.815 584.08C733.762 583.877 733.666 583.701 733.527 583.552C733.399 583.392 733.223 583.269 732.999 583.184C732.786 583.099 732.514 583.056 732.183 583.056C731.735 583.056 731.325 583.088 730.951 583.152C730.578 583.216 730.274 583.291 730.039 583.376L729.799 581.808C730.045 581.723 730.402 581.637 730.871 581.552C731.341 581.467 731.842 581.424 732.375 581.424ZM742.906 583.376C742.746 583.323 742.522 583.269 742.234 583.216C741.957 583.152 741.632 583.12 741.258 583.12C741.045 583.12 740.816 583.141 740.57 583.184C740.336 583.227 740.17 583.264 740.074 583.296V590H738.138V582.032C738.512 581.893 738.976 581.765 739.53 581.648C740.096 581.52 740.72 581.456 741.402 581.456C741.53 581.456 741.68 581.467 741.85 581.488C742.021 581.499 742.192 581.52 742.362 581.552C742.533 581.573 742.698 581.605 742.858 581.648C743.018 581.68 743.146 581.712 743.242 581.744L742.906 583.376Z" fill="white"/>
</svg>
